SplineFontDB: 3.2
FontName: Reijima-ExtraBold
FullName: Reijima ExtraBold
FamilyName: Reijima ExtraBold
Weight: Heavy
Copyright: Copyright (c) 2019 by Coji Morishita. All rights reserved.
Version: 1.000
ItalicAngle: 0
UnderlinePosition: -100
UnderlineWidth: 50
Ascent: 860
Descent: 140
InvalidEm: 0
sfntRevision: 0x00010000
LayerCount: 2
Layer: 0 1 "Back" 1
Layer: 1 1 "Fore" 0
XUID: [1021 531 -1996577725 4402147]
StyleMap: 0x0040
FSType: 8
OS2Version: 4
OS2_WeightWidthSlopeOnly: 0
OS2_UseTypoMetrics: 1
CreationTime: 1575364793
ModificationTime: 1707312976
PfmFamily: 81
TTFWeight: 800
TTFWidth: 5
LineGap: 0
VLineGap: 1000
Panose: 0 0 9 0 0 0 0 0 0 0
OS2TypoAscent: 960
OS2TypoAOffset: 0
OS2TypoDescent: -230
OS2TypoDOffset: 0
OS2TypoLinegap: 200
OS2WinAscent: 1060
OS2WinAOffset: 0
OS2WinDescent: 330
OS2WinDOffset: 0
HheadAscent: 1060
HheadAOffset: 0
HheadDescent: -330
HheadDOffset: 0
OS2SubXSize: 650
OS2SubYSize: 600
OS2SubXOff: 0
OS2SubYOff: 75
OS2SupXSize: 650
OS2SupYSize: 600
OS2SupXOff: 0
OS2SupYOff: 350
OS2StrikeYSize: 50
OS2StrikeYPos: 312
OS2CapHeight: 730
OS2XHeight: 520
OS2Vendor: 'M+  '
OS2CodePages: 0000019f.00000000
OS2UnicodeRanges: a00002ff.4000004b.00000000.00000000
Lookup: 1 0 0 "'aalt' Access All Alternates in Latin lookup 0" { "'aalt' Access All Alternates in Latin lookup 0 subtable"  } ['aalt' ('DFLT' <'dflt' > 'latn' <'AZE ' 'CAT ' 'CRT ' 'KAZ ' 'MOL ' 'ROM ' 'TAT ' 'TRK ' 'dflt' > ) ]
Lookup: 3 0 0 "'aalt' Access All Alternates in Latin lookup 1" { "'aalt' Access All Alternates in Latin lookup 1 subtable"  } ['aalt' ('DFLT' <'dflt' > 'latn' <'AZE ' 'CAT ' 'CRT ' 'KAZ ' 'MOL ' 'ROM ' 'TAT ' 'TRK ' 'dflt' > ) ]
Lookup: 6 0 0 "'ccmp' Glyph Composition/Decomposition in Latin lookup 2" { "'ccmp' Glyph Composition/Decomposition in Latin lookup 2 contextual 0"  "'ccmp' Glyph Composition/Decomposition in Latin lookup 2 contextual 1"  } ['ccmp' ('DFLT' <'dflt' > 'latn' <'AZE ' 'CAT ' 'CRT ' 'KAZ ' 'MOL ' 'ROM ' 'TAT ' 'TRK ' 'dflt' > ) ]

StartChar: .notdef
Encoding: 1114112 -1 0
Width: 500
Flags: W
LayerCount: 2
Fore
SplineSet
410 -140 m 1,0,-1
 93 -140 l 1,1,-1
 93 860 l 1,2,-1
 410 860 l 1,3,-1
 410 -140 l 1,0,-1
168 793 m 1,4,-1
 168 760 l 1,5,-1
 233 760 l 1,6,-1
 233 723 l 1,7,-1
 167 723 l 1,8,-1
 167 690 l 1,9,-1
 333 690 l 1,10,-1
 333 723 l 1,11,-1
 267 723 l 1,12,-1
 267 760 l 1,13,-1
 333 760 l 1,14,-1
 333 793 l 1,15,-1
 168 793 l 1,4,-1
167 664 m 1,16,-1
 167 560 l 1,17,-1
 333 560 l 1,18,-1
 333 594 l 1,19,-1
 267 594 l 1,20,-1
 267 664 l 1,21,-1
 167 664 l 1,16,-1
233 594 m 1,22,-1
 200 594 l 1,23,-1
 200 630 l 1,24,-1
 233 630 l 1,25,-1
 233 594 l 1,22,-1
167 533 m 1,26,-1
 167 500 l 1,27,-1
 233 500 l 1,28,-1
 233 463 l 1,29,-1
 167 463 l 1,30,-1
 167 430 l 1,31,-1
 267 430 l 1,32,-1
 267 500 l 1,33,-1
 333 500 l 1,34,-1
 333 533 l 1,35,-1
 167 533 l 1,26,-1
300 473 m 1,36,-1
 300 407 l 1,37,-1
 167 407 l 1,38,-1
 167 373 l 1,39,-1
 333 373 l 1,40,-1
 333 473 l 1,41,-1
 300 473 l 1,36,-1
233 351 m 1,42,-1
 233 295 l 1,43,-1
 267 295 l 1,44,-1
 267 318 l 1,45,-1
 300 318 l 1,46,-1
 300 271 l 1,47,-1
 200 271 l 1,48,-1
 200 351 l 1,49,-1
 167 351 l 1,50,-1
 167 238 l 1,51,-1
 333 238 l 1,52,-1
 333 351 l 1,53,-1
 233 351 l 1,42,-1
167 178 m 1,54,-1
 167 65 l 1,55,-1
 333 65 l 1,56,-1
 333 178 l 1,57,-1
 167 178 l 1,54,-1
300 98 m 1,58,-1
 200 98 l 1,59,-1
 200 145 l 1,60,-1
 300 145 l 1,61,-1
 300 98 l 1,58,-1
167 42 m 1,62,-1
 167 9 l 1,63,-1
 237 9 l 1,64,-1
 167 -38 l 1,65,-1
 167 -71 l 1,66,-1
 333 -71 l 1,67,-1
 333 -38 l 1,68,-1
 231 -38 l 1,69,-1
 301 9 l 1,70,-1
 333 9 l 1,71,-1
 333 42 l 1,72,-1
 167 42 l 1,62,-1
EndSplineSet
EndChar

StartChar: A
Encoding: 65 65 2
Width: 694
GlyphClass: 2
Flags: W
AnchorPoint: "Anchor-6" 347 730 basechar 0
AnchorPoint: "Anchor-5" 685 0 basechar 0
AnchorPoint: "Anchor-4" 347 0 basechar 0
LayerCount: 2
Fore
SplineSet
498 0 m 1,0,-1
 459 151 l 1,1,-1
 235 151 l 1,2,-1
 196 0 l 1,3,-1
 9 0 l 1,4,-1
 232 730 l 1,5,-1
 462 730 l 1,6,-1
 685 0 l 1,7,-1
 498 0 l 1,0,-1
271 294 m 1,8,-1
 423 294 l 1,9,-1
 348 585 l 1,10,-1
 346 585 l 1,11,-1
 271 294 l 1,8,-1
EndSplineSet
Substitution2: "Single Substitution lookup 21 subtable" ordfeminine
Substitution2: "'aalt' Access All Alternates in Latin lookup 0 subtable" ordfeminine
EndChar

StartChar: uni1EAE
Encoding: 7854 7854 5
Width: 694
GlyphClass: 2
Flags: W
AnchorPoint: "Anchor-6" 347 730 basechar 0
AnchorPoint: "Anchor-5" 685 0 basechar 0
AnchorPoint: "Anchor-4" 347 0 basechar 0
LayerCount: 2
Fore
SplineSet
227 794 m 128,-1,1
 174 820 174 820 143.5 866 c 128,-1,2
 113 912 113 912 112 971 c 1,3,-1
 242 971 l 1,4,-1
 310 1170 l 1,5,-1
 510 1170 l 1,6,-1
 388 960 l 1,7,-1
 267 960 l 1,8,9
 279 883 279 883 347 883 c 0,10,11
 384 883 384 883 404 904.5 c 128,-1,12
 424 926 424 926 430 971 c 1,13,-1
 582 971 l 1,14,15
 581 912 581 912 550.5 866 c 128,-1,16
 520 820 520 820 467 794 c 128,-1,17
 414 768 414 768 347 768 c 256,18,0
 280 768 280 768 227 794 c 128,-1,1
498 0 m 1,19,-1
 459 151 l 1,20,-1
 235 151 l 1,21,-1
 196 0 l 1,22,-1
 9 0 l 1,23,-1
 232 730 l 1,24,-1
 462 730 l 1,25,-1
 685 0 l 1,26,-1
 498 0 l 1,19,-1
271 294 m 1,27,-1
 423 294 l 1,28,-1
 348 585 l 1,29,-1
 346 585 l 1,30,-1
 271 294 l 1,27,-1
EndSplineSet
EndChar

StartChar: uni1EB0
Encoding: 7856 7856 7
Width: 694
GlyphClass: 2
Flags: W
AnchorPoint: "Anchor-6" 347 730 basechar 0
AnchorPoint: "Anchor-5" 685 0 basechar 0
AnchorPoint: "Anchor-4" 347 0 basechar 0
LayerCount: 2
Fore
SplineSet
401 902 m 128,-1,1
 421 921 421 921 428 960 c 1,2,-1
 306 960 l 1,3,-1
 184 1170 l 1,4,-1
 384 1170 l 1,5,-1
 452 971 l 1,6,-1
 582 971 l 1,7,8
 581 912 581 912 550.5 866 c 128,-1,9
 520 820 520 820 467 794 c 128,-1,10
 414 768 414 768 347 768 c 256,11,12
 280 768 280 768 227 794 c 128,-1,13
 174 820 174 820 143.5 866 c 128,-1,14
 113 912 113 912 112 971 c 1,15,-1
 265 971 l 1,16,17
 270 926 270 926 290 904.5 c 128,-1,18
 310 883 310 883 347 883 c 0,19,0
 381 883 381 883 401 902 c 128,-1,1
498 0 m 1,20,-1
 459 151 l 1,21,-1
 235 151 l 1,22,-1
 196 0 l 1,23,-1
 9 0 l 1,24,-1
 232 730 l 1,25,-1
 462 730 l 1,26,-1
 685 0 l 1,27,-1
 498 0 l 1,20,-1
271 294 m 1,28,-1
 423 294 l 1,29,-1
 348 585 l 1,30,-1
 346 585 l 1,31,-1
 271 294 l 1,28,-1
EndSplineSet
EndChar

StartChar: uni1EB2
Encoding: 7858 7858 8
Width: 694
GlyphClass: 2
Flags: W
AnchorPoint: "Anchor-6" 347 1171 basechar 0
AnchorPoint: "Anchor-5" 685 0 basechar 0
AnchorPoint: "Anchor-4" 347 0 basechar 0
LayerCount: 2
Fore
SplineSet
401.5 902 m 128,-1,1
 421 921 421 921 428 961 c 1,2,-1
 363 961 l 1,3,4
 374 994 374 994 374 1023 c 0,5,6
 374 1042 374 1042 363 1048.5 c 128,-1,7
 352 1055 352 1055 322 1055 c 0,8,9
 252 1055 252 1055 177 1032 c 1,10,-1
 164 1151 l 1,11,12
 205 1160 205 1160 254 1165.5 c 128,-1,13
 303 1171 303 1171 347 1171 c 0,14,15
 419 1171 419 1171 458 1163 c 128,-1,16
 497 1155 497 1155 513.5 1135.5 c 128,-1,17
 530 1116 530 1116 530 1080 c 0,18,19
 530 1055 530 1055 525 1025 c 128,-1,20
 520 995 520 995 511 971 c 1,21,-1
 582 971 l 1,22,23
 581 912 581 912 550.5 866 c 128,-1,24
 520 820 520 820 467 794 c 128,-1,25
 414 768 414 768 347 768 c 256,26,27
 280 768 280 768 227 794 c 128,-1,28
 174 820 174 820 143.5 866 c 128,-1,29
 113 912 113 912 112 971 c 1,30,-1
 265 971 l 1,31,32
 270 926 270 926 290 904.5 c 128,-1,33
 310 883 310 883 347 883 c 0,34,0
 382 883 382 883 401.5 902 c 128,-1,1
498 0 m 1,35,-1
 459 151 l 1,36,-1
 235 151 l 1,37,-1
 196 0 l 1,38,-1
 9 0 l 1,39,-1
 232 730 l 1,40,-1
 462 730 l 1,41,-1
 685 0 l 1,42,-1
 498 0 l 1,35,-1
271 294 m 1,43,-1
 423 294 l 1,44,-1
 348 585 l 1,45,-1
 346 585 l 1,46,-1
 271 294 l 1,43,-1
EndSplineSet
EndChar

StartChar: uni1EA4
Encoding: 7844 7844 11
Width: 694
GlyphClass: 2
Flags: W
AnchorPoint: "Anchor-6" 347 730 basechar 0
AnchorPoint: "Anchor-5" 685 0 basechar 0
AnchorPoint: "Anchor-4" 347 0 basechar 0
LayerCount: 2
Fore
SplineSet
346 917 m 1,0,-1
 277 770 l 1,1,-1
 93 770 l 1,2,-1
 215 980 l 1,3,-1
 463 980 l 1,4,-1
 525 1160 l 1,5,-1
 725 1160 l 1,6,-1
 603 950 l 1,7,-1
 496 950 l 1,8,-1
 601 770 l 1,9,-1
 417 770 l 1,10,-1
 348 917 l 1,11,-1
 346 917 l 1,0,-1
232 730 m 1,12,-1
 462 730 l 1,13,-1
 685 0 l 1,14,-1
 498 0 l 1,15,-1
 459 151 l 1,16,-1
 235 151 l 1,17,-1
 196 0 l 1,18,-1
 9 0 l 1,19,-1
 232 730 l 1,12,-1
271 294 m 1,20,-1
 423 294 l 1,21,-1
 348 585 l 1,22,-1
 346 585 l 1,23,-1
 271 294 l 1,20,-1
EndSplineSet
EndChar

StartChar: uni1EA6
Encoding: 7846 7846 13
Width: 694
GlyphClass: 2
Flags: W
AnchorPoint: "Anchor-6" 347 730 basechar 0
AnchorPoint: "Anchor-5" 685 0 basechar 0
AnchorPoint: "Anchor-4" 347 0 basechar 0
LayerCount: 2
Fore
SplineSet
198 950 m 1,0,-1
 91 950 l 1,1,-1
 -31 1160 l 1,2,-1
 169 1160 l 1,3,-1
 231 980 l 1,4,-1
 479 980 l 1,5,-1
 601 770 l 1,6,-1
 417 770 l 1,7,-1
 348 917 l 1,8,-1
 346 917 l 1,9,-1
 277 770 l 1,10,-1
 93 770 l 1,11,-1
 198 950 l 1,0,-1
498 0 m 1,12,-1
 459 151 l 1,13,-1
 235 151 l 1,14,-1
 196 0 l 1,15,-1
 9 0 l 1,16,-1
 232 730 l 1,17,-1
 462 730 l 1,18,-1
 685 0 l 1,19,-1
 498 0 l 1,12,-1
271 294 m 1,20,-1
 423 294 l 1,21,-1
 348 585 l 1,22,-1
 346 585 l 1,23,-1
 271 294 l 1,20,-1
EndSplineSet
EndChar

StartChar: uni1EA8
Encoding: 7848 7848 14
Width: 694
GlyphClass: 2
Flags: W
AnchorPoint: "Anchor-6" 440 1160 basechar 0
AnchorPoint: "Anchor-5" 685 0 basechar 0
AnchorPoint: "Anchor-4" 347 0 basechar 0
LayerCount: 2
Fore
SplineSet
277 770 m 1,0,-1
 93 770 l 1,1,-1
 215 980 l 1,2,-1
 464 980 l 1,3,4
 467 998 467 998 467 1012 c 0,5,6
 467 1031 467 1031 456 1037.5 c 128,-1,7
 445 1044 445 1044 415 1044 c 0,8,9
 345 1044 345 1044 270 1021 c 1,10,-1
 257 1140 l 1,11,12
 298 1149 298 1149 347 1154.5 c 128,-1,13
 396 1160 396 1160 440 1160 c 0,14,15
 512 1160 512 1160 551 1152 c 128,-1,16
 590 1144 590 1144 606.5 1124.5 c 128,-1,17
 623 1105 623 1105 623 1069 c 0,18,19
 623 1042 623 1042 616.5 1008.5 c 128,-1,20
 610 975 610 975 600 950 c 1,21,-1
 496 950 l 1,22,-1
 601 770 l 1,23,-1
 417 770 l 1,24,-1
 348 917 l 1,25,-1
 346 917 l 1,26,-1
 277 770 l 1,0,-1
498 0 m 1,27,-1
 459 151 l 1,28,-1
 235 151 l 1,29,-1
 196 0 l 1,30,-1
 9 0 l 1,31,-1
 232 730 l 1,32,-1
 462 730 l 1,33,-1
 685 0 l 1,34,-1
 498 0 l 1,27,-1
271 294 m 1,35,-1
 423 294 l 1,36,-1
 348 585 l 1,37,-1
 346 585 l 1,38,-1
 271 294 l 1,35,-1
EndSplineSet
EndChar

StartChar: Aogonek
Encoding: 260 260 23
Width: 694
GlyphClass: 2
Flags: W
AnchorPoint: "Anchor-6" 347 730 basechar 0
AnchorPoint: "Anchor-5" 685 0 basechar 0
AnchorPoint: "Anchor-4" 347 0 basechar 0
LayerCount: 2
Fore
SplineSet
776 -199 m 1,0,1
 723 -219 723 -219 654 -219 c 0,2,3
 560 -219 560 -219 508.5 -186 c 128,-1,4
 457 -153 457 -153 457 -92 c 0,5,6
 457 -43 457 -43 497 4 c 1,7,-1
 459 151 l 1,8,-1
 235 151 l 1,9,-1
 196 0 l 1,10,-1
 9 0 l 1,11,-1
 232 730 l 1,12,-1
 462 730 l 1,13,-1
 685 0 l 1,14,15
 609 -34 609 -34 609 -69 c 0,16,17
 609 -84 609 -84 623.5 -92 c 128,-1,18
 638 -100 638 -100 665 -100 c 0,19,20
 715 -100 715 -100 760 -80 c 1,21,-1
 776 -199 l 1,0,1
271 294 m 1,22,-1
 423 294 l 1,23,-1
 348 585 l 1,24,-1
 346 585 l 1,25,-1
 271 294 l 1,22,-1
EndSplineSet
EndChar

StartChar: Aring
Encoding: 197 197 24
Width: 694
GlyphClass: 2
Flags: W
AnchorPoint: "Anchor-6" 347 913 basechar 0
AnchorPoint: "Anchor-5" 685 0 basechar 0
AnchorPoint: "Anchor-4" 347 0 basechar 0
LayerCount: 2
Fore
SplineSet
459 151 m 1,0,-1
 235 151 l 1,1,-1
 196 0 l 1,2,-1
 9 0 l 1,3,-1
 230 722 l 1,4,5
 208 744 208 744 196 773 c 128,-1,6
 184 802 184 802 184 835 c 0,7,8
 184 879 184 879 206 916.5 c 128,-1,9
 228 954 228 954 265.5 976 c 128,-1,10
 303 998 303 998 348 998 c 0,11,12
 392 998 392 998 429.5 976 c 128,-1,13
 467 954 467 954 489 916.5 c 128,-1,14
 511 879 511 879 511 835 c 0,15,16
 511 803 511 803 499 773.5 c 128,-1,17
 487 744 487 744 465 721 c 1,18,-1
 685 0 l 1,19,-1
 498 0 l 1,20,-1
 459 151 l 1,0,-1
305.5 878 m 128,-1,22
 288 861 288 861 288 835 c 0,23,24
 288 810 288 810 305.5 792.5 c 128,-1,25
 323 775 323 775 348 775 c 256,26,27
 373 775 373 775 390.5 792.5 c 128,-1,28
 408 810 408 810 408 835 c 256,29,30
 408 860 408 860 390.5 877.5 c 128,-1,31
 373 895 373 895 348 895 c 256,32,21
 323 895 323 895 305.5 878 c 128,-1,22
271 294 m 1,33,-1
 423 294 l 1,34,-1
 348 585 l 1,35,-1
 346 585 l 1,36,-1
 271 294 l 1,33,-1
EndSplineSet
EndChar

StartChar: Aringacute
Encoding: 506 506 25
Width: 694
GlyphClass: 2
Flags: W
AnchorPoint: "Anchor-6" 347 913 basechar 0
AnchorPoint: "Anchor-5" 685 0 basechar 0
AnchorPoint: "Anchor-4" 347 0 basechar 0
LayerCount: 2
Fore
SplineSet
459 151 m 1,0,-1
 235 151 l 1,1,-1
 196 0 l 1,2,-1
 9 0 l 1,3,-1
 230 722 l 1,4,5
 208 744 208 744 196 773 c 128,-1,6
 184 802 184 802 184 835 c 0,7,8
 184 871 184 871 198.5 902.5 c 128,-1,9
 213 934 213 934 239 957 c 1,10,-1
 310 1163 l 1,11,-1
 510 1163 l 1,12,-1
 408 987 l 1,13,14
 454 969 454 969 482.5 927.5 c 128,-1,15
 511 886 511 886 511 835 c 0,16,17
 511 803 511 803 499 773.5 c 128,-1,18
 487 744 487 744 465 721 c 1,19,-1
 685 0 l 1,20,-1
 498 0 l 1,21,-1
 459 151 l 1,0,-1
390.5 792.5 m 128,-1,23
 408 810 408 810 408 835 c 256,24,25
 408 860 408 860 390.5 877.5 c 128,-1,26
 373 895 373 895 348 895 c 256,27,28
 323 895 323 895 305.5 878 c 128,-1,29
 288 861 288 861 288 835 c 0,30,31
 288 810 288 810 305.5 792.5 c 128,-1,32
 323 775 323 775 348 775 c 256,33,22
 373 775 373 775 390.5 792.5 c 128,-1,23
271 294 m 1,34,-1
 423 294 l 1,35,-1
 348 585 l 1,36,-1
 346 585 l 1,37,-1
 271 294 l 1,34,-1
EndSplineSet
EndChar

StartChar: AE
Encoding: 198 198 27
Width: 894
GlyphClass: 2
Flags: W
AnchorPoint: "Anchor-6" 473 730 basechar 0
AnchorPoint: "Anchor-4" 473 0 basechar 0
LayerCount: 2
Fore
SplineSet
836 591 m 1,0,-1
 578 591 l 1,1,-1
 578 445 l 1,2,-1
 816 445 l 1,3,-1
 816 310 l 1,4,-1
 578 310 l 1,5,-1
 578 139 l 1,6,-1
 836 139 l 1,7,-1
 836 0 l 1,8,-1
 408 0 l 1,9,-1
 408 151 l 1,10,-1
 243 151 l 1,11,-1
 196 0 l 1,12,-1
 9 0 l 1,13,-1
 269 730 l 1,14,-1
 836 730 l 1,15,-1
 836 591 l 1,0,-1
287 294 m 1,16,-1
 408 294 l 1,17,-1
 408 593 l 1,18,-1
 379 593 l 1,19,-1
 287 294 l 1,16,-1
EndSplineSet
EndChar

StartChar: B
Encoding: 66 66 29
Width: 667
Flags: W
LayerCount: 2
Fore
SplineSet
590 329 m 128,-1,1
 633 284 633 284 633 208 c 0,2,3
 633 105 633 105 553 52.5 c 128,-1,4
 473 0 473 0 317 0 c 2,5,-1
 70 0 l 1,6,-1
 70 730 l 1,7,-1
 308 730 l 2,8,9
 458 730 458 730 534 685 c 128,-1,10
 610 640 610 640 610 551 c 0,11,12
 610 485 610 485 571.5 441.5 c 128,-1,13
 533 398 533 398 464 387 c 1,14,-1
 464 385 l 1,15,0
 547 374 547 374 590 329 c 128,-1,1
240 594 m 1,16,-1
 240 443 l 1,17,-1
 317 443 l 2,18,19
 383 443 383 443 411.5 460.5 c 128,-1,20
 440 478 440 478 440 519 c 0,21,22
 440 559 440 559 411.5 576.5 c 128,-1,23
 383 594 383 594 317 594 c 2,24,-1
 240 594 l 1,16,-1
425 157 m 128,-1,26
 459 178 459 178 459 224 c 256,27,28
 459 270 459 270 425 291 c 128,-1,29
 391 312 391 312 317 312 c 2,30,-1
 240 312 l 1,31,-1
 240 136 l 1,32,-1
 317 136 l 2,33,25
 391 136 391 136 425 157 c 128,-1,26
EndSplineSet
EndChar

StartChar: C
Encoding: 67 67 30
Width: 694
GlyphClass: 2
Flags: W
AnchorPoint: "Anchor-6" 380 730 basechar 0
AnchorPoint: "Anchor-4" 380 0 basechar 0
LayerCount: 2
Fore
SplineSet
131 88 m 128,-1,1
 35 186 35 186 35 365 c 256,2,3
 35 544 35 544 131 642 c 128,-1,4
 227 740 227 740 402 740 c 0,5,6
 544 740 544 740 652 674 c 1,7,-1
 584 541 l 1,8,9
 495 593 495 593 411 593 c 0,10,11
 314 593 314 593 261.5 533.5 c 128,-1,12
 209 474 209 474 209 365 c 256,13,14
 209 256 209 256 261.5 196.5 c 128,-1,15
 314 137 314 137 411 137 c 0,16,17
 495 137 495 137 584 189 c 1,18,-1
 652 56 l 1,19,20
 544 -10 544 -10 402 -10 c 0,21,0
 227 -10 227 -10 131 88 c 128,-1,1
EndSplineSet
EndChar

StartChar: Ccedilla
Encoding: 199 199 33
Width: 694
GlyphClass: 2
Flags: W
AnchorPoint: "Anchor-6" 380 730 basechar 0
AnchorPoint: "Anchor-4" 380 0 basechar 0
LayerCount: 2
Fore
SplineSet
652 56 m 1,0,1
 588 16 588 16 503 -1 c 1,2,3
 539 -44 539 -44 539 -92 c 0,4,5
 539 -153 539 -153 487.5 -186 c 128,-1,6
 436 -219 436 -219 342 -219 c 0,7,8
 272 -219 272 -219 221 -199 c 1,9,-1
 236 -80 l 1,10,11
 282 -100 282 -100 331 -100 c 0,12,13
 359 -100 359 -100 373.5 -92 c 128,-1,14
 388 -84 388 -84 388 -69 c 0,15,16
 388 -37 388 -37 320 -4 c 1,17,18
 182 18 182 18 108.5 113 c 128,-1,19
 35 208 35 208 35 365 c 0,20,21
 35 544 35 544 131 642 c 128,-1,22
 227 740 227 740 402 740 c 0,23,24
 544 740 544 740 652 674 c 1,25,-1
 584 541 l 1,26,27
 495 593 495 593 411 593 c 0,28,29
 314 593 314 593 261.5 533.5 c 128,-1,30
 209 474 209 474 209 365 c 256,31,32
 209 256 209 256 261.5 196.5 c 128,-1,33
 314 137 314 137 411 137 c 0,34,35
 495 137 495 137 584 189 c 1,36,-1
 652 56 l 1,0,1
EndSplineSet
EndChar

StartChar: D
Encoding: 68 68 36
Width: 693
GlyphClass: 2
Flags: W
AnchorPoint: "Anchor-6" 347 730 basechar 0
AnchorPoint: "Anchor-4" 347 0 basechar 0
LayerCount: 2
Fore
SplineSet
288 730 m 2,0,1
 481 730 481 730 569.5 642.5 c 128,-1,2
 658 555 658 555 658 365 c 256,3,4
 658 175 658 175 569.5 87.5 c 128,-1,5
 481 0 481 0 288 0 c 2,6,-1
 70 0 l 1,7,-1
 70 730 l 1,8,-1
 288 730 l 2,0,1
409 161.5 m 128,-1,10
 449 183 449 183 466.5 231.5 c 128,-1,11
 484 280 484 280 484 365 c 256,12,13
 484 450 484 450 466.5 498.5 c 128,-1,14
 449 547 449 547 409 568.5 c 128,-1,15
 369 590 369 590 299 590 c 2,16,-1
 240 590 l 1,17,-1
 240 140 l 1,18,-1
 299 140 l 2,19,9
 369 140 369 140 409 161.5 c 128,-1,10
EndSplineSet
EndChar

StartChar: Eth
Encoding: 208 208 38
Width: 752
GlyphClass: 2
Flags: W
AnchorPoint: "Anchor-6" 406 730 basechar 0
AnchorPoint: "Anchor-4" 406 0 basechar 0
LayerCount: 2
Fore
SplineSet
629 642.5 m 128,-1,1
 718 555 718 555 718 365 c 256,2,3
 718 175 718 175 629 87.5 c 128,-1,4
 540 0 540 0 348 0 c 2,5,-1
 129 0 l 1,6,-1
 129 303 l 1,7,-1
 23 303 l 1,8,-1
 23 427 l 1,9,-1
 129 427 l 1,10,-1
 129 730 l 1,11,-1
 348 730 l 2,12,0
 540 730 540 730 629 642.5 c 128,-1,1
468.5 161.5 m 128,-1,14
 508 183 508 183 526 231.5 c 128,-1,15
 544 280 544 280 544 365 c 256,16,17
 544 450 544 450 526 498.5 c 128,-1,18
 508 547 508 547 468.5 568.5 c 128,-1,19
 429 590 429 590 359 590 c 2,20,-1
 299 590 l 1,21,-1
 299 427 l 1,22,-1
 447 427 l 1,23,-1
 447 303 l 1,24,-1
 299 303 l 1,25,-1
 299 140 l 1,26,-1
 359 140 l 2,27,13
 429 140 429 140 468.5 161.5 c 128,-1,14
EndSplineSet
EndChar

StartChar: E
Encoding: 69 69 42
Width: 606
GlyphClass: 2
Flags: W
AnchorPoint: "Anchor-6" 310 730 basechar 0
AnchorPoint: "Anchor-5" 548 0 basechar 0
AnchorPoint: "Anchor-4" 310 0 basechar 0
LayerCount: 2
Fore
SplineSet
70 730 m 1,0,-1
 548 730 l 1,1,-1
 548 591 l 1,2,-1
 240 591 l 1,3,-1
 240 445 l 1,4,-1
 528 445 l 1,5,-1
 528 310 l 1,6,-1
 240 310 l 1,7,-1
 240 139 l 1,8,-1
 548 139 l 1,9,-1
 548 0 l 1,10,-1
 70 0 l 1,11,-1
 70 730 l 1,0,-1
EndSplineSet
EndChar

StartChar: uni1EBE
Encoding: 7870 7870 47
Width: 606
GlyphClass: 2
Flags: W
AnchorPoint: "Anchor-6" 310 730 basechar 0
AnchorPoint: "Anchor-5" 548 0 basechar 0
AnchorPoint: "Anchor-4" 310 0 basechar 0
LayerCount: 2
Fore
SplineSet
688 1160 m 1,0,-1
 566 950 l 1,1,-1
 459 950 l 1,2,-1
 564 770 l 1,3,-1
 380 770 l 1,4,-1
 311 917 l 1,5,-1
 309 917 l 1,6,-1
 240 770 l 1,7,-1
 56 770 l 1,8,-1
 178 980 l 1,9,-1
 426 980 l 1,10,-1
 488 1160 l 1,11,-1
 688 1160 l 1,0,-1
70 0 m 1,12,-1
 70 730 l 1,13,-1
 548 730 l 1,14,-1
 548 591 l 1,15,-1
 240 591 l 1,16,-1
 240 445 l 1,17,-1
 528 445 l 1,18,-1
 528 310 l 1,19,-1
 240 310 l 1,20,-1
 240 139 l 1,21,-1
 548 139 l 1,22,-1
 548 0 l 1,23,-1
 70 0 l 1,12,-1
EndSplineSet
EndChar

StartChar: uni1EC0
Encoding: 7872 7872 49
Width: 606
GlyphClass: 2
Flags: W
AnchorPoint: "Anchor-6" 310 730 basechar 0
AnchorPoint: "Anchor-5" 548 0 basechar 0
AnchorPoint: "Anchor-4" 310 0 basechar 0
LayerCount: 2
Fore
SplineSet
240 770 m 1,0,-1
 56 770 l 1,1,-1
 161 950 l 1,2,-1
 54 950 l 1,3,-1
 -68 1160 l 1,4,-1
 132 1160 l 1,5,-1
 194 980 l 1,6,-1
 442 980 l 1,7,-1
 564 770 l 1,8,-1
 380 770 l 1,9,-1
 311 917 l 1,10,-1
 309 917 l 1,11,-1
 240 770 l 1,0,-1
70 0 m 1,12,-1
 70 730 l 1,13,-1
 548 730 l 1,14,-1
 548 591 l 1,15,-1
 240 591 l 1,16,-1
 240 445 l 1,17,-1
 528 445 l 1,18,-1
 528 310 l 1,19,-1
 240 310 l 1,20,-1
 240 139 l 1,21,-1
 548 139 l 1,22,-1
 548 0 l 1,23,-1
 70 0 l 1,12,-1
EndSplineSet
EndChar

StartChar: uni1EC2
Encoding: 7874 7874 50
Width: 606
GlyphClass: 2
Flags: W
AnchorPoint: "Anchor-6" 403 1160 basechar 0
AnchorPoint: "Anchor-5" 548 0 basechar 0
AnchorPoint: "Anchor-4" 310 0 basechar 0
LayerCount: 2
Fore
SplineSet
459 950 m 1,0,-1
 564 770 l 1,1,-1
 380 770 l 1,2,-1
 311 917 l 1,3,-1
 309 917 l 1,4,-1
 240 770 l 1,5,-1
 56 770 l 1,6,-1
 178 980 l 1,7,-1
 427 980 l 1,8,9
 430 998 430 998 430 1012 c 0,10,11
 430 1031 430 1031 419 1037.5 c 128,-1,12
 408 1044 408 1044 378 1044 c 0,13,14
 308 1044 308 1044 233 1021 c 1,15,-1
 220 1140 l 1,16,17
 261 1149 261 1149 310 1154.5 c 128,-1,18
 359 1160 359 1160 403 1160 c 0,19,20
 475 1160 475 1160 514 1152 c 128,-1,21
 553 1144 553 1144 569.5 1124.5 c 128,-1,22
 586 1105 586 1105 586 1069 c 0,23,24
 586 1042 586 1042 579.5 1008.5 c 128,-1,25
 573 975 573 975 563 950 c 1,26,-1
 459 950 l 1,0,-1
70 0 m 1,27,-1
 70 730 l 1,28,-1
 548 730 l 1,29,-1
 548 591 l 1,30,-1
 240 591 l 1,31,-1
 240 445 l 1,32,-1
 528 445 l 1,33,-1
 528 310 l 1,34,-1
 240 310 l 1,35,-1
 240 139 l 1,36,-1
 548 139 l 1,37,-1
 548 0 l 1,38,-1
 70 0 l 1,27,-1
EndSplineSet
EndChar

StartChar: Eogonek
Encoding: 280 280 60
Width: 606
GlyphClass: 2
Flags: W
AnchorPoint: "Anchor-6" 310 730 basechar 0
AnchorPoint: "Anchor-5" 548 0 basechar 0
AnchorPoint: "Anchor-4" 310 0 basechar 0
LayerCount: 2
Fore
SplineSet
639 -199 m 1,0,1
 586 -219 586 -219 517 -219 c 0,2,3
 423 -219 423 -219 371.5 -186 c 128,-1,4
 320 -153 320 -153 320 -92 c 0,5,6
 320 -44 320 -44 357 0 c 1,7,-1
 70 0 l 1,8,-1
 70 730 l 1,9,-1
 548 730 l 1,10,-1
 548 591 l 1,11,-1
 240 591 l 1,12,-1
 240 445 l 1,13,-1
 528 445 l 1,14,-1
 528 310 l 1,15,-1
 240 310 l 1,16,-1
 240 139 l 1,17,-1
 548 139 l 1,18,-1
 548 0 l 1,19,20
 472 -34 472 -34 472 -69 c 0,21,22
 472 -84 472 -84 486.5 -92 c 128,-1,23
 501 -100 501 -100 528 -100 c 0,24,25
 578 -100 578 -100 623 -80 c 1,26,-1
 639 -199 l 1,0,1
EndSplineSet
EndChar

StartChar: F
Encoding: 70 70 62
Width: 598
Flags: W
LayerCount: 2
Fore
SplineSet
70 730 m 1,0,-1
 548 730 l 1,1,-1
 548 587 l 1,2,-1
 240 587 l 1,3,-1
 240 425 l 1,4,-1
 528 425 l 1,5,-1
 528 286 l 1,6,-1
 240 286 l 1,7,-1
 240 0 l 1,8,-1
 70 0 l 1,9,-1
 70 730 l 1,0,-1
EndSplineSet
EndChar

StartChar: G
Encoding: 71 71 63
Width: 769
GlyphClass: 2
Flags: W
AnchorPoint: "Anchor-6" 402 730 basechar 0
AnchorPoint: "Anchor-4" 402 0 basechar 0
LayerCount: 2
Fore
SplineSet
710 444 m 1,0,-1
 710 49 l 1,1,2
 654 21 654 21 582 5.5 c 128,-1,3
 510 -10 510 -10 432 -10 c 0,4,5
 308 -10 308 -10 218.5 34.5 c 128,-1,6
 129 79 129 79 82 163.5 c 128,-1,7
 35 248 35 248 35 365 c 256,8,9
 35 482 35 482 82 566.5 c 128,-1,10
 129 651 129 651 218.5 695.5 c 128,-1,11
 308 740 308 740 432 740 c 0,12,13
 586 740 586 740 684 675 c 1,14,-1
 620 546 l 1,15,16
 533 597 533 597 432 597 c 0,17,18
 322 597 322 597 265.5 538 c 128,-1,19
 209 479 209 479 209 365 c 256,20,21
 209 251 209 251 265.5 192 c 128,-1,22
 322 133 322 133 432 133 c 0,23,24
 487 133 487 133 540 150 c 1,25,-1
 540 302 l 1,26,-1
 366 302 l 1,27,-1
 366 444 l 1,28,-1
 710 444 l 1,0,-1
EndSplineSet
EndChar

StartChar: H
Encoding: 72 72 69
Width: 725
GlyphClass: 2
Flags: W
AnchorPoint: "Anchor-6" 363 730 basechar 0
AnchorPoint: "Anchor-4" 363 0 basechar 0
LayerCount: 2
Fore
SplineSet
485 730 m 1,0,-1
 655 730 l 1,1,-1
 655 0 l 1,2,-1
 485 0 l 1,3,-1
 485 308 l 1,4,-1
 240 308 l 1,5,-1
 240 0 l 1,6,-1
 70 0 l 1,7,-1
 70 730 l 1,8,-1
 240 730 l 1,9,-1
 240 455 l 1,10,-1
 485 455 l 1,11,-1
 485 730 l 1,0,-1
EndSplineSet
EndChar

StartChar: Hbar
Encoding: 294 294 70
Width: 813
GlyphClass: 2
Flags: W
AnchorPoint: "Anchor-6" 407 730 basechar 0
AnchorPoint: "Anchor-4" 407 0 basechar 0
LayerCount: 2
Fore
SplineSet
790 658 m 1,0,-1
 790 534 l 1,1,-1
 699 534 l 1,2,-1
 699 0 l 1,3,-1
 529 0 l 1,4,-1
 529 308 l 1,5,-1
 284 308 l 1,6,-1
 284 0 l 1,7,-1
 114 0 l 1,8,-1
 114 534 l 1,9,-1
 23 534 l 1,10,-1
 23 658 l 1,11,-1
 114 658 l 1,12,-1
 114 730 l 1,13,-1
 284 730 l 1,14,-1
 284 658 l 1,15,-1
 529 658 l 1,16,-1
 529 730 l 1,17,-1
 699 730 l 1,18,-1
 699 658 l 1,19,-1
 790 658 l 1,0,-1
529 455 m 1,20,-1
 529 534 l 1,21,-1
 284 534 l 1,22,-1
 284 455 l 1,23,-1
 529 455 l 1,20,-1
EndSplineSet
EndChar

StartChar: I
Encoding: 73 73 72
Width: 333
GlyphClass: 2
Flags: W
AnchorPoint: "Anchor-6" 166 730 basechar 0
AnchorPoint: "Anchor-5" 255 0 basechar 0
AnchorPoint: "Anchor-4" 166 0 basechar 0
LayerCount: 2
Fore
SplineSet
77 730 m 1,0,-1
 255 730 l 1,1,-1
 255 0 l 1,2,-1
 77 0 l 1,3,-1
 77 730 l 1,0,-1
EndSplineSet
EndChar

StartChar: Iogonek
Encoding: 302 302 84
Width: 333
GlyphClass: 2
Flags: W
AnchorPoint: "Anchor-6" 166 730 basechar 0
AnchorPoint: "Anchor-5" 255 0 basechar 0
AnchorPoint: "Anchor-4" 166 0 basechar 0
LayerCount: 2
Fore
SplineSet
346 -199 m 1,0,1
 293 -219 293 -219 224 -219 c 0,2,3
 130 -219 130 -219 78.5 -186 c 128,-1,4
 27 -153 27 -153 27 -92 c 0,5,6
 27 -64 27 -64 39 -38 c 128,-1,7
 51 -12 51 -12 77 15 c 1,8,-1
 77 730 l 1,9,-1
 255 730 l 1,10,-1
 255 0 l 1,11,12
 179 -34 179 -34 179 -69 c 0,13,14
 179 -84 179 -84 193.5 -92 c 128,-1,15
 208 -100 208 -100 235 -100 c 0,16,17
 285 -100 285 -100 330 -80 c 1,18,-1
 346 -199 l 1,0,1
EndSplineSet
EndChar

StartChar: J
Encoding: 74 74 86
Width: 579
GlyphClass: 2
Flags: W
AnchorPoint: "Anchor-6" 290 730 basechar 0
AnchorPoint: "Anchor-4" 290 0 basechar 0
LayerCount: 2
Fore
SplineSet
117 3 m 128,-1,1
 56 16 56 16 5 41 c 1,2,-1
 47 185 l 1,3,4
 151 140 151 140 221 140 c 0,5,6
 283 140 283 140 312 174 c 128,-1,7
 341 208 341 208 341 280 c 2,8,-1
 341 730 l 1,9,-1
 516 730 l 1,10,-1
 516 280 l 2,11,12
 516 129 516 129 449.5 59.5 c 128,-1,13
 383 -10 383 -10 238 -10 c 0,14,0
 178 -10 178 -10 117 3 c 128,-1,1
EndSplineSet
EndChar

StartChar: K
Encoding: 75 75 88
Width: 690
GlyphClass: 2
Flags: W
AnchorPoint: "Anchor-6" 330 730 basechar 0
AnchorPoint: "Anchor-4" 330 0 basechar 0
LayerCount: 2
Fore
SplineSet
70 730 m 1,0,-1
 240 730 l 1,1,-1
 240 420 l 1,2,-1
 242 420 l 1,3,-1
 466 730 l 1,4,-1
 665 730 l 1,5,-1
 401 382 l 1,6,-1
 675 0 l 1,7,-1
 476 0 l 1,8,-1
 242 343 l 1,9,-1
 240 343 l 1,10,-1
 240 0 l 1,11,-1
 70 0 l 1,12,-1
 70 730 l 1,0,-1
EndSplineSet
EndChar

StartChar: L
Encoding: 76 76 90
Width: 589
GlyphClass: 2
Flags: W
AnchorPoint: "Anchor-7" 569 730 basechar 0
AnchorPoint: "Anchor-6" 295 730 basechar 0
AnchorPoint: "Anchor-4" 295 0 basechar 0
LayerCount: 2
Fore
SplineSet
70 730 m 1,0,-1
 244 730 l 1,1,-1
 244 147 l 1,2,-1
 560 147 l 1,3,-1
 560 0 l 1,4,-1
 70 0 l 1,5,-1
 70 730 l 1,0,-1
EndSplineSet
EndChar

StartChar: Lslash
Encoding: 321 321 97
Width: 685
GlyphClass: 2
Flags: W
AnchorPoint: "Anchor-7" 665 730 basechar 0
AnchorPoint: "Anchor-6" 391 730 basechar 0
AnchorPoint: "Anchor-4" 391 0 basechar 0
LayerCount: 2
Fore
SplineSet
340 147 m 1,0,-1
 656 147 l 1,1,-1
 656 0 l 1,2,-1
 166 0 l 1,3,-1
 166 262 l 1,4,-1
 56 218 l 1,5,-1
 8 332 l 1,6,-1
 166 396 l 1,7,-1
 166 730 l 1,8,-1
 340 730 l 1,9,-1
 340 466 l 1,10,-1
 454 512 l 1,11,-1
 502 398 l 1,12,-1
 340 333 l 1,13,-1
 340 147 l 1,0,-1
EndSplineSet
EndChar

StartChar: M
Encoding: 77 77 98
Width: 883
Flags: W
LayerCount: 2
Fore
SplineSet
70 730 m 1,0,-1
 282 730 l 1,1,-1
 441 321 l 1,2,-1
 443 321 l 1,3,-1
 601 730 l 1,4,-1
 813 730 l 1,5,-1
 813 0 l 1,6,-1
 643 0 l 1,7,-1
 643 465 l 1,8,-1
 641 465 l 1,9,-1
 519 155 l 1,10,-1
 364 155 l 1,11,-1
 242 465 l 1,12,-1
 240 465 l 1,13,-1
 240 0 l 1,14,-1
 70 0 l 1,15,-1
 70 730 l 1,0,-1
EndSplineSet
EndChar

StartChar: N
Encoding: 78 78 99
Width: 735
GlyphClass: 2
Flags: W
AnchorPoint: "Anchor-6" 368 730 basechar 0
AnchorPoint: "Anchor-4" 368 0 basechar 0
LayerCount: 2
Fore
SplineSet
70 730 m 1,0,-1
 244 730 l 1,1,-1
 493 280 l 1,2,-1
 495 280 l 1,3,-1
 495 730 l 1,4,-1
 665 730 l 1,5,-1
 665 0 l 1,6,-1
 491 0 l 1,7,-1
 242 450 l 1,8,-1
 240 450 l 1,9,-1
 240 0 l 1,10,-1
 70 0 l 1,11,-1
 70 730 l 1,0,-1
EndSplineSet
EndChar

StartChar: Eng
Encoding: 330 330 104
Width: 735
GlyphClass: 2
Flags: W
AnchorPoint: "Anchor-6" 368 730 basechar 0
AnchorPoint: "Anchor-4" 368 0 basechar 0
LayerCount: 2
Fore
SplineSet
665 730 m 1,0,-1
 665 -2 l 2,1,2
 665 -84 665 -84 645.5 -133 c 128,-1,3
 626 -182 626 -182 582.5 -204 c 128,-1,4
 539 -226 539 -226 465 -226 c 0,5,6
 396 -226 396 -226 330 -211 c 1,7,-1
 349 -77 l 1,8,9
 388 -89 388 -89 429 -89 c 0,10,11
 466 -89 466 -89 480.5 -71.5 c 128,-1,12
 495 -54 495 -54 496 -8 c 1,13,-1
 242 433 l 1,14,-1
 240 433 l 1,15,-1
 240 0 l 1,16,-1
 70 0 l 1,17,-1
 70 730 l 1,18,-1
 244 730 l 1,19,-1
 493 297 l 1,20,-1
 495 297 l 1,21,-1
 495 730 l 1,22,-1
 665 730 l 1,0,-1
EndSplineSet
EndChar

StartChar: O
Encoding: 79 79 107
Width: 811
GlyphClass: 2
Flags: W
AnchorPoint: "Anchor-7" 601 690 basechar 0
AnchorPoint: "Anchor-6" 406 730 basechar 0
AnchorPoint: "Anchor-5" 474 0 basechar 0
AnchorPoint: "Anchor-4" 406 0 basechar 0
LayerCount: 2
Fore
SplineSet
207.5 35 m 128,-1,1
 124 80 124 80 79.5 164.5 c 128,-1,2
 35 249 35 249 35 365 c 256,3,4
 35 481 35 481 79.5 565.5 c 128,-1,5
 124 650 124 650 207.5 695 c 128,-1,6
 291 740 291 740 406 740 c 256,7,8
 521 740 521 740 604.5 695 c 128,-1,9
 688 650 688 650 732.5 565.5 c 128,-1,10
 777 481 777 481 777 365 c 256,11,12
 777 249 777 249 732.5 164.5 c 128,-1,13
 688 80 688 80 604.5 35 c 128,-1,14
 521 -10 521 -10 406 -10 c 256,15,0
 291 -10 291 -10 207.5 35 c 128,-1,1
551.5 195.5 m 128,-1,17
 602 254 602 254 602 365 c 256,18,19
 602 476 602 476 551.5 534.5 c 128,-1,20
 501 593 501 593 406 593 c 0,21,22
 310 593 310 593 259.5 534.5 c 128,-1,23
 209 476 209 476 209 365 c 256,24,25
 209 254 209 254 259.5 195.5 c 128,-1,26
 310 137 310 137 406 137 c 0,27,16
 501 137 501 137 551.5 195.5 c 128,-1,17
EndSplineSet
Substitution2: "Single Substitution lookup 21 subtable" ordmasculine
Substitution2: "'aalt' Access All Alternates in Latin lookup 0 subtable" ordmasculine
EndChar

StartChar: uni1ED0
Encoding: 7888 7888 111
Width: 811
GlyphClass: 2
Flags: W
AnchorPoint: "Anchor-7" 601 690 basechar 0
AnchorPoint: "Anchor-6" 406 730 basechar 0
AnchorPoint: "Anchor-5" 474 0 basechar 0
AnchorPoint: "Anchor-4" 406 0 basechar 0
LayerCount: 2
Fore
SplineSet
405 917 m 1,0,-1
 336 770 l 1,1,-1
 152 770 l 1,2,-1
 274 980 l 1,3,-1
 522 980 l 1,4,-1
 584 1160 l 1,5,-1
 784 1160 l 1,6,-1
 662 950 l 1,7,-1
 555 950 l 1,8,-1
 660 770 l 1,9,-1
 476 770 l 1,10,-1
 407 917 l 1,11,-1
 405 917 l 1,0,-1
604.5 695 m 128,-1,13
 688 650 688 650 732.5 565.5 c 128,-1,14
 777 481 777 481 777 365 c 256,15,16
 777 249 777 249 732.5 164.5 c 128,-1,17
 688 80 688 80 604.5 35 c 128,-1,18
 521 -10 521 -10 406 -10 c 256,19,20
 291 -10 291 -10 207.5 35 c 128,-1,21
 124 80 124 80 79.5 164.5 c 128,-1,22
 35 249 35 249 35 365 c 256,23,24
 35 481 35 481 79.5 565.5 c 128,-1,25
 124 650 124 650 207.5 695 c 128,-1,26
 291 740 291 740 406 740 c 256,27,12
 521 740 521 740 604.5 695 c 128,-1,13
551.5 195.5 m 128,-1,29
 602 254 602 254 602 365 c 256,30,31
 602 476 602 476 551.5 534.5 c 128,-1,32
 501 593 501 593 406 593 c 0,33,34
 310 593 310 593 259.5 534.5 c 128,-1,35
 209 476 209 476 209 365 c 256,36,37
 209 254 209 254 259.5 195.5 c 128,-1,38
 310 137 310 137 406 137 c 0,39,28
 501 137 501 137 551.5 195.5 c 128,-1,29
EndSplineSet
EndChar

StartChar: uni1ED2
Encoding: 7890 7890 113
Width: 811
GlyphClass: 2
Flags: W
AnchorPoint: "Anchor-7" 601 690 basechar 0
AnchorPoint: "Anchor-6" 406 730 basechar 0
AnchorPoint: "Anchor-5" 474 0 basechar 0
AnchorPoint: "Anchor-4" 406 0 basechar 0
LayerCount: 2
Fore
SplineSet
257 950 m 1,0,-1
 149 950 l 1,1,-1
 27 1160 l 1,2,-1
 227 1160 l 1,3,-1
 289 980 l 1,4,-1
 538 980 l 1,5,-1
 660 770 l 1,6,-1
 476 770 l 1,7,-1
 407 917 l 1,8,-1
 405 917 l 1,9,-1
 336 770 l 1,10,-1
 152 770 l 1,11,-1
 257 950 l 1,0,-1
604.5 695 m 128,-1,13
 688 650 688 650 732.5 565.5 c 128,-1,14
 777 481 777 481 777 365 c 256,15,16
 777 249 777 249 732.5 164.5 c 128,-1,17
 688 80 688 80 604.5 35 c 128,-1,18
 521 -10 521 -10 406 -10 c 256,19,20
 291 -10 291 -10 207.5 35 c 128,-1,21
 124 80 124 80 79.5 164.5 c 128,-1,22
 35 249 35 249 35 365 c 256,23,24
 35 481 35 481 79.5 565.5 c 128,-1,25
 124 650 124 650 207.5 695 c 128,-1,26
 291 740 291 740 406 740 c 256,27,12
 521 740 521 740 604.5 695 c 128,-1,13
551.5 195.5 m 128,-1,29
 602 254 602 254 602 365 c 256,30,31
 602 476 602 476 551.5 534.5 c 128,-1,32
 501 593 501 593 406 593 c 0,33,34
 310 593 310 593 259.5 534.5 c 128,-1,35
 209 476 209 476 209 365 c 256,36,37
 209 254 209 254 259.5 195.5 c 128,-1,38
 310 137 310 137 406 137 c 0,39,28
 501 137 501 137 551.5 195.5 c 128,-1,29
EndSplineSet
EndChar

StartChar: uni1ED4
Encoding: 7892 7892 114
Width: 811
GlyphClass: 2
Flags: W
AnchorPoint: "Anchor-7" 601 690 basechar 0
AnchorPoint: "Anchor-6" 498 1160 basechar 0
AnchorPoint: "Anchor-5" 474 0 basechar 0
AnchorPoint: "Anchor-4" 406 0 basechar 0
LayerCount: 2
Fore
SplineSet
336 770 m 1,0,-1
 152 770 l 1,1,-1
 274 980 l 1,2,-1
 522 980 l 1,3,4
 525 998 525 998 525 1012 c 0,5,6
 525 1031 525 1031 514 1037.5 c 128,-1,7
 503 1044 503 1044 473 1044 c 0,8,9
 403 1044 403 1044 328 1021 c 1,10,-1
 315 1140 l 1,11,12
 356 1149 356 1149 405 1154.5 c 128,-1,13
 454 1160 454 1160 498 1160 c 0,14,15
 570 1160 570 1160 609 1152 c 128,-1,16
 648 1144 648 1144 664.5 1124.5 c 128,-1,17
 681 1105 681 1105 681 1069 c 0,18,19
 681 1042 681 1042 674.5 1008.5 c 128,-1,20
 668 975 668 975 658 950 c 1,21,-1
 555 950 l 1,22,-1
 660 770 l 1,23,-1
 476 770 l 1,24,-1
 407 917 l 1,25,-1
 405 917 l 1,26,-1
 336 770 l 1,0,-1
604.5 695 m 128,-1,28
 688 650 688 650 732.5 565.5 c 128,-1,29
 777 481 777 481 777 365 c 256,30,31
 777 249 777 249 732.5 164.5 c 128,-1,32
 688 80 688 80 604.5 35 c 128,-1,33
 521 -10 521 -10 406 -10 c 256,34,35
 291 -10 291 -10 207.5 35 c 128,-1,36
 124 80 124 80 79.5 164.5 c 128,-1,37
 35 249 35 249 35 365 c 256,38,39
 35 481 35 481 79.5 565.5 c 128,-1,40
 124 650 124 650 207.5 695 c 128,-1,41
 291 740 291 740 406 740 c 256,42,27
 521 740 521 740 604.5 695 c 128,-1,28
551.5 195.5 m 128,-1,44
 602 254 602 254 602 365 c 256,45,46
 602 476 602 476 551.5 534.5 c 128,-1,47
 501 593 501 593 406 593 c 0,48,49
 310 593 310 593 259.5 534.5 c 128,-1,50
 209 476 209 476 209 365 c 256,51,52
 209 254 209 254 259.5 195.5 c 128,-1,53
 310 137 310 137 406 137 c 0,54,43
 501 137 501 137 551.5 195.5 c 128,-1,44
EndSplineSet
EndChar

StartChar: Ohorn
Encoding: 416 416 123
Width: 838
GlyphClass: 2
Flags: W
AnchorPoint: "Anchor-7" 854 837 basechar 0
AnchorPoint: "Anchor-6" 406 730 basechar 0
AnchorPoint: "Anchor-5" 474 0 basechar 0
AnchorPoint: "Anchor-4" 406 0 basechar 0
LayerCount: 2
Fore
SplineSet
821.5 595 m 128,-1,1
 795 553 795 553 745 540 c 1,2,3
 777 464 777 464 777 365 c 0,4,5
 777 249 777 249 732.5 164.5 c 128,-1,6
 688 80 688 80 604.5 35 c 128,-1,7
 521 -10 521 -10 406 -10 c 256,8,9
 291 -10 291 -10 207.5 35 c 128,-1,10
 124 80 124 80 79.5 164.5 c 128,-1,11
 35 249 35 249 35 365 c 256,12,13
 35 481 35 481 79.5 565.5 c 128,-1,14
 124 650 124 650 207.5 695 c 128,-1,15
 291 740 291 740 406 740 c 0,16,17
 556 740 556 740 652 664 c 1,18,19
 672 666 672 666 682.5 681.5 c 128,-1,20
 693 697 693 697 693 722 c 0,21,22
 693 744 693 744 685.5 779 c 128,-1,23
 678 814 678 814 669 837 c 1,24,-1
 827 837 l 1,25,26
 848 772 848 772 848 705 c 0,27,0
 848 637 848 637 821.5 595 c 128,-1,1
551.5 195.5 m 128,-1,29
 602 254 602 254 602 365 c 256,30,31
 602 476 602 476 551.5 534.5 c 128,-1,32
 501 593 501 593 406 593 c 0,33,34
 310 593 310 593 259.5 534.5 c 128,-1,35
 209 476 209 476 209 365 c 256,36,37
 209 254 209 254 259.5 195.5 c 128,-1,38
 310 137 310 137 406 137 c 0,39,28
 501 137 501 137 551.5 195.5 c 128,-1,29
EndSplineSet
EndChar

StartChar: uni01EA
Encoding: 490 490 132
Width: 811
GlyphClass: 2
Flags: W
AnchorPoint: "Anchor-7" 601 690 basechar 0
AnchorPoint: "Anchor-6" 406 730 basechar 0
AnchorPoint: "Anchor-5" 474 0 basechar 0
AnchorPoint: "Anchor-4" 406 0 basechar 0
LayerCount: 2
Fore
SplineSet
398 -69 m 0,1,2
 398 -84 398 -84 412.5 -92 c 128,-1,3
 427 -100 427 -100 454 -100 c 0,4,5
 504 -100 504 -100 549 -80 c 1,6,-1
 565 -199 l 1,7,8
 512 -219 512 -219 443 -219 c 0,9,10
 349 -219 349 -219 297.5 -186 c 128,-1,11
 246 -153 246 -153 246 -92 c 0,12,13
 246 -41 246 -41 287 4 c 1,14,15
 166 36 166 36 100.5 129 c 128,-1,16
 35 222 35 222 35 365 c 0,17,18
 35 481 35 481 79.5 565.5 c 128,-1,19
 124 650 124 650 207.5 695 c 128,-1,20
 291 740 291 740 406 740 c 256,21,22
 521 740 521 740 604.5 695 c 128,-1,23
 688 650 688 650 732.5 565.5 c 128,-1,24
 777 481 777 481 777 365 c 0,25,26
 777 204 777 204 692.5 106 c 128,-1,27
 608 8 608 8 458 -7 c 1,28,0
 398 -39 398 -39 398 -69 c 0,1,2
259.5 195.5 m 128,-1,30
 310 137 310 137 406 137 c 0,31,32
 501 137 501 137 551.5 195.5 c 128,-1,33
 602 254 602 254 602 365 c 256,34,35
 602 476 602 476 551.5 534.5 c 128,-1,36
 501 593 501 593 406 593 c 0,37,38
 310 593 310 593 259.5 534.5 c 128,-1,39
 209 476 209 476 209 365 c 256,40,29
 209 254 209 254 259.5 195.5 c 128,-1,30
EndSplineSet
EndChar

StartChar: Oslash
Encoding: 216 216 133
Width: 811
GlyphClass: 2
Flags: W
AnchorPoint: "Anchor-7" 601 690 basechar 0
AnchorPoint: "Anchor-6" 406 730 basechar 0
AnchorPoint: "Anchor-5" 474 0 basechar 0
AnchorPoint: "Anchor-4" 406 0 basechar 0
LayerCount: 2
Fore
SplineSet
754 516 m 128,-1,1
 777 448 777 448 777 365 c 0,2,3
 777 249 777 249 732.5 164.5 c 128,-1,4
 688 80 688 80 604.5 35 c 128,-1,5
 521 -10 521 -10 406 -10 c 0,6,7
 307 -10 307 -10 232 23 c 1,8,-1
 178 -49 l 1,9,-1
 74 29 l 1,10,-1
 126 98 l 1,11,12
 81 146 81 146 58 214 c 128,-1,13
 35 282 35 282 35 365 c 0,14,15
 35 481 35 481 79.5 565.5 c 128,-1,16
 124 650 124 650 207.5 695 c 128,-1,17
 291 740 291 740 406 740 c 0,18,19
 505 740 505 740 580 707 c 1,20,-1
 634 779 l 1,21,-1
 738 701 l 1,22,-1
 686 632 l 1,23,0
 731 584 731 584 754 516 c 128,-1,1
232 240 m 1,25,-1
 485 580 l 1,26,27
 452 593 452 593 406 593 c 0,28,29
 310 593 310 593 259.5 534.5 c 128,-1,30
 209 476 209 476 209 365 c 0,31,24
 209 292 209 292 232 240 c 1,25,-1
551.5 195.5 m 128,-1,33
 602 254 602 254 602 365 c 0,34,35
 602 436 602 436 580 489 c 1,36,-1
 326 150 l 1,37,38
 361 137 361 137 406 137 c 0,39,32
 501 137 501 137 551.5 195.5 c 128,-1,33
EndSplineSet
EndChar

StartChar: OE
Encoding: 338 338 137
Width: 1043
GlyphClass: 2
Flags: W
AnchorPoint: "Anchor-6" 746 730 basechar 0
AnchorPoint: "Anchor-5" 985 0 basechar 0
AnchorPoint: "Anchor-4" 746 0 basechar 0
LayerCount: 2
Fore
SplineSet
676 591 m 1,0,-1
 676 445 l 1,1,-1
 965 445 l 1,2,-1
 965 310 l 1,3,-1
 676 310 l 1,4,-1
 676 139 l 1,5,-1
 985 139 l 1,6,-1
 985 0 l 1,7,-1
 506 0 l 1,8,9
 462 -10 462 -10 406 -10 c 0,10,11
 291 -10 291 -10 207.5 35 c 128,-1,12
 124 80 124 80 79.5 164.5 c 128,-1,13
 35 249 35 249 35 365 c 256,14,15
 35 481 35 481 79.5 565.5 c 128,-1,16
 124 650 124 650 207.5 695 c 128,-1,17
 291 740 291 740 406 740 c 0,18,19
 462 740 462 740 506 730 c 1,20,-1
 985 730 l 1,21,-1
 985 591 l 1,22,-1
 676 591 l 1,0,-1
506 162 m 1,24,-1
 506 568 l 1,25,26
 466 593 466 593 406 593 c 0,27,28
 310 593 310 593 259.5 534.5 c 128,-1,29
 209 476 209 476 209 365 c 256,30,31
 209 254 209 254 259.5 195.5 c 128,-1,32
 310 137 310 137 406 137 c 0,33,23
 466 137 466 137 506 162 c 1,24,-1
EndSplineSet
EndChar

StartChar: P
Encoding: 80 80 138
Width: 645
Flags: W
LayerCount: 2
Fore
SplineSet
536.5 669 m 128,-1,1
 618 608 618 608 618 482 c 0,2,3
 618 360 618 360 542.5 297.5 c 128,-1,4
 467 235 467 235 320 235 c 2,5,-1
 240 235 l 1,6,-1
 240 0 l 1,7,-1
 70 0 l 1,8,-1
 70 730 l 1,9,-1
 287 730 l 2,10,0
 455 730 455 730 536.5 669 c 128,-1,1
408 400 m 128,-1,12
 444 426 444 426 444 482 c 256,13,14
 444 538 444 538 408 564 c 128,-1,15
 372 590 372 590 295 590 c 2,16,-1
 240 590 l 1,17,-1
 240 374 l 1,18,-1
 295 374 l 2,19,11
 372 374 372 374 408 400 c 128,-1,12
EndSplineSet
EndChar

StartChar: Thorn
Encoding: 222 222 139
Width: 645
Flags: W
LayerCount: 2
Fore
SplineSet
536.5 562 m 128,-1,1
 618 501 618 501 618 375 c 0,2,3
 618 253 618 253 542.5 190 c 128,-1,4
 467 127 467 127 320 127 c 2,5,-1
 240 127 l 1,6,-1
 240 0 l 1,7,-1
 70 0 l 1,8,-1
 70 730 l 1,9,-1
 240 730 l 1,10,-1
 240 623 l 1,11,-1
 287 623 l 2,12,0
 455 623 455 623 536.5 562 c 128,-1,1
408 293 m 128,-1,14
 444 319 444 319 444 375 c 256,15,16
 444 431 444 431 408 457 c 128,-1,17
 372 483 372 483 295 483 c 2,18,-1
 240 483 l 1,19,-1
 240 267 l 1,20,-1
 295 267 l 2,21,13
 372 267 372 267 408 293 c 128,-1,14
EndSplineSet
EndChar

StartChar: Q
Encoding: 81 81 140
Width: 814
Flags: W
LayerCount: 2
Fore
SplineSet
791 -50 m 1,1,-1
 656 -144 l 1,2,3
 607 -70 607 -70 550 -40 c 128,-1,4
 493 -10 493 -10 406 -10 c 0,5,6
 291 -10 291 -10 207.5 35 c 128,-1,7
 124 80 124 80 79.5 164.5 c 128,-1,8
 35 249 35 249 35 365 c 256,9,10
 35 481 35 481 79.5 565.5 c 128,-1,11
 124 650 124 650 207.5 695 c 128,-1,12
 291 740 291 740 406 740 c 256,13,14
 521 740 521 740 604.5 695 c 128,-1,15
 688 650 688 650 732.5 565.5 c 128,-1,16
 777 481 777 481 777 365 c 0,17,18
 777 264 777 264 741 187.5 c 128,-1,19
 705 111 705 111 637 64 c 1,20,0
 735 20 735 20 791 -50 c 1,1,-1
552 195.5 m 128,-1,22
 603 254 603 254 602 365 c 0,23,24
 603 476 603 476 552.5 534.5 c 128,-1,25
 502 593 502 593 406 593 c 0,26,27
 311 593 311 593 260.5 534.5 c 128,-1,28
 210 476 210 476 209 365 c 0,29,30
 210 254 210 254 260.5 195.5 c 128,-1,31
 311 137 311 137 406 137 c 256,32,21
 501 137 501 137 552 195.5 c 128,-1,22
EndSplineSet
EndChar

StartChar: R
Encoding: 82 82 141
Width: 675
GlyphClass: 2
Flags: W
AnchorPoint: "Anchor-6" 324 730 basechar 0
AnchorPoint: "Anchor-4" 324 0 basechar 0
LayerCount: 2
Fore
SplineSet
243 270 m 1,0,-1
 240 270 l 1,1,-1
 240 0 l 1,2,-1
 70 0 l 1,3,-1
 70 730 l 1,4,-1
 290 730 l 2,5,6
 457 730 457 730 538 674 c 128,-1,7
 619 618 619 618 619 502 c 0,8,9
 619 410 619 410 570 353.5 c 128,-1,10
 521 297 521 297 424 279 c 1,11,-1
 647 0 l 1,12,-1
 457 0 l 1,13,-1
 243 270 l 1,0,-1
240 590 m 1,14,-1
 240 400 l 1,15,-1
 299 400 l 2,16,17
 374 400 374 400 409 422.5 c 128,-1,18
 444 445 444 445 444 494 c 0,19,20
 444 544 444 544 409 567 c 128,-1,21
 374 590 374 590 299 590 c 2,22,-1
 240 590 l 1,14,-1
EndSplineSet
EndChar

StartChar: S
Encoding: 83 83 147
Width: 631
GlyphClass: 2
Flags: W
AnchorPoint: "Anchor-6" 314 730 basechar 0
AnchorPoint: "Anchor-4" 314 0 basechar 0
LayerCount: 2
Fore
SplineSet
157.5 6 m 128,-1,1
 91 22 91 22 43 53 c 1,2,-1
 96 190 l 1,3,4
 144 163 144 163 198.5 148 c 128,-1,5
 253 133 253 133 302 133 c 0,6,7
 354 133 354 133 381.5 151.5 c 128,-1,8
 409 170 409 170 409 206 c 0,9,10
 409 237 409 237 386 254 c 128,-1,11
 363 271 363 271 306 290 c 0,12,13
 213 321 213 321 157 353.5 c 128,-1,14
 101 386 101 386 74.5 428.5 c 128,-1,15
 48 471 48 471 48 531 c 0,16,17
 48 632 48 632 120 686 c 128,-1,18
 192 740 192 740 327 740 c 0,19,20
 393 740 393 740 458.5 727 c 128,-1,21
 524 714 524 714 570 692 c 1,22,-1
 517 555 l 1,23,24
 475 575 475 575 427 586 c 128,-1,25
 379 597 379 597 335 597 c 0,26,27
 281 597 281 597 253.5 579.5 c 128,-1,28
 226 562 226 562 226 529 c 0,29,30
 226 501 226 501 250 484 c 128,-1,31
 274 467 274 467 332 447 c 0,32,33
 424 415 424 415 479 382 c 128,-1,34
 534 349 534 349 560.5 307 c 128,-1,35
 587 265 587 265 587 206 c 0,36,37
 588 103 588 103 513.5 46.5 c 128,-1,38
 439 -10 439 -10 302 -10 c 0,39,0
 224 -10 224 -10 157.5 6 c 128,-1,1
EndSplineSet
EndChar

StartChar: Scedilla
Encoding: 350 350 150
Width: 631
GlyphClass: 2
Flags: W
AnchorPoint: "Anchor-6" 314 730 basechar 0
AnchorPoint: "Anchor-4" 314 0 basechar 0
LayerCount: 2
Fore
SplineSet
548.5 80.5 m 128,-1,1
 509 30 509 30 434 7 c 1,2,3
 477 -42 477 -42 477 -92 c 0,4,5
 477 -153 477 -153 425.5 -186 c 128,-1,6
 374 -219 374 -219 280 -219 c 0,7,8
 211 -219 211 -219 158 -199 c 1,9,-1
 174 -80 l 1,10,11
 219 -100 219 -100 269 -100 c 0,12,13
 296 -100 296 -100 310.5 -92 c 128,-1,14
 325 -84 325 -84 325 -69 c 0,15,16
 325 -39 325 -39 268 -9 c 1,17,18
 132 -3 132 -3 43 53 c 1,19,-1
 96 190 l 1,20,21
 144 163 144 163 198.5 148 c 128,-1,22
 253 133 253 133 302 133 c 0,23,24
 354 133 354 133 381.5 151.5 c 128,-1,25
 409 170 409 170 409 206 c 0,26,27
 409 237 409 237 386 254 c 128,-1,28
 363 271 363 271 306 290 c 0,29,30
 213 321 213 321 157 353.5 c 128,-1,31
 101 386 101 386 74.5 428.5 c 128,-1,32
 48 471 48 471 48 531 c 0,33,34
 48 632 48 632 120 686 c 128,-1,35
 192 740 192 740 327 740 c 0,36,37
 393 740 393 740 458.5 727 c 128,-1,38
 524 714 524 714 570 692 c 1,39,-1
 517 555 l 1,40,41
 475 575 475 575 427 586 c 128,-1,42
 379 597 379 597 335 597 c 0,43,44
 281 597 281 597 253.5 579.5 c 128,-1,45
 226 562 226 562 226 529 c 0,46,47
 226 501 226 501 250 484 c 128,-1,48
 274 467 274 467 332 447 c 0,49,50
 424 415 424 415 479 382 c 128,-1,51
 534 349 534 349 560.5 307 c 128,-1,52
 587 265 587 265 587 206 c 0,53,0
 588 131 588 131 548.5 80.5 c 128,-1,1
EndSplineSet
Substitution2: "'locl' Localized Forms in Latin lookup 4 subtable" uni0218
Substitution2: "'aalt' Access All Alternates in Latin lookup 0 subtable" uni0218
EndChar

StartChar: uni1E9E
Encoding: 7838 7838 153
Width: 705
Flags: W
LayerCount: 2
Fore
SplineSet
303 14 m 1,1,-1
 325 156 l 1,2,3
 373 137 373 137 415 137 c 0,4,5
 461 137 461 137 484.5 156 c 128,-1,6
 508 175 508 175 508 212 c 0,7,8
 508 253 508 253 475.5 270 c 128,-1,9
 443 287 443 287 362 287 c 2,10,-1
 358 287 l 1,11,-1
 358 400 l 1,12,-1
 447 520 l 1,13,14
 447 558 447 558 422.5 575.5 c 128,-1,15
 398 593 398 593 346 593 c 0,16,17
 289 593 289 593 264.5 571.5 c 128,-1,18
 240 550 240 550 240 501 c 2,19,-1
 240 0 l 1,20,-1
 70 0 l 1,21,-1
 70 501 l 2,22,23
 70 621 70 621 138.5 680.5 c 128,-1,24
 207 740 207 740 346 740 c 0,25,26
 617 740 617 740 617 511 c 1,27,-1
 523 393 l 1,28,-1
 523 391 l 1,29,30
 601 379 601 379 641.5 331.5 c 128,-1,31
 682 284 682 284 682 205 c 0,32,33
 682 101 682 101 619.5 45.5 c 128,-1,34
 557 -10 557 -10 440 -10 c 0,35,0
 366 -10 366 -10 303 14 c 1,1,-1
EndSplineSet
EndChar

StartChar: uni018F
Encoding: 399 399 154
Width: 761
Flags: W
LayerCount: 2
Fore
SplineSet
622 643 m 128,-1,1
 726 546 726 546 726 365 c 0,2,3
 726 249 726 249 683.5 164.5 c 128,-1,4
 641 80 641 80 562 35 c 128,-1,5
 483 -10 483 -10 374 -10 c 0,6,7
 267 -10 267 -10 190.5 33 c 128,-1,8
 114 76 114 76 73.5 157.5 c 128,-1,9
 33 239 33 239 33 353 c 0,10,11
 33 419 33 419 37 436 c 1,12,-1
 556 436 l 1,13,14
 551 518 551 518 498.5 555.5 c 128,-1,15
 446 593 446 593 335 593 c 0,16,17
 220 593 220 593 111 555 c 1,18,-1
 81 697 l 1,19,20
 130 717 130 717 194.5 728.5 c 128,-1,21
 259 740 259 740 324 740 c 0,22,0
 518 740 518 740 622 643 c 128,-1,1
501 176.5 m 128,-1,24
 544 216 544 216 553 298 c 1,25,-1
 206 298 l 1,26,27
 215 216 215 216 257.5 176.5 c 128,-1,28
 300 137 300 137 379 137 c 256,29,23
 458 137 458 137 501 176.5 c 128,-1,24
EndSplineSet
EndChar

StartChar: T
Encoding: 84 84 155
Width: 644
GlyphClass: 2
Flags: W
AnchorPoint: "Anchor-8" 235 0 basechar 0
AnchorPoint: "Anchor-6" 323 730 basechar 0
AnchorPoint: "Anchor-4" 323 0 basechar 0
LayerCount: 2
Fore
SplineSet
235 583 m 1,0,-1
 27 583 l 1,1,-1
 27 730 l 1,2,-1
 618 730 l 1,3,-1
 618 583 l 1,4,-1
 409 583 l 1,5,-1
 409 0 l 1,6,-1
 235 0 l 1,7,-1
 235 583 l 1,0,-1
EndSplineSet
EndChar

StartChar: Tbar
Encoding: 358 358 156
Width: 698
GlyphClass: 2
Flags: W
AnchorPoint: "Anchor-8" 262 0 basechar 0
AnchorPoint: "Anchor-6" 349 730 basechar 0
AnchorPoint: "Anchor-4" 349 0 basechar 0
LayerCount: 2
Fore
SplineSet
644 583 m 1,0,-1
 436 583 l 1,1,-1
 436 377 l 1,2,-1
 593 377 l 1,3,-1
 593 253 l 1,4,-1
 436 253 l 1,5,-1
 436 0 l 1,6,-1
 262 0 l 1,7,-1
 262 253 l 1,8,-1
 106 253 l 1,9,-1
 106 377 l 1,10,-1
 262 377 l 1,11,-1
 262 583 l 1,12,-1
 53 583 l 1,13,-1
 53 730 l 1,14,-1
 644 730 l 1,15,-1
 644 583 l 1,0,-1
EndSplineSet
EndChar

StartChar: uni0162
Encoding: 354 354 158
Width: 644
GlyphClass: 2
Flags: W
AnchorPoint: "Anchor-8" 235 0 basechar 0
AnchorPoint: "Anchor-6" 323 730 basechar 0
AnchorPoint: "Anchor-4" 323 0 basechar 0
LayerCount: 2
Fore
SplineSet
409 583 m 1,0,-1
 409 19 l 1,1,2
 463 -35 463 -35 463 -92 c 0,3,4
 463 -153 463 -153 411.5 -186 c 128,-1,5
 360 -219 360 -219 266 -219 c 0,6,7
 197 -219 197 -219 144 -199 c 1,8,-1
 160 -80 l 1,9,10
 205 -100 205 -100 255 -100 c 0,11,12
 283 -100 283 -100 297.5 -92 c 128,-1,13
 312 -84 312 -84 312 -69 c 0,14,15
 312 -35 312 -35 235 0 c 1,16,-1
 235 583 l 1,17,-1
 27 583 l 1,18,-1
 27 730 l 1,19,-1
 618 730 l 1,20,-1
 618 583 l 1,21,-1
 409 583 l 1,0,-1
EndSplineSet
Substitution2: "'locl' Localized Forms in Latin lookup 4 subtable" uni021A
Substitution2: "'aalt' Access All Alternates in Latin lookup 0 subtable" uni021A
EndChar

StartChar: U
Encoding: 85 85 160
Width: 713
GlyphClass: 2
Flags: W
AnchorPoint: "Anchor-7" 625 690 basechar 0
AnchorPoint: "Anchor-6" 357 730 basechar 0
AnchorPoint: "Anchor-5" 487 10 basechar 0
AnchorPoint: "Anchor-4" 357 0 basechar 0
LayerCount: 2
Fore
SplineSet
138.5 62 m 128,-1,1
 63 134 63 134 63 270 c 2,2,-1
 63 730 l 1,3,-1
 233 730 l 1,4,-1
 233 291 l 2,5,6
 233 207 233 207 261 172 c 128,-1,7
 289 137 289 137 357 137 c 0,8,9
 424 137 424 137 452 172 c 128,-1,10
 480 207 480 207 480 291 c 2,11,-1
 480 730 l 1,12,-1
 650 730 l 1,13,-1
 650 270 l 2,14,15
 650 133 650 133 575 61.5 c 128,-1,16
 500 -10 500 -10 357 -10 c 256,17,0
 214 -10 214 -10 138.5 62 c 128,-1,1
EndSplineSet
EndChar

StartChar: Uhorn
Encoding: 431 431 169
Width: 853
GlyphClass: 2
Flags: W
AnchorPoint: "Anchor-7" 878 837 basechar 0
AnchorPoint: "Anchor-6" 357 730 basechar 0
AnchorPoint: "Anchor-5" 487 10 basechar 0
AnchorPoint: "Anchor-4" 357 0 basechar 0
LayerCount: 2
Fore
SplineSet
872 705 m 0,1,2
 872 623 872 623 834 579 c 128,-1,3
 796 535 796 535 725 535 c 0,4,5
 688 535 688 535 650 548 c 1,6,-1
 650 270 l 2,7,8
 650 133 650 133 575 61.5 c 128,-1,9
 500 -10 500 -10 357 -10 c 256,10,11
 214 -10 214 -10 138.5 62 c 128,-1,12
 63 134 63 134 63 270 c 2,13,-1
 63 730 l 1,14,-1
 233 730 l 1,15,-1
 233 291 l 2,16,17
 233 207 233 207 261 172 c 128,-1,18
 289 137 289 137 357 137 c 0,19,20
 424 137 424 137 452 172 c 128,-1,21
 480 207 480 207 480 291 c 2,22,-1
 480 730 l 1,23,-1
 650 730 l 1,24,-1
 650 666 l 1,25,26
 659 663 659 663 668 663 c 0,27,28
 691 663 691 663 704 678.5 c 128,-1,29
 717 694 717 694 717 722 c 0,30,31
 717 744 717 744 709.5 779 c 128,-1,32
 702 814 702 814 693 837 c 1,33,-1
 851 837 l 1,34,0
 872 772 872 772 872 705 c 0,1,2
EndSplineSet
EndChar

StartChar: Uogonek
Encoding: 370 370 178
Width: 713
GlyphClass: 2
Flags: W
AnchorPoint: "Anchor-7" 625 690 basechar 0
AnchorPoint: "Anchor-6" 357 730 basechar 0
AnchorPoint: "Anchor-5" 487 10 basechar 0
AnchorPoint: "Anchor-4" 357 0 basechar 0
LayerCount: 2
Fore
SplineSet
650 730 m 1,0,-1
 650 270 l 2,1,2
 650 168 650 168 607.5 101.5 c 128,-1,3
 565 35 565 35 482 8 c 1,4,5
 411 -26 411 -26 411 -59 c 0,6,7
 411 -74 411 -74 425.5 -82 c 128,-1,8
 440 -90 440 -90 467 -90 c 0,9,10
 517 -90 517 -90 562 -70 c 1,11,-1
 578 -189 l 1,12,13
 525 -209 525 -209 456 -209 c 0,14,15
 362 -209 362 -209 310.5 -176 c 128,-1,16
 259 -143 259 -143 259 -82 c 0,17,18
 259 -41 259 -41 285 -5 c 1,19,20
 176 12 176 12 119.5 82 c 128,-1,21
 63 152 63 152 63 270 c 2,22,-1
 63 730 l 1,23,-1
 233 730 l 1,24,-1
 233 291 l 2,25,26
 233 207 233 207 261 172 c 128,-1,27
 289 137 289 137 357 137 c 0,28,29
 424 137 424 137 452 172 c 128,-1,30
 480 207 480 207 480 291 c 2,31,-1
 480 730 l 1,32,-1
 650 730 l 1,0,-1
EndSplineSet
EndChar

StartChar: V
Encoding: 86 86 181
Width: 694
Flags: W
LayerCount: 2
Fore
SplineSet
9 730 m 1,0,-1
 196 730 l 1,1,-1
 346 170 l 1,2,-1
 348 170 l 1,3,-1
 498 730 l 1,4,-1
 685 730 l 1,5,-1
 458 0 l 1,6,-1
 236 0 l 1,7,-1
 9 730 l 1,0,-1
EndSplineSet
EndChar

StartChar: W
Encoding: 87 87 182
Width: 952
GlyphClass: 2
Flags: W
AnchorPoint: "Anchor-6" 476 730 basechar 0
AnchorPoint: "Anchor-4" 476 0 basechar 0
LayerCount: 2
Fore
SplineSet
476 557 m 1,0,-1
 474 557 l 1,1,-1
 382 0 l 1,2,-1
 183 0 l 1,3,-1
 22 730 l 1,4,-1
 194 730 l 1,5,-1
 286 173 l 1,6,-1
 288 173 l 1,7,-1
 374 730 l 1,8,-1
 580 730 l 1,9,-1
 666 173 l 1,10,-1
 668 173 l 1,11,-1
 760 730 l 1,12,-1
 928 730 l 1,13,-1
 767 0 l 1,14,-1
 568 0 l 1,15,-1
 476 557 l 1,0,-1
EndSplineSet
EndChar

StartChar: X
Encoding: 88 88 187
Width: 695
Flags: W
LayerCount: 2
Fore
SplineSet
220 366 m 1,0,-1
 35 730 l 1,1,-1
 227 730 l 1,2,-1
 346 460 l 1,3,-1
 348 460 l 1,4,-1
 468 730 l 1,5,-1
 660 730 l 1,6,-1
 474 366 l 1,7,-1
 661 0 l 1,8,-1
 469 0 l 1,9,-1
 348 271 l 1,10,-1
 346 271 l 1,11,-1
 226 0 l 1,12,-1
 34 0 l 1,13,-1
 220 366 l 1,0,-1
EndSplineSet
EndChar

StartChar: Y
Encoding: 89 89 188
Width: 677
GlyphClass: 2
Flags: W
AnchorPoint: "Anchor-6" 338 730 basechar 0
AnchorPoint: "Anchor-4" 338 0 basechar 0
LayerCount: 2
Fore
SplineSet
249 278 m 1,0,-1
 5 730 l 1,1,-1
 194 730 l 1,2,-1
 337 425 l 1,3,-1
 339 425 l 1,4,-1
 483 730 l 1,5,-1
 672 730 l 1,6,-1
 427 278 l 1,7,-1
 427 0 l 1,8,-1
 249 0 l 1,9,-1
 249 278 l 1,0,-1
EndSplineSet
EndChar

StartChar: Z
Encoding: 90 90 197
Width: 642
GlyphClass: 2
Flags: W
AnchorPoint: "Anchor-6" 321 730 basechar 0
AnchorPoint: "Anchor-4" 321 0 basechar 0
LayerCount: 2
Fore
SplineSet
56 143 m 1,0,-1
 384 585 l 1,1,-1
 384 587 l 1,2,-1
 56 587 l 1,3,-1
 56 730 l 1,4,-1
 586 730 l 1,5,-1
 586 587 l 1,6,-1
 258 145 l 1,7,-1
 258 143 l 1,8,-1
 586 143 l 1,9,-1
 586 0 l 1,10,-1
 56 0 l 1,11,-1
 56 143 l 1,0,-1
EndSplineSet
EndChar

StartChar: a
Encoding: 97 97 201
Width: 570
GlyphClass: 2
Flags: W
AnchorPoint: "Anchor-6" 273 520 basechar 0
AnchorPoint: "Anchor-5" 513 0 basechar 0
AnchorPoint: "Anchor-4" 273 0 basechar 0
LayerCount: 2
Fore
SplineSet
460 482 m 128,-1,1
 513 434 513 434 513 322 c 2,2,-1
 513 0 l 1,3,-1
 355 0 l 1,4,-1
 353 63 l 1,5,-1
 351 63 l 1,6,7
 323 28 323 28 281.5 9 c 128,-1,8
 240 -10 240 -10 192 -10 c 0,9,10
 117 -10 117 -10 71.5 33.5 c 128,-1,11
 26 77 26 77 26 148 c 0,12,13
 26 237 26 237 102 285 c 128,-1,14
 178 333 178 333 317 333 c 2,15,-1
 347 333 l 1,16,17
 346 377 346 377 330.5 392 c 128,-1,18
 315 407 315 407 271 407 c 0,19,20
 177 407 177 407 78 363 c 1,21,-1
 42 481 l 1,22,23
 95 505 95 505 157.5 517.5 c 128,-1,24
 220 530 220 530 284 530 c 0,25,0
 407 530 407 530 460 482 c 128,-1,1
317.5 135 m 128,-1,27
 347 161 347 161 347 198 c 2,28,-1
 347 234 l 1,29,-1
 317 234 l 2,30,31
 179 234 179 234 179 165 c 0,32,33
 179 139 179 139 197 124 c 128,-1,34
 215 109 215 109 246 109 c 0,35,26
 288 109 288 109 317.5 135 c 128,-1,27
EndSplineSet
Substitution2: "Single Substitution lookup 21 subtable" ordfeminine
Substitution2: "'aalt' Access All Alternates in Latin lookup 0 subtable" ordfeminine
EndChar

StartChar: uni1EAF
Encoding: 7855 7855 204
Width: 570
GlyphClass: 2
Flags: W
AnchorPoint: "Anchor-6" 273 520 basechar 0
AnchorPoint: "Anchor-5" 513 0 basechar 0
AnchorPoint: "Anchor-4" 273 0 basechar 0
LayerCount: 2
Fore
SplineSet
153 584 m 128,-1,1
 100 610 100 610 69.5 656 c 128,-1,2
 39 702 39 702 38 761 c 1,3,-1
 168 761 l 1,4,-1
 236 960 l 1,5,-1
 436 960 l 1,6,-1
 314 750 l 1,7,-1
 193 750 l 1,8,9
 205 673 205 673 273 673 c 0,10,11
 310 673 310 673 330 694.5 c 128,-1,12
 350 716 350 716 356 761 c 1,13,-1
 508 761 l 1,14,15
 507 702 507 702 476.5 656 c 128,-1,16
 446 610 446 610 393 584 c 128,-1,17
 340 558 340 558 273 558 c 256,18,0
 206 558 206 558 153 584 c 128,-1,1
460 482 m 128,-1,20
 513 434 513 434 513 322 c 2,21,-1
 513 0 l 1,22,-1
 355 0 l 1,23,-1
 353 63 l 1,24,-1
 351 63 l 1,25,26
 323 28 323 28 281.5 9 c 128,-1,27
 240 -10 240 -10 192 -10 c 0,28,29
 117 -10 117 -10 71.5 33.5 c 128,-1,30
 26 77 26 77 26 148 c 0,31,32
 26 237 26 237 102 285 c 128,-1,33
 178 333 178 333 317 333 c 2,34,-1
 347 333 l 1,35,36
 346 377 346 377 330.5 392 c 128,-1,37
 315 407 315 407 271 407 c 0,38,39
 177 407 177 407 78 363 c 1,40,-1
 42 481 l 1,41,42
 95 505 95 505 157.5 517.5 c 128,-1,43
 220 530 220 530 284 530 c 0,44,19
 407 530 407 530 460 482 c 128,-1,20
317.5 135 m 128,-1,46
 347 161 347 161 347 198 c 2,47,-1
 347 234 l 1,48,-1
 317 234 l 2,49,50
 179 234 179 234 179 165 c 0,51,52
 179 139 179 139 197 124 c 128,-1,53
 215 109 215 109 246 109 c 0,54,45
 288 109 288 109 317.5 135 c 128,-1,46
EndSplineSet
EndChar

StartChar: uni1EB1
Encoding: 7857 7857 206
Width: 570
GlyphClass: 2
Flags: W
AnchorPoint: "Anchor-6" 273 520 basechar 0
AnchorPoint: "Anchor-5" 513 0 basechar 0
AnchorPoint: "Anchor-4" 273 0 basechar 0
LayerCount: 2
Fore
SplineSet
327 692 m 128,-1,1
 347 711 347 711 354 750 c 1,2,-1
 233 750 l 1,3,-1
 111 960 l 1,4,-1
 311 960 l 1,5,-1
 379 761 l 1,6,-1
 508 761 l 1,7,8
 507 702 507 702 476.5 656 c 128,-1,9
 446 610 446 610 393 584 c 128,-1,10
 340 558 340 558 273 558 c 256,11,12
 206 558 206 558 153 584 c 128,-1,13
 100 610 100 610 69.5 656 c 128,-1,14
 39 702 39 702 38 761 c 1,15,-1
 191 761 l 1,16,17
 196 716 196 716 216 694.5 c 128,-1,18
 236 673 236 673 273 673 c 0,19,0
 307 673 307 673 327 692 c 128,-1,1
460 482 m 128,-1,21
 513 434 513 434 513 322 c 2,22,-1
 513 0 l 1,23,-1
 355 0 l 1,24,-1
 353 63 l 1,25,-1
 351 63 l 1,26,27
 323 28 323 28 281.5 9 c 128,-1,28
 240 -10 240 -10 192 -10 c 0,29,30
 117 -10 117 -10 71.5 33.5 c 128,-1,31
 26 77 26 77 26 148 c 0,32,33
 26 237 26 237 102 285 c 128,-1,34
 178 333 178 333 317 333 c 2,35,-1
 347 333 l 1,36,37
 346 377 346 377 330.5 392 c 128,-1,38
 315 407 315 407 271 407 c 0,39,40
 177 407 177 407 78 363 c 1,41,-1
 42 481 l 1,42,43
 95 505 95 505 157.5 517.5 c 128,-1,44
 220 530 220 530 284 530 c 0,45,20
 407 530 407 530 460 482 c 128,-1,21
317.5 135 m 128,-1,47
 347 161 347 161 347 198 c 2,48,-1
 347 234 l 1,49,-1
 317 234 l 2,50,51
 179 234 179 234 179 165 c 0,52,53
 179 139 179 139 197 124 c 128,-1,54
 215 109 215 109 246 109 c 0,55,46
 288 109 288 109 317.5 135 c 128,-1,47
EndSplineSet
EndChar

StartChar: uni1EB3
Encoding: 7859 7859 207
Width: 570
GlyphClass: 2
Flags: W
AnchorPoint: "Anchor-6" 273 961 basechar 0
AnchorPoint: "Anchor-5" 513 0 basechar 0
AnchorPoint: "Anchor-4" 273 0 basechar 0
LayerCount: 2
Fore
SplineSet
327.5 692 m 128,-1,1
 347 711 347 711 354 751 c 1,2,-1
 289 751 l 1,3,4
 300 784 300 784 300 813 c 0,5,6
 300 832 300 832 289 838.5 c 128,-1,7
 278 845 278 845 248 845 c 0,8,9
 178 845 178 845 103 822 c 1,10,-1
 90 941 l 1,11,12
 131 950 131 950 180 955.5 c 128,-1,13
 229 961 229 961 273 961 c 0,14,15
 345 961 345 961 384 953 c 128,-1,16
 423 945 423 945 439.5 925.5 c 128,-1,17
 456 906 456 906 456 870 c 0,18,19
 456 845 456 845 451 815 c 128,-1,20
 446 785 446 785 437 761 c 1,21,-1
 508 761 l 1,22,23
 507 702 507 702 476.5 656 c 128,-1,24
 446 610 446 610 393 584 c 128,-1,25
 340 558 340 558 273 558 c 256,26,27
 206 558 206 558 153 584 c 128,-1,28
 100 610 100 610 69.5 656 c 128,-1,29
 39 702 39 702 38 761 c 1,30,-1
 191 761 l 1,31,32
 196 716 196 716 216 694.5 c 128,-1,33
 236 673 236 673 273 673 c 0,34,0
 308 673 308 673 327.5 692 c 128,-1,1
460 482 m 128,-1,36
 513 434 513 434 513 322 c 2,37,-1
 513 0 l 1,38,-1
 355 0 l 1,39,-1
 353 63 l 1,40,-1
 351 63 l 1,41,42
 323 28 323 28 281.5 9 c 128,-1,43
 240 -10 240 -10 192 -10 c 0,44,45
 117 -10 117 -10 71.5 33.5 c 128,-1,46
 26 77 26 77 26 148 c 0,47,48
 26 237 26 237 102 285 c 128,-1,49
 178 333 178 333 317 333 c 2,50,-1
 347 333 l 1,51,52
 346 377 346 377 330.5 392 c 128,-1,53
 315 407 315 407 271 407 c 0,54,55
 177 407 177 407 78 363 c 1,56,-1
 42 481 l 1,57,58
 95 505 95 505 157.5 517.5 c 128,-1,59
 220 530 220 530 284 530 c 0,60,35
 407 530 407 530 460 482 c 128,-1,36
317.5 135 m 128,-1,62
 347 161 347 161 347 198 c 2,63,-1
 347 234 l 1,64,-1
 317 234 l 2,65,66
 179 234 179 234 179 165 c 0,67,68
 179 139 179 139 197 124 c 128,-1,69
 215 109 215 109 246 109 c 0,70,61
 288 109 288 109 317.5 135 c 128,-1,62
EndSplineSet
EndChar

StartChar: uni1EA5
Encoding: 7845 7845 210
Width: 570
GlyphClass: 2
Flags: W
AnchorPoint: "Anchor-6" 273 520 basechar 0
AnchorPoint: "Anchor-5" 513 0 basechar 0
AnchorPoint: "Anchor-4" 273 0 basechar 0
LayerCount: 2
Fore
SplineSet
652 950 m 1,0,-1
 530 740 l 1,1,-1
 422 740 l 1,2,-1
 527 560 l 1,3,-1
 343 560 l 1,4,-1
 274 707 l 1,5,-1
 272 707 l 1,6,-1
 203 560 l 1,7,-1
 19 560 l 1,8,-1
 141 770 l 1,9,-1
 390 770 l 1,10,-1
 452 950 l 1,11,-1
 652 950 l 1,0,-1
460 482 m 128,-1,13
 513 434 513 434 513 322 c 2,14,-1
 513 0 l 1,15,-1
 355 0 l 1,16,-1
 353 63 l 1,17,-1
 351 63 l 1,18,19
 323 28 323 28 281.5 9 c 128,-1,20
 240 -10 240 -10 192 -10 c 0,21,22
 117 -10 117 -10 71.5 33.5 c 128,-1,23
 26 77 26 77 26 148 c 0,24,25
 26 237 26 237 102 285 c 128,-1,26
 178 333 178 333 317 333 c 2,27,-1
 347 333 l 1,28,29
 346 377 346 377 330.5 392 c 128,-1,30
 315 407 315 407 271 407 c 0,31,32
 177 407 177 407 78 363 c 1,33,-1
 42 481 l 1,34,35
 95 505 95 505 157.5 517.5 c 128,-1,36
 220 530 220 530 284 530 c 0,37,12
 407 530 407 530 460 482 c 128,-1,13
317.5 135 m 128,-1,39
 347 161 347 161 347 198 c 2,40,-1
 347 234 l 1,41,-1
 317 234 l 2,42,43
 179 234 179 234 179 165 c 0,44,45
 179 139 179 139 197 124 c 128,-1,46
 215 109 215 109 246 109 c 0,47,38
 288 109 288 109 317.5 135 c 128,-1,39
EndSplineSet
EndChar

StartChar: uni1EA7
Encoding: 7847 7847 212
Width: 570
GlyphClass: 2
Flags: W
AnchorPoint: "Anchor-6" 273 520 basechar 0
AnchorPoint: "Anchor-5" 513 0 basechar 0
AnchorPoint: "Anchor-4" 273 0 basechar 0
LayerCount: 2
Fore
SplineSet
203 560 m 1,0,-1
 19 560 l 1,1,-1
 124 740 l 1,2,-1
 17 740 l 1,3,-1
 -105 950 l 1,4,-1
 95 950 l 1,5,-1
 157 770 l 1,6,-1
 405 770 l 1,7,-1
 527 560 l 1,8,-1
 343 560 l 1,9,-1
 274 707 l 1,10,-1
 272 707 l 1,11,-1
 203 560 l 1,0,-1
460 482 m 128,-1,13
 513 434 513 434 513 322 c 2,14,-1
 513 0 l 1,15,-1
 355 0 l 1,16,-1
 353 63 l 1,17,-1
 351 63 l 1,18,19
 323 28 323 28 281.5 9 c 128,-1,20
 240 -10 240 -10 192 -10 c 0,21,22
 117 -10 117 -10 71.5 33.5 c 128,-1,23
 26 77 26 77 26 148 c 0,24,25
 26 237 26 237 102 285 c 128,-1,26
 178 333 178 333 317 333 c 2,27,-1
 347 333 l 1,28,29
 346 377 346 377 330.5 392 c 128,-1,30
 315 407 315 407 271 407 c 0,31,32
 177 407 177 407 78 363 c 1,33,-1
 42 481 l 1,34,35
 95 505 95 505 157.5 517.5 c 128,-1,36
 220 530 220 530 284 530 c 0,37,12
 407 530 407 530 460 482 c 128,-1,13
317.5 135 m 128,-1,39
 347 161 347 161 347 198 c 2,40,-1
 347 234 l 1,41,-1
 317 234 l 2,42,43
 179 234 179 234 179 165 c 0,44,45
 179 139 179 139 197 124 c 128,-1,46
 215 109 215 109 246 109 c 0,47,38
 288 109 288 109 317.5 135 c 128,-1,39
EndSplineSet
EndChar

StartChar: uni1EA9
Encoding: 7849 7849 213
Width: 570
GlyphClass: 2
Flags: W
AnchorPoint: "Anchor-6" 366 950 basechar 0
AnchorPoint: "Anchor-5" 513 0 basechar 0
AnchorPoint: "Anchor-4" 273 0 basechar 0
LayerCount: 2
Fore
SplineSet
422 740 m 1,0,-1
 527 560 l 1,1,-1
 343 560 l 1,2,-1
 274 707 l 1,3,-1
 272 707 l 1,4,-1
 203 560 l 1,5,-1
 19 560 l 1,6,-1
 141 770 l 1,7,-1
 390 770 l 1,8,9
 393 788 393 788 393 802 c 0,10,11
 393 821 393 821 382 827.5 c 128,-1,12
 371 834 371 834 341 834 c 0,13,14
 271 834 271 834 196 811 c 1,15,-1
 183 930 l 1,16,17
 224 939 224 939 273 944.5 c 128,-1,18
 322 950 322 950 366 950 c 0,19,20
 438 950 438 950 477 942 c 128,-1,21
 516 934 516 934 532.5 914.5 c 128,-1,22
 549 895 549 895 549 859 c 0,23,24
 549 832 549 832 542.5 798.5 c 128,-1,25
 536 765 536 765 526 740 c 1,26,-1
 422 740 l 1,0,-1
460 482 m 128,-1,28
 513 434 513 434 513 322 c 2,29,-1
 513 0 l 1,30,-1
 355 0 l 1,31,-1
 353 63 l 1,32,-1
 351 63 l 1,33,34
 323 28 323 28 281.5 9 c 128,-1,35
 240 -10 240 -10 192 -10 c 0,36,37
 117 -10 117 -10 71.5 33.5 c 128,-1,38
 26 77 26 77 26 148 c 0,39,40
 26 237 26 237 102 285 c 128,-1,41
 178 333 178 333 317 333 c 2,42,-1
 347 333 l 1,43,44
 346 377 346 377 330.5 392 c 128,-1,45
 315 407 315 407 271 407 c 0,46,47
 177 407 177 407 78 363 c 1,48,-1
 42 481 l 1,49,50
 95 505 95 505 157.5 517.5 c 128,-1,51
 220 530 220 530 284 530 c 0,52,27
 407 530 407 530 460 482 c 128,-1,28
317.5 135 m 128,-1,54
 347 161 347 161 347 198 c 2,55,-1
 347 234 l 1,56,-1
 317 234 l 2,57,58
 179 234 179 234 179 165 c 0,59,60
 179 139 179 139 197 124 c 128,-1,61
 215 109 215 109 246 109 c 0,62,53
 288 109 288 109 317.5 135 c 128,-1,54
EndSplineSet
EndChar

StartChar: aogonek
Encoding: 261 261 222
Width: 570
GlyphClass: 2
Flags: W
AnchorPoint: "Anchor-6" 273 520 basechar 0
AnchorPoint: "Anchor-5" 513 0 basechar 0
AnchorPoint: "Anchor-4" 273 0 basechar 0
LayerCount: 2
Fore
SplineSet
604 -199 m 1,0,1
 551 -219 551 -219 482 -219 c 0,2,3
 388 -219 388 -219 336.5 -186 c 128,-1,4
 285 -153 285 -153 285 -92 c 0,5,6
 285 -59 285 -59 301.5 -29.5 c 128,-1,7
 318 0 318 0 354 33 c 1,8,-1
 353 63 l 1,9,-1
 351 63 l 1,10,11
 323 28 323 28 281.5 9 c 128,-1,12
 240 -10 240 -10 192 -10 c 0,13,14
 117 -10 117 -10 71.5 33.5 c 128,-1,15
 26 77 26 77 26 148 c 0,16,17
 26 237 26 237 102 285 c 128,-1,18
 178 333 178 333 317 333 c 2,19,-1
 347 333 l 1,20,21
 346 377 346 377 330.5 392 c 128,-1,22
 315 407 315 407 271 407 c 0,23,24
 177 407 177 407 78 363 c 1,25,-1
 42 481 l 1,26,27
 95 505 95 505 157.5 517.5 c 128,-1,28
 220 530 220 530 284 530 c 0,29,30
 407 530 407 530 460 482 c 128,-1,31
 513 434 513 434 513 322 c 2,32,-1
 513 0 l 1,33,34
 437 -34 437 -34 437 -69 c 0,35,36
 437 -84 437 -84 451.5 -92 c 128,-1,37
 466 -100 466 -100 493 -100 c 0,38,39
 543 -100 543 -100 588 -80 c 1,40,-1
 604 -199 l 1,0,1
317.5 135 m 128,-1,42
 347 161 347 161 347 198 c 2,43,-1
 347 234 l 1,44,-1
 317 234 l 2,45,46
 179 234 179 234 179 165 c 0,47,48
 179 139 179 139 197 124 c 128,-1,49
 215 109 215 109 246 109 c 0,50,41
 288 109 288 109 317.5 135 c 128,-1,42
EndSplineSet
EndChar

StartChar: aring
Encoding: 229 229 223
Width: 570
GlyphClass: 2
Flags: W
AnchorPoint: "Anchor-6" 273 743 basechar 0
AnchorPoint: "Anchor-5" 513 0 basechar 0
AnchorPoint: "Anchor-4" 273 0 basechar 0
LayerCount: 2
Fore
SplineSet
476.5 464 m 128,-1,1
 513 416 513 416 513 322 c 2,2,-1
 513 0 l 1,3,-1
 355 0 l 1,4,-1
 353 63 l 1,5,-1
 351 63 l 1,6,7
 323 28 323 28 281.5 9 c 128,-1,8
 240 -10 240 -10 192 -10 c 0,9,10
 117 -10 117 -10 71.5 33.5 c 128,-1,11
 26 77 26 77 26 148 c 0,12,13
 26 237 26 237 102 285 c 128,-1,14
 178 333 178 333 317 333 c 2,15,-1
 347 333 l 1,16,17
 346 377 346 377 330.5 392 c 128,-1,18
 315 407 315 407 271 407 c 0,19,20
 177 407 177 407 78 363 c 1,21,-1
 42 481 l 1,22,23
 113 513 113 513 192 523 c 1,24,25
 154 545 154 545 132 582.5 c 128,-1,26
 110 620 110 620 110 665 c 0,27,28
 110 709 110 709 132 746.5 c 128,-1,29
 154 784 154 784 191.5 806 c 128,-1,30
 229 828 229 828 274 828 c 0,31,32
 318 828 318 828 355.5 806 c 128,-1,33
 393 784 393 784 415 746.5 c 128,-1,34
 437 709 437 709 437 665 c 256,35,36
 437 621 437 621 415.5 583.5 c 128,-1,37
 394 546 394 546 358 525 c 1,38,0
 440 512 440 512 476.5 464 c 128,-1,1
231.5 708 m 128,-1,40
 214 691 214 691 214 665 c 0,41,42
 214 640 214 640 231.5 622.5 c 128,-1,43
 249 605 249 605 274 605 c 256,44,45
 299 605 299 605 316.5 622.5 c 128,-1,46
 334 640 334 640 334 665 c 256,47,48
 334 690 334 690 316.5 707.5 c 128,-1,49
 299 725 299 725 274 725 c 256,50,39
 249 725 249 725 231.5 708 c 128,-1,40
317.5 135 m 128,-1,52
 347 161 347 161 347 198 c 2,53,-1
 347 234 l 1,54,-1
 317 234 l 2,55,56
 179 234 179 234 179 165 c 0,57,58
 179 139 179 139 197 124 c 128,-1,59
 215 109 215 109 246 109 c 0,60,51
 288 109 288 109 317.5 135 c 128,-1,52
EndSplineSet
EndChar

StartChar: aringacute
Encoding: 507 507 224
Width: 570
GlyphClass: 2
Flags: W
AnchorPoint: "Anchor-6" 273 743 basechar 0
AnchorPoint: "Anchor-5" 513 0 basechar 0
AnchorPoint: "Anchor-4" 273 0 basechar 0
LayerCount: 2
Fore
SplineSet
476.5 464 m 128,-1,1
 513 416 513 416 513 322 c 2,2,-1
 513 0 l 1,3,-1
 355 0 l 1,4,-1
 353 63 l 1,5,-1
 351 63 l 1,6,7
 323 28 323 28 281.5 9 c 128,-1,8
 240 -10 240 -10 192 -10 c 0,9,10
 117 -10 117 -10 71.5 33.5 c 128,-1,11
 26 77 26 77 26 148 c 0,12,13
 26 237 26 237 102 285 c 128,-1,14
 178 333 178 333 317 333 c 2,15,-1
 347 333 l 1,16,17
 346 377 346 377 330.5 392 c 128,-1,18
 315 407 315 407 271 407 c 0,19,20
 177 407 177 407 78 363 c 1,21,-1
 42 481 l 1,22,23
 113 513 113 513 192 523 c 1,24,25
 154 545 154 545 132 582.5 c 128,-1,26
 110 620 110 620 110 665 c 0,27,28
 110 701 110 701 124.5 732.5 c 128,-1,29
 139 764 139 764 165 787 c 1,30,-1
 236 993 l 1,31,-1
 436 993 l 1,32,-1
 334 817 l 1,33,34
 380 799 380 799 408.5 757.5 c 128,-1,35
 437 716 437 716 437 665 c 0,36,37
 437 621 437 621 415.5 583.5 c 128,-1,38
 394 546 394 546 358 525 c 1,39,0
 440 512 440 512 476.5 464 c 128,-1,1
316.5 622.5 m 128,-1,41
 334 640 334 640 334 665 c 256,42,43
 334 690 334 690 316.5 707.5 c 128,-1,44
 299 725 299 725 274 725 c 256,45,46
 249 725 249 725 231.5 708 c 128,-1,47
 214 691 214 691 214 665 c 0,48,49
 214 640 214 640 231.5 622.5 c 128,-1,50
 249 605 249 605 274 605 c 256,51,40
 299 605 299 605 316.5 622.5 c 128,-1,41
317.5 135 m 128,-1,53
 347 161 347 161 347 198 c 2,54,-1
 347 234 l 1,55,-1
 317 234 l 2,56,57
 179 234 179 234 179 165 c 0,58,59
 179 139 179 139 197 124 c 128,-1,60
 215 109 215 109 246 109 c 0,61,52
 288 109 288 109 317.5 135 c 128,-1,53
EndSplineSet
EndChar

StartChar: ae
Encoding: 230 230 226
Width: 892
GlyphClass: 2
Flags: W
AnchorPoint: "Anchor-6" 448 520 basechar 0
AnchorPoint: "Anchor-4" 448 0 basechar 0
LayerCount: 2
Fore
SplineSet
858 205 m 1,1,-1
 511 205 l 1,2,3
 516 156 516 156 549.5 133 c 128,-1,4
 583 110 583 110 651 110 c 0,5,6
 730 110 730 110 799 137 c 1,7,-1
 823 23 l 1,8,9
 788 7 788 7 739.5 -1.5 c 128,-1,10
 691 -10 691 -10 641 -10 c 0,11,12
 502 -10 502 -10 428 55 c 1,13,14
 355 -10 355 -10 233 -10 c 0,15,16
 131 -10 131 -10 78.5 30 c 128,-1,17
 26 70 26 70 26 148 c 0,18,19
 26 237 26 237 102 285 c 128,-1,20
 178 333 178 333 317 333 c 2,21,-1
 347 333 l 1,22,23
 346 377 346 377 330.5 392 c 128,-1,24
 315 407 315 407 271 407 c 0,25,26
 177 407 177 407 78 363 c 1,27,-1
 42 481 l 1,28,29
 95 505 95 505 157.5 517.5 c 128,-1,30
 220 530 220 530 284 530 c 0,31,32
 399 530 399 530 451 487 c 1,33,34
 516 530 516 530 609 530 c 0,35,36
 730 530 730 530 796 461 c 128,-1,37
 862 392 862 392 862 267 c 0,38,0
 862 227 862 227 858 205 c 1,1,-1
540 391 m 128,-1,40
 516 365 516 365 511 310 c 1,41,-1
 706 310 l 1,42,43
 701 365 701 365 677.5 391 c 128,-1,44
 654 417 654 417 609 417 c 256,45,39
 564 417 564 417 540 391 c 128,-1,40
317.5 135 m 128,-1,47
 347 161 347 161 347 198 c 2,48,-1
 347 234 l 1,49,-1
 317 234 l 2,50,51
 179 234 179 234 179 165 c 0,52,53
 179 139 179 139 197 124 c 128,-1,54
 215 109 215 109 246 109 c 0,55,46
 288 109 288 109 317.5 135 c 128,-1,47
EndSplineSet
EndChar

StartChar: b
Encoding: 98 98 228
Width: 624
Flags: W
LayerCount: 2
Fore
SplineSet
537 460.5 m 128,-1,1
 588 391 588 391 588 260 c 256,2,3
 588 129 588 129 537 59.5 c 128,-1,4
 486 -10 486 -10 391 -10 c 0,5,6
 294 -10 294 -10 225 64 c 1,7,-1
 223 64 l 1,8,-1
 222 0 l 1,9,-1
 63 0 l 1,10,-1
 63 750 l 1,11,-1
 230 750 l 1,12,-1
 230 456 l 1,13,-1
 232 456 l 1,14,15
 294 530 294 530 391 530 c 0,16,0
 486 530 486 530 537 460.5 c 128,-1,1
399.5 156.5 m 128,-1,18
 424 193 424 193 424 260 c 256,19,20
 424 327 424 327 399.5 363.5 c 128,-1,21
 375 400 375 400 330 400 c 0,22,23
 286 400 286 400 258 365.5 c 128,-1,24
 230 331 230 331 230 274 c 2,25,-1
 230 246 l 2,26,27
 230 189 230 189 258 154.5 c 128,-1,28
 286 120 286 120 330 120 c 0,29,17
 375 120 375 120 399.5 156.5 c 128,-1,18
EndSplineSet
EndChar

StartChar: c
Encoding: 99 99 229
Width: 545
GlyphClass: 2
Flags: W
AnchorPoint: "Anchor-6" 290 520 basechar 0
AnchorPoint: "Anchor-4" 290 0 basechar 0
LayerCount: 2
Fore
SplineSet
107.5 60 m 128,-1,1
 32 130 32 130 32 260 c 256,2,3
 32 390 32 390 107.5 460 c 128,-1,4
 183 530 183 530 322 530 c 0,5,6
 417 530 417 530 497 491 c 1,7,-1
 455 375 l 1,8,9
 394 407 394 407 333 407 c 0,10,11
 268 407 268 407 234.5 369.5 c 128,-1,12
 201 332 201 332 201 260 c 256,13,14
 201 188 201 188 234.5 150.5 c 128,-1,15
 268 113 268 113 333 113 c 0,16,17
 394 113 394 113 455 145 c 1,18,-1
 497 29 l 1,19,20
 418 -10 418 -10 322 -10 c 0,21,0
 183 -10 183 -10 107.5 60 c 128,-1,1
EndSplineSet
EndChar

StartChar: ccedilla
Encoding: 231 231 232
Width: 545
GlyphClass: 2
Flags: W
AnchorPoint: "Anchor-6" 290 520 basechar 0
AnchorPoint: "Anchor-4" 290 0 basechar 0
LayerCount: 2
Fore
SplineSet
497 29 m 1,0,1
 461 11 461 11 424 2 c 1,2,3
 463 -45 463 -45 463 -92 c 0,4,5
 463 -153 463 -153 411.5 -186 c 128,-1,6
 360 -219 360 -219 266 -219 c 0,7,8
 197 -219 197 -219 144 -199 c 1,9,-1
 160 -80 l 1,10,11
 205 -100 205 -100 255 -100 c 0,12,13
 282 -100 282 -100 296.5 -92 c 128,-1,14
 311 -84 311 -84 311 -69 c 0,15,16
 311 -36 311 -36 242 -3 c 1,17,18
 140 16 140 16 86 83.5 c 128,-1,19
 32 151 32 151 32 260 c 0,20,21
 32 390 32 390 107.5 460 c 128,-1,22
 183 530 183 530 322 530 c 0,23,24
 417 530 417 530 497 491 c 1,25,-1
 455 375 l 1,26,27
 394 407 394 407 333 407 c 0,28,29
 268 407 268 407 234.5 369.5 c 128,-1,30
 201 332 201 332 201 260 c 256,31,32
 201 188 201 188 234.5 150.5 c 128,-1,33
 268 113 268 113 333 113 c 0,34,35
 394 113 394 113 455 145 c 1,36,-1
 497 29 l 1,0,1
EndSplineSet
EndChar

StartChar: d
Encoding: 100 100 235
Width: 624
Flags: W
LayerCount: 2
Fore
SplineSet
561 750 m 1,0,-1
 561 0 l 1,1,-1
 402 0 l 1,2,-1
 401 64 l 1,3,-1
 399 64 l 1,4,5
 330 -10 330 -10 233 -10 c 0,6,7
 138 -10 138 -10 87 59.5 c 128,-1,8
 36 129 36 129 36 260 c 256,9,10
 36 391 36 391 87 460.5 c 128,-1,11
 138 530 138 530 233 530 c 0,12,13
 330 530 330 530 392 456 c 1,14,-1
 394 456 l 1,15,-1
 394 750 l 1,16,-1
 561 750 l 1,0,-1
366 154.5 m 128,-1,18
 394 189 394 189 394 246 c 2,19,-1
 394 274 l 2,20,21
 394 331 394 331 366 365.5 c 128,-1,22
 338 400 338 400 294 400 c 0,23,24
 249 400 249 400 224.5 363.5 c 128,-1,25
 200 327 200 327 200 260 c 256,26,27
 200 193 200 193 224.5 156.5 c 128,-1,28
 249 120 249 120 294 120 c 0,29,17
 338 120 338 120 366 154.5 c 128,-1,18
EndSplineSet
EndChar

StartChar: eth
Encoding: 240 240 236
Width: 611
Flags: W
LayerCount: 2
Fore
SplineSet
569 274 m 0,1,2
 569 -10 569 -10 300 -10 c 0,3,4
 175 -10 175 -10 103.5 58.5 c 128,-1,5
 32 127 32 127 32 248 c 0,6,7
 32 358 32 358 96 419 c 128,-1,8
 160 480 160 480 275 480 c 0,9,10
 339 480 339 480 381 458 c 1,11,-1
 383 459 l 1,12,13
 374 514 374 514 337 561 c 1,14,-1
 122 475 l 1,15,-1
 73 590 l 1,16,-1
 215 647 l 1,17,18
 160 669 160 669 94 673 c 1,19,-1
 127 790 l 1,20,21
 274 780 274 780 375 710 c 1,22,-1
 513 765 l 1,23,-1
 562 650 l 1,24,-1
 473 615 l 1,25,0
 569 484 569 484 569 274 c 0,1,2
403 248 m 0,27,28
 403 315 403 315 378 347.5 c 128,-1,29
 353 380 353 380 300 380 c 256,30,31
 247 380 247 380 222 347.5 c 128,-1,32
 197 315 197 315 197 248 c 0,33,34
 197 110 197 110 300 110 c 256,35,26
 403 110 403 110 403 248 c 0,27,28
EndSplineSet
EndChar

StartChar: dcroat
Encoding: 273 273 238
Width: 687
Flags: W
LayerCount: 2
Fore
SplineSet
664 563 m 1,0,-1
 561 563 l 1,1,-1
 561 0 l 1,2,-1
 402 0 l 1,3,-1
 401 64 l 1,4,-1
 399 64 l 1,5,6
 330 -10 330 -10 233 -10 c 0,7,8
 138 -10 138 -10 87 59.5 c 128,-1,9
 36 129 36 129 36 260 c 256,10,11
 36 391 36 391 87 460.5 c 128,-1,12
 138 530 138 530 233 530 c 0,13,14
 330 530 330 530 392 456 c 1,15,-1
 394 456 l 1,16,-1
 394 563 l 1,17,-1
 244 563 l 1,18,-1
 244 687 l 1,19,-1
 394 687 l 1,20,-1
 394 750 l 1,21,-1
 561 750 l 1,22,-1
 561 687 l 1,23,-1
 664 687 l 1,24,-1
 664 563 l 1,0,-1
366 154.5 m 128,-1,26
 394 189 394 189 394 246 c 2,27,-1
 394 274 l 2,28,29
 394 331 394 331 366 365.5 c 128,-1,30
 338 400 338 400 294 400 c 0,31,32
 249 400 249 400 224.5 363.5 c 128,-1,33
 200 327 200 327 200 260 c 256,34,35
 200 193 200 193 224.5 156.5 c 128,-1,36
 249 120 249 120 294 120 c 0,37,25
 338 120 338 120 366 154.5 c 128,-1,26
EndSplineSet
EndChar

StartChar: e
Encoding: 101 101 240
Width: 577
GlyphClass: 2
Flags: W
AnchorPoint: "Anchor-6" 294 520 basechar 0
AnchorPoint: "Anchor-5" 511 21 basechar 0
AnchorPoint: "Anchor-4" 294 0 basechar 0
LayerCount: 2
Fore
SplineSet
544 205 m 1,1,-1
 196 205 l 1,2,3
 202 156 202 156 237 133 c 128,-1,4
 272 110 272 110 341 110 c 0,5,6
 417 110 417 110 485 135 c 1,7,-1
 510 20 l 1,8,9
 475 6 475 6 427 -2 c 128,-1,10
 379 -10 379 -10 331 -10 c 0,11,12
 186 -10 186 -10 109 59.5 c 128,-1,13
 32 129 32 129 32 260 c 0,14,15
 32 387 32 387 101.5 458.5 c 128,-1,16
 171 530 171 530 295 530 c 0,17,18
 415 530 415 530 481 461 c 128,-1,19
 547 392 547 392 547 267 c 0,20,0
 547 222 547 222 544 205 c 1,1,-1
225 391 m 128,-1,22
 201 365 201 365 196 310 c 1,23,-1
 391 310 l 1,24,25
 386 365 386 365 362.5 391 c 128,-1,26
 339 417 339 417 295 417 c 0,27,21
 249 417 249 417 225 391 c 128,-1,22
EndSplineSet
EndChar

StartChar: uni1EBF
Encoding: 7871 7871 245
Width: 577
GlyphClass: 2
Flags: W
AnchorPoint: "Anchor-6" 294 520 basechar 0
AnchorPoint: "Anchor-5" 511 21 basechar 0
AnchorPoint: "Anchor-4" 294 0 basechar 0
LayerCount: 2
Fore
SplineSet
672 950 m 1,0,-1
 550 740 l 1,1,-1
 443 740 l 1,2,-1
 548 560 l 1,3,-1
 364 560 l 1,4,-1
 295 707 l 1,5,-1
 293 707 l 1,6,-1
 224 560 l 1,7,-1
 40 560 l 1,8,-1
 162 770 l 1,9,-1
 410 770 l 1,10,-1
 472 950 l 1,11,-1
 672 950 l 1,0,-1
481 461 m 128,-1,13
 547 392 547 392 547 267 c 0,14,15
 547 222 547 222 544 205 c 1,16,-1
 196 205 l 1,17,18
 202 156 202 156 237 133 c 128,-1,19
 272 110 272 110 341 110 c 0,20,21
 417 110 417 110 485 135 c 1,22,-1
 510 20 l 1,23,24
 475 6 475 6 427 -2 c 128,-1,25
 379 -10 379 -10 331 -10 c 0,26,27
 186 -10 186 -10 109 59.5 c 128,-1,28
 32 129 32 129 32 260 c 0,29,30
 32 387 32 387 101.5 458.5 c 128,-1,31
 171 530 171 530 295 530 c 0,32,12
 415 530 415 530 481 461 c 128,-1,13
225 391 m 128,-1,34
 201 365 201 365 196 310 c 1,35,-1
 391 310 l 1,36,37
 386 365 386 365 362.5 391 c 128,-1,38
 339 417 339 417 295 417 c 0,39,33
 249 417 249 417 225 391 c 128,-1,34
EndSplineSet
EndChar

StartChar: uni1EC1
Encoding: 7873 7873 247
Width: 577
GlyphClass: 2
Flags: W
AnchorPoint: "Anchor-6" 294 520 basechar 0
AnchorPoint: "Anchor-5" 511 21 basechar 0
AnchorPoint: "Anchor-4" 294 0 basechar 0
LayerCount: 2
Fore
SplineSet
145 740 m 1,0,-1
 38 740 l 1,1,-1
 -84 950 l 1,2,-1
 116 950 l 1,3,-1
 178 770 l 1,4,-1
 426 770 l 1,5,-1
 548 560 l 1,6,-1
 364 560 l 1,7,-1
 295 707 l 1,8,-1
 293 707 l 1,9,-1
 224 560 l 1,10,-1
 40 560 l 1,11,-1
 145 740 l 1,0,-1
481 461 m 128,-1,13
 547 392 547 392 547 267 c 0,14,15
 547 222 547 222 544 205 c 1,16,-1
 196 205 l 1,17,18
 202 156 202 156 237 133 c 128,-1,19
 272 110 272 110 341 110 c 0,20,21
 417 110 417 110 485 135 c 1,22,-1
 510 20 l 1,23,24
 475 6 475 6 427 -2 c 128,-1,25
 379 -10 379 -10 331 -10 c 0,26,27
 186 -10 186 -10 109 59.5 c 128,-1,28
 32 129 32 129 32 260 c 0,29,30
 32 387 32 387 101.5 458.5 c 128,-1,31
 171 530 171 530 295 530 c 0,32,12
 415 530 415 530 481 461 c 128,-1,13
225 391 m 128,-1,34
 201 365 201 365 196 310 c 1,35,-1
 391 310 l 1,36,37
 386 365 386 365 362.5 391 c 128,-1,38
 339 417 339 417 295 417 c 0,39,33
 249 417 249 417 225 391 c 128,-1,34
EndSplineSet
EndChar

StartChar: uni1EC3
Encoding: 7875 7875 248
Width: 577
GlyphClass: 2
Flags: W
AnchorPoint: "Anchor-6" 387 950 basechar 0
AnchorPoint: "Anchor-5" 511 21 basechar 0
AnchorPoint: "Anchor-4" 294 0 basechar 0
LayerCount: 2
Fore
SplineSet
443 740 m 1,0,-1
 548 560 l 1,1,-1
 364 560 l 1,2,-1
 295 707 l 1,3,-1
 293 707 l 1,4,-1
 224 560 l 1,5,-1
 40 560 l 1,6,-1
 162 770 l 1,7,-1
 411 770 l 1,8,9
 414 788 414 788 414 802 c 0,10,11
 414 821 414 821 403 827.5 c 128,-1,12
 392 834 392 834 362 834 c 0,13,14
 292 834 292 834 217 811 c 1,15,-1
 204 930 l 1,16,17
 245 939 245 939 294 944.5 c 128,-1,18
 343 950 343 950 387 950 c 0,19,20
 459 950 459 950 498 942 c 128,-1,21
 537 934 537 934 553.5 914.5 c 128,-1,22
 570 895 570 895 570 859 c 0,23,24
 570 832 570 832 563.5 798.5 c 128,-1,25
 557 765 557 765 547 740 c 1,26,-1
 443 740 l 1,0,-1
481 461 m 128,-1,28
 547 392 547 392 547 267 c 0,29,30
 547 222 547 222 544 205 c 1,31,-1
 196 205 l 1,32,33
 202 156 202 156 237 133 c 128,-1,34
 272 110 272 110 341 110 c 0,35,36
 417 110 417 110 485 135 c 1,37,-1
 510 20 l 1,38,39
 475 6 475 6 427 -2 c 128,-1,40
 379 -10 379 -10 331 -10 c 0,41,42
 186 -10 186 -10 109 59.5 c 128,-1,43
 32 129 32 129 32 260 c 0,44,45
 32 387 32 387 101.5 458.5 c 128,-1,46
 171 530 171 530 295 530 c 0,47,27
 415 530 415 530 481 461 c 128,-1,28
225 391 m 128,-1,49
 201 365 201 365 196 310 c 1,50,-1
 391 310 l 1,51,52
 386 365 386 365 362.5 391 c 128,-1,53
 339 417 339 417 295 417 c 0,54,48
 249 417 249 417 225 391 c 128,-1,49
EndSplineSet
EndChar

StartChar: eogonek
Encoding: 281 281 258
Width: 577
GlyphClass: 2
Flags: W
AnchorPoint: "Anchor-6" 294 520 basechar 0
AnchorPoint: "Anchor-5" 511 21 basechar 0
AnchorPoint: "Anchor-4" 294 0 basechar 0
LayerCount: 2
Fore
SplineSet
602 -178 m 1,0,1
 549 -198 549 -198 480 -198 c 0,2,3
 386 -198 386 -198 334.5 -165 c 128,-1,4
 283 -132 283 -132 283 -71 c 0,5,6
 283 -38 283 -38 299 -9 c 1,7,8
 169 -2 169 -2 100.5 67.5 c 128,-1,9
 32 137 32 137 32 260 c 0,10,11
 32 387 32 387 101.5 458.5 c 128,-1,12
 171 530 171 530 295 530 c 0,13,14
 415 530 415 530 481 461 c 128,-1,15
 547 392 547 392 547 267 c 0,16,17
 547 222 547 222 544 205 c 1,18,-1
 196 205 l 1,19,20
 202 156 202 156 237 133 c 128,-1,21
 272 110 272 110 341 110 c 0,22,23
 417 110 417 110 485 135 c 1,24,-1
 510 21 l 1,25,-1
 511 21 l 1,26,27
 511 21 511 21 510.5 20.5 c 128,-1,28
 510 20 510 20 510 20 c 2,29,30
 506 18 506 18 504 18 c 0,31,32
 435 -15 435 -15 435 -48 c 0,33,34
 435 -63 435 -63 449.5 -71 c 128,-1,35
 464 -79 464 -79 491 -79 c 0,36,37
 541 -79 541 -79 586 -59 c 1,38,-1
 602 -178 l 1,0,1
225 391 m 128,-1,40
 201 365 201 365 196 310 c 1,41,-1
 391 310 l 1,42,43
 386 365 386 365 362.5 391 c 128,-1,44
 339 417 339 417 295 417 c 0,45,39
 249 417 249 417 225 391 c 128,-1,40
EndSplineSet
EndChar

StartChar: uni0259
Encoding: 601 601 260
Width: 578
GlyphClass: 2
Flags: W
AnchorPoint: "Anchor-6" 283 520 basechar 0
AnchorPoint: "Anchor-5" 67 499 basechar 0
AnchorPoint: "Anchor-4" 283 0 basechar 0
LayerCount: 2
Fore
SplineSet
468 460.5 m 128,-1,1
 545 391 545 391 545 260 c 0,2,3
 545 133 545 133 475.5 61.5 c 128,-1,4
 406 -10 406 -10 283 -10 c 0,5,6
 162 -10 162 -10 96 59 c 128,-1,7
 30 128 30 128 30 253 c 0,8,9
 30 282 30 282 33 315 c 1,10,-1
 381 315 l 1,11,12
 375 365 375 365 340.5 387.5 c 128,-1,13
 306 410 306 410 236 410 c 0,14,15
 160 410 160 410 92 385 c 1,16,-1
 67 500 l 1,17,18
 103 514 103 514 151 522 c 128,-1,19
 199 530 199 530 246 530 c 0,20,0
 391 530 391 530 468 460.5 c 128,-1,1
352 129 m 128,-1,22
 376 155 376 155 381 210 c 1,23,-1
 186 210 l 1,24,25
 191 155 191 155 214.5 129 c 128,-1,26
 238 103 238 103 283 103 c 256,27,21
 328 103 328 103 352 129 c 128,-1,22
EndSplineSet
EndChar

StartChar: f
Encoding: 102 102 261
Width: 493
Flags: W
LayerCount: 2
Fore
SplineSet
19 397 m 1,0,-1
 19 520 l 1,1,-1
 145 520 l 1,2,-1
 145 552 l 2,3,4
 145 654 145 654 196 707 c 128,-1,5
 247 760 247 760 346 760 c 0,6,7
 403 760 403 760 473 745 c 1,8,-1
 451 622 l 1,9,10
 412 637 412 637 375 637 c 0,11,12
 340 637 340 637 327 619 c 128,-1,13
 314 601 314 601 314 552 c 2,14,-1
 314 520 l 1,15,-1
 464 520 l 1,16,-1
 464 397 l 1,17,-1
 314 397 l 1,18,-1
 314 0 l 1,19,-1
 145 0 l 1,20,-1
 145 397 l 1,21,-1
 19 397 l 1,0,-1
EndSplineSet
EndChar

StartChar: g
Encoding: 103 103 262
Width: 624
GlyphClass: 2
Flags: W
AnchorPoint: "Anchor-6" 312 520 basechar 0
AnchorPoint: "Anchor-4" 312 -140 basechar 0
LayerCount: 2
Fore
SplineSet
560 520 m 1,0,-1
 560 55 l 2,1,2
 560 -82 560 -82 485 -156 c 128,-1,3
 410 -230 410 -230 271 -230 c 0,4,5
 166 -230 166 -230 51 -190 c 1,6,-1
 83 -75 l 1,7,8
 185 -107 185 -107 246 -107 c 0,9,10
 394 -107 394 -107 394 55 c 2,11,-1
 394 64 l 1,12,-1
 392 64 l 1,13,14
 330 -10 330 -10 233 -10 c 0,15,16
 137 -10 137 -10 86 59.5 c 128,-1,17
 35 129 35 129 35 260 c 256,18,19
 35 391 35 391 86 460.5 c 128,-1,20
 137 530 137 530 233 530 c 0,21,22
 330 530 330 530 398 456 c 1,23,-1
 400 456 l 1,24,-1
 402 520 l 1,25,-1
 560 520 l 1,0,-1
366 154.5 m 128,-1,27
 394 189 394 189 394 246 c 2,28,-1
 394 274 l 2,29,30
 394 331 394 331 366 365.5 c 128,-1,31
 338 400 338 400 294 400 c 0,32,33
 248 400 248 400 223.5 363.5 c 128,-1,34
 199 327 199 327 199 260 c 256,35,36
 199 193 199 193 223.5 156.5 c 128,-1,37
 248 120 248 120 294 120 c 0,38,26
 338 120 338 120 366 154.5 c 128,-1,27
EndSplineSet
EndChar

StartChar: h
Encoding: 104 104 268
Width: 620
GlyphClass: 2
Flags: W
AnchorPoint: "Anchor-6" 303 750 basechar 0
AnchorPoint: "Anchor-4" 303 0 basechar 0
LayerCount: 2
Fore
SplineSet
523 480 m 128,-1,1
 563 430 563 430 563 320 c 2,2,-1
 563 0 l 1,3,-1
 397 0 l 1,4,-1
 397 287 l 2,5,6
 397 343 397 343 381.5 368 c 128,-1,7
 366 393 366 393 332 393 c 0,8,9
 291 393 291 393 260.5 362 c 128,-1,10
 230 331 230 331 230 288 c 2,11,-1
 230 0 l 1,12,-1
 63 0 l 1,13,-1
 63 750 l 1,14,-1
 230 750 l 1,15,-1
 230 455 l 1,16,-1
 232 455 l 1,17,18
 265 493 265 493 304.5 511.5 c 128,-1,19
 344 530 344 530 395 530 c 0,20,0
 483 530 483 530 523 480 c 128,-1,1
EndSplineSet
EndChar

StartChar: hbar
Encoding: 295 295 269
Width: 684
GlyphClass: 2
Flags: W
AnchorPoint: "Anchor-6" 367 750 basechar 0
AnchorPoint: "Anchor-4" 367 0 basechar 0
LayerCount: 2
Fore
SplineSet
586.5 479.5 m 128,-1,1
 627 429 627 429 627 320 c 2,2,-1
 627 0 l 1,3,-1
 460 0 l 1,4,-1
 460 287 l 2,5,6
 460 343 460 343 444.5 368 c 128,-1,7
 429 393 429 393 395 393 c 0,8,9
 354 393 354 393 323.5 362 c 128,-1,10
 293 331 293 331 293 288 c 2,11,-1
 293 0 l 1,12,-1
 127 0 l 1,13,-1
 127 563 l 1,14,-1
 23 563 l 1,15,-1
 23 687 l 1,16,-1
 127 687 l 1,17,-1
 127 750 l 1,18,-1
 293 750 l 1,19,-1
 293 687 l 1,20,-1
 443 687 l 1,21,-1
 443 563 l 1,22,-1
 293 563 l 1,23,-1
 293 455 l 1,24,-1
 295 455 l 1,25,26
 328 493 328 493 367.5 511.5 c 128,-1,27
 407 530 407 530 458 530 c 0,28,0
 546 530 546 530 586.5 479.5 c 128,-1,1
EndSplineSet
EndChar

StartChar: i
Encoding: 105 105 271
Width: 309
GlyphClass: 2
Flags: W
AnchorPoint: "Anchor-6" 155 520 basechar 0
AnchorPoint: "Anchor-5" 240 0 basechar 0
AnchorPoint: "Anchor-4" 155 0 basechar 0
LayerCount: 2
Fore
SplineSet
70 747 m 1,0,-1
 240 747 l 1,1,-1
 240 603 l 1,2,-1
 70 603 l 1,3,-1
 70 747 l 1,0,-1
70 520 m 1,4,-1
 240 520 l 1,5,-1
 240 0 l 1,6,-1
 70 0 l 1,7,-1
 70 520 l 1,4,-1
EndSplineSet
Substitution2: "Single Substitution lookup 19 subtable" dotlessi
Substitution2: "'locl' Localized Forms in Latin lookup 3 subtable" i.loclTRK
Substitution2: "'aalt' Access All Alternates in Latin lookup 0 subtable" i.loclTRK
EndChar

StartChar: dotlessi
Encoding: 305 305 272
Width: 309
GlyphClass: 2
Flags: W
AnchorPoint: "Anchor-6" 155 520 basechar 0
AnchorPoint: "Anchor-5" 240 0 basechar 0
AnchorPoint: "Anchor-4" 155 0 basechar 0
LayerCount: 2
Fore
SplineSet
70 520 m 1,0,-1
 240 520 l 1,1,-1
 240 0 l 1,2,-1
 70 0 l 1,3,-1
 70 520 l 1,0,-1
EndSplineSet
EndChar

StartChar: iogonek
Encoding: 303 303 284
Width: 309
GlyphClass: 2
Flags: W
AnchorPoint: "Anchor-6" 155 749 basechar 0
AnchorPoint: "Anchor-5" 240 0 basechar 0
AnchorPoint: "Anchor-4" 155 0 basechar 0
LayerCount: 2
Fore
SplineSet
239 749 m 1,0,-1
 239 581 l 1,1,-1
 71 581 l 1,2,-1
 71 749 l 1,3,-1
 239 749 l 1,0,-1
331 -199 m 1,4,5
 278 -219 278 -219 209 -219 c 0,6,7
 115 -219 115 -219 63.5 -186 c 128,-1,8
 12 -153 12 -153 12 -92 c 0,9,10
 12 -62 12 -62 26 -34.5 c 128,-1,11
 40 -7 40 -7 70 23 c 1,12,-1
 70 520 l 1,13,-1
 240 520 l 1,14,-1
 240 0 l 1,15,16
 164 -34 164 -34 164 -69 c 0,17,18
 164 -84 164 -84 178.5 -92 c 128,-1,19
 193 -100 193 -100 220 -100 c 0,20,21
 270 -100 270 -100 315 -80 c 1,22,-1
 331 -199 l 1,4,5
EndSplineSet
EndChar

StartChar: j
Encoding: 106 106 286
Width: 359
GlyphClass: 2
Flags: W
AnchorPoint: "Anchor-6" 180 520 basechar 0
AnchorPoint: "Anchor-4" 180 -140 basechar 0
LayerCount: 2
Fore
SplineSet
119 747 m 1,0,-1
 289 747 l 1,1,-1
 289 603 l 1,2,-1
 119 603 l 1,3,-1
 119 747 l 1,0,-1
58 -94 m 128,-1,5
 94 -85 94 -85 106.5 -57.5 c 128,-1,6
 119 -30 119 -30 119 33 c 2,7,-1
 119 520 l 1,8,-1
 289 520 l 1,9,-1
 289 33 l 2,10,11
 289 -71 289 -71 258 -127 c 128,-1,12
 227 -183 227 -183 154 -206.5 c 128,-1,13
 81 -230 81 -230 -54 -230 c 1,14,-1
 -62 -103 l 1,15,4
 22 -103 22 -103 58 -94 c 128,-1,5
EndSplineSet
Substitution2: "Single Substitution lookup 19 subtable" uni0237
EndChar

StartChar: uni0237
Encoding: 567 567 287
Width: 359
GlyphClass: 2
Flags: W
AnchorPoint: "Anchor-6" 180 520 basechar 0
AnchorPoint: "Anchor-4" 180 -140 basechar 0
LayerCount: 2
Fore
SplineSet
58 -94 m 128,-1,1
 94 -85 94 -85 106.5 -57.5 c 128,-1,2
 119 -30 119 -30 119 33 c 2,3,-1
 119 520 l 1,4,-1
 289 520 l 1,5,-1
 289 33 l 2,6,7
 289 -71 289 -71 258 -127 c 128,-1,8
 227 -183 227 -183 154 -206.5 c 128,-1,9
 81 -230 81 -230 -54 -230 c 1,10,-1
 -62 -103 l 1,11,0
 22 -103 22 -103 58 -94 c 128,-1,1
EndSplineSet
EndChar

StartChar: k
Encoding: 107 107 289
Width: 611
GlyphClass: 2
Flags: W
AnchorPoint: "Anchor-6" 287 750 basechar 0
AnchorPoint: "Anchor-4" 287 0 basechar 0
LayerCount: 2
Fore
SplineSet
63 750 m 1,0,-1
 230 750 l 1,1,-1
 230 318 l 1,2,-1
 232 318 l 1,3,-1
 392 520 l 1,4,-1
 588 520 l 1,5,-1
 371 270 l 1,6,-1
 595 0 l 1,7,-1
 399 0 l 1,8,-1
 232 221 l 1,9,-1
 230 221 l 1,10,-1
 230 0 l 1,11,-1
 63 0 l 1,12,-1
 63 750 l 1,0,-1
EndSplineSet
EndChar

StartChar: kgreenlandic
Encoding: 312 312 291
Width: 611
GlyphClass: 2
Flags: W
AnchorPoint: "Anchor-6" 287 520 basechar 0
AnchorPoint: "Anchor-4" 287 0 basechar 0
LayerCount: 2
Fore
SplineSet
63 520 m 1,0,-1
 230 520 l 1,1,-1
 230 318 l 1,2,-1
 232 318 l 1,3,-1
 392 520 l 1,4,-1
 588 520 l 1,5,-1
 371 270 l 1,6,-1
 595 0 l 1,7,-1
 399 0 l 1,8,-1
 232 221 l 1,9,-1
 230 221 l 1,10,-1
 230 0 l 1,11,-1
 63 0 l 1,12,-1
 63 520 l 1,0,-1
EndSplineSet
EndChar

StartChar: l
Encoding: 108 108 292
Width: 309
GlyphClass: 2
Flags: W
AnchorPoint: "Anchor-7" 289 750 basechar 0
AnchorPoint: "Anchor-6" 155 750 basechar 0
AnchorPoint: "Anchor-4" 155 0 basechar 0
LayerCount: 2
Fore
SplineSet
70 750 m 1,0,-1
 240 750 l 1,1,-1
 240 0 l 1,2,-1
 70 0 l 1,3,-1
 70 750 l 1,0,-1
EndSplineSet
EndChar

StartChar: lslash
Encoding: 322 322 298
Width: 510
GlyphClass: 2
Flags: W
AnchorPoint: "Anchor-7" 390 750 basechar 0
AnchorPoint: "Anchor-6" 255 750 basechar 0
AnchorPoint: "Anchor-4" 255 0 basechar 0
LayerCount: 2
Fore
SplineSet
502 398 m 1,0,-1
 340 333 l 1,1,-1
 340 0 l 1,2,-1
 170 0 l 1,3,-1
 170 264 l 1,4,-1
 56 218 l 1,5,-1
 8 332 l 1,6,-1
 170 397 l 1,7,-1
 170 750 l 1,8,-1
 340 750 l 1,9,-1
 340 466 l 1,10,-1
 454 512 l 1,11,-1
 502 398 l 1,0,-1
EndSplineSet
EndChar

StartChar: m
Encoding: 109 109 299
Width: 864
Flags: W
LayerCount: 2
Fore
SplineSet
771.5 480 m 128,-1,1
 807 430 807 430 807 320 c 2,2,-1
 807 0 l 1,3,-1
 643 0 l 1,4,-1
 643 287 l 2,5,6
 643 342 643 342 631 367.5 c 128,-1,7
 619 393 619 393 592 393 c 0,8,9
 561 393 561 393 539 363 c 128,-1,10
 517 333 517 333 517 290 c 2,11,-1
 517 0 l 1,12,-1
 353 0 l 1,13,-1
 353 287 l 2,14,15
 353 342 353 342 341 367.5 c 128,-1,16
 329 393 329 393 302 393 c 0,17,18
 270 393 270 393 248.5 362 c 128,-1,19
 227 331 227 331 227 285 c 2,20,-1
 227 0 l 1,21,-1
 63 0 l 1,22,-1
 63 520 l 1,23,-1
 218 520 l 1,24,-1
 220 456 l 1,25,-1
 222 456 l 1,26,27
 251 494 251 494 286.5 512 c 128,-1,28
 322 530 322 530 368 530 c 0,29,30
 462 530 462 530 495 456 c 1,31,-1
 496 456 l 1,32,33
 561 530 561 530 658 530 c 0,34,0
 736 530 736 530 771.5 480 c 128,-1,1
EndSplineSet
EndChar

StartChar: n
Encoding: 110 110 300
Width: 620
GlyphClass: 2
Flags: W
AnchorPoint: "Anchor-6" 310 520 basechar 0
AnchorPoint: "Anchor-4" 310 0 basechar 0
LayerCount: 2
Fore
SplineSet
522 479.5 m 128,-1,1
 563 429 563 429 563 320 c 2,2,-1
 563 0 l 1,3,-1
 397 0 l 1,4,-1
 397 287 l 2,5,6
 397 342 397 342 381 367.5 c 128,-1,7
 365 393 365 393 330 393 c 0,8,9
 289 393 289 393 259.5 362 c 128,-1,10
 230 331 230 331 230 288 c 2,11,-1
 230 0 l 1,12,-1
 63 0 l 1,13,-1
 63 520 l 1,14,-1
 222 520 l 1,15,-1
 223 455 l 1,16,-1
 225 455 l 1,17,18
 259 493 259 493 300 511.5 c 128,-1,19
 341 530 341 530 393 530 c 0,20,0
 481 530 481 530 522 479.5 c 128,-1,1
EndSplineSet
EndChar

StartChar: eng
Encoding: 331 331 304
Width: 620
GlyphClass: 2
Flags: W
AnchorPoint: "Anchor-6" 310 520 basechar 0
AnchorPoint: "Anchor-4" 310 0 basechar 0
LayerCount: 2
Fore
SplineSet
522 479.5 m 128,-1,1
 563 429 563 429 563 320 c 2,2,-1
 563 -2 l 2,3,4
 563 -84 563 -84 543.5 -133 c 128,-1,5
 524 -182 524 -182 480.5 -204 c 128,-1,6
 437 -226 437 -226 363 -226 c 0,7,8
 296 -226 296 -226 228 -211 c 1,9,-1
 247 -77 l 1,10,11
 288 -89 288 -89 327 -89 c 256,12,13
 366 -89 366 -89 381.5 -70 c 128,-1,14
 397 -51 397 -51 397 -2 c 2,15,-1
 397 287 l 2,16,17
 397 342 397 342 381 367.5 c 128,-1,18
 365 393 365 393 330 393 c 0,19,20
 289 393 289 393 259.5 362 c 128,-1,21
 230 331 230 331 230 288 c 2,22,-1
 230 0 l 1,23,-1
 63 0 l 1,24,-1
 63 520 l 1,25,-1
 222 520 l 1,26,-1
 223 455 l 1,27,-1
 225 455 l 1,28,29
 259 493 259 493 300 511.5 c 128,-1,30
 341 530 341 530 393 530 c 0,31,0
 481 530 481 530 522 479.5 c 128,-1,1
EndSplineSet
EndChar

StartChar: o
Encoding: 111 111 307
Width: 599
GlyphClass: 2
Flags: W
AnchorPoint: "Anchor-7" 474 480 basechar 0
AnchorPoint: "Anchor-6" 299 520 basechar 0
AnchorPoint: "Anchor-5" 378 0 basechar 0
AnchorPoint: "Anchor-4" 299 0 basechar 0
LayerCount: 2
Fore
SplineSet
101 59.5 m 128,-1,1
 32 129 32 129 32 260 c 256,2,3
 32 391 32 391 101 460.5 c 128,-1,4
 170 530 170 530 300 530 c 0,5,6
 429 530 429 530 498 460 c 128,-1,7
 567 390 567 390 567 260 c 256,8,9
 567 130 567 130 498 60 c 128,-1,10
 429 -10 429 -10 300 -10 c 0,11,0
 170 -10 170 -10 101 59.5 c 128,-1,1
401 260 m 256,13,14
 401 407 401 407 300 407 c 0,15,16
 249 407 249 407 224 370.5 c 128,-1,17
 199 334 199 334 199 260 c 256,18,19
 199 186 199 186 224 149.5 c 128,-1,20
 249 113 249 113 300 113 c 0,21,12
 401 113 401 113 401 260 c 256,13,14
EndSplineSet
Substitution2: "Single Substitution lookup 21 subtable" ordmasculine
Substitution2: "'aalt' Access All Alternates in Latin lookup 0 subtable" ordmasculine
EndChar

StartChar: uni1ED1
Encoding: 7889 7889 311
Width: 599
GlyphClass: 2
Flags: W
AnchorPoint: "Anchor-7" 474 480 basechar 0
AnchorPoint: "Anchor-6" 299 520 basechar 0
AnchorPoint: "Anchor-5" 378 0 basechar 0
AnchorPoint: "Anchor-4" 299 0 basechar 0
LayerCount: 2
Fore
SplineSet
298 707 m 1,0,-1
 229 560 l 1,1,-1
 45 560 l 1,2,-1
 167 770 l 1,3,-1
 415 770 l 1,4,-1
 477 950 l 1,5,-1
 677 950 l 1,6,-1
 555 740 l 1,7,-1
 448 740 l 1,8,-1
 553 560 l 1,9,-1
 369 560 l 1,10,-1
 300 707 l 1,11,-1
 298 707 l 1,0,-1
498 460 m 128,-1,13
 567 390 567 390 567 260 c 256,14,15
 567 130 567 130 498 60 c 128,-1,16
 429 -10 429 -10 300 -10 c 0,17,18
 170 -10 170 -10 101 59.5 c 128,-1,19
 32 129 32 129 32 260 c 256,20,21
 32 391 32 391 101 460.5 c 128,-1,22
 170 530 170 530 300 530 c 0,23,12
 429 530 429 530 498 460 c 128,-1,13
401 260 m 256,25,26
 401 407 401 407 300 407 c 0,27,28
 249 407 249 407 224 370.5 c 128,-1,29
 199 334 199 334 199 260 c 256,30,31
 199 186 199 186 224 149.5 c 128,-1,32
 249 113 249 113 300 113 c 0,33,24
 401 113 401 113 401 260 c 256,25,26
EndSplineSet
EndChar

StartChar: uni1ED3
Encoding: 7891 7891 313
Width: 599
GlyphClass: 2
Flags: W
AnchorPoint: "Anchor-7" 474 480 basechar 0
AnchorPoint: "Anchor-6" 299 520 basechar 0
AnchorPoint: "Anchor-5" 378 0 basechar 0
AnchorPoint: "Anchor-4" 299 0 basechar 0
LayerCount: 2
Fore
SplineSet
150 740 m 1,0,-1
 43 740 l 1,1,-1
 -79 950 l 1,2,-1
 121 950 l 1,3,-1
 183 770 l 1,4,-1
 431 770 l 1,5,-1
 553 560 l 1,6,-1
 369 560 l 1,7,-1
 300 707 l 1,8,-1
 298 707 l 1,9,-1
 229 560 l 1,10,-1
 45 560 l 1,11,-1
 150 740 l 1,0,-1
498 460 m 128,-1,13
 567 390 567 390 567 260 c 256,14,15
 567 130 567 130 498 60 c 128,-1,16
 429 -10 429 -10 300 -10 c 0,17,18
 170 -10 170 -10 101 59.5 c 128,-1,19
 32 129 32 129 32 260 c 256,20,21
 32 391 32 391 101 460.5 c 128,-1,22
 170 530 170 530 300 530 c 0,23,12
 429 530 429 530 498 460 c 128,-1,13
401 260 m 256,25,26
 401 407 401 407 300 407 c 0,27,28
 249 407 249 407 224 370.5 c 128,-1,29
 199 334 199 334 199 260 c 256,30,31
 199 186 199 186 224 149.5 c 128,-1,32
 249 113 249 113 300 113 c 0,33,24
 401 113 401 113 401 260 c 256,25,26
EndSplineSet
EndChar

StartChar: uni1ED5
Encoding: 7893 7893 314
Width: 599
GlyphClass: 2
Flags: W
AnchorPoint: "Anchor-7" 474 480 basechar 0
AnchorPoint: "Anchor-6" 392 950 basechar 0
AnchorPoint: "Anchor-5" 378 0 basechar 0
AnchorPoint: "Anchor-4" 299 0 basechar 0
LayerCount: 2
Fore
SplineSet
229 560 m 1,0,-1
 45 560 l 1,1,-1
 167 770 l 1,2,-1
 416 770 l 1,3,4
 419 788 419 788 419 802 c 0,5,6
 419 821 419 821 408 827.5 c 128,-1,7
 397 834 397 834 367 834 c 0,8,9
 297 834 297 834 222 811 c 1,10,-1
 209 930 l 1,11,12
 250 939 250 939 299 944.5 c 128,-1,13
 348 950 348 950 392 950 c 0,14,15
 464 950 464 950 503 942 c 128,-1,16
 542 934 542 934 558.5 914.5 c 128,-1,17
 575 895 575 895 575 859 c 0,18,19
 575 832 575 832 568.5 798.5 c 128,-1,20
 562 765 562 765 552 740 c 1,21,-1
 448 740 l 1,22,-1
 553 560 l 1,23,-1
 369 560 l 1,24,-1
 300 707 l 1,25,-1
 298 707 l 1,26,-1
 229 560 l 1,0,-1
498 460 m 128,-1,28
 567 390 567 390 567 260 c 256,29,30
 567 130 567 130 498 60 c 128,-1,31
 429 -10 429 -10 300 -10 c 0,32,33
 170 -10 170 -10 101 59.5 c 128,-1,34
 32 129 32 129 32 260 c 256,35,36
 32 391 32 391 101 460.5 c 128,-1,37
 170 530 170 530 300 530 c 0,38,27
 429 530 429 530 498 460 c 128,-1,28
401 260 m 256,40,41
 401 407 401 407 300 407 c 0,42,43
 249 407 249 407 224 370.5 c 128,-1,44
 199 334 199 334 199 260 c 256,45,46
 199 186 199 186 224 149.5 c 128,-1,47
 249 113 249 113 300 113 c 0,48,39
 401 113 401 113 401 260 c 256,40,41
EndSplineSet
EndChar

StartChar: ohorn
Encoding: 417 417 323
Width: 692
GlyphClass: 2
Flags: W
AnchorPoint: "Anchor-7" 727 627 basechar 0
AnchorPoint: "Anchor-6" 299 520 basechar 0
AnchorPoint: "Anchor-5" 378 0 basechar 0
AnchorPoint: "Anchor-4" 299 0 basechar 0
LayerCount: 2
Fore
SplineSet
721 495 m 0,1,2
 721 413 721 413 683 369 c 128,-1,3
 645 325 645 325 574 325 c 2,4,-1
 562 325 l 1,5,6
 567 292 567 292 567 260 c 0,7,8
 567 130 567 130 498 60 c 128,-1,9
 429 -10 429 -10 300 -10 c 0,10,11
 170 -10 170 -10 101 59.5 c 128,-1,12
 32 129 32 129 32 260 c 256,13,14
 32 391 32 391 101 460.5 c 128,-1,15
 170 530 170 530 300 530 c 0,16,17
 434 530 434 530 503 455 c 1,18,19
 513 453 513 453 517 453 c 0,20,21
 540 453 540 453 553 468.5 c 128,-1,22
 566 484 566 484 566 512 c 0,23,24
 566 534 566 534 558.5 569 c 128,-1,25
 551 604 551 604 542 627 c 1,26,-1
 700 627 l 1,27,0
 721 562 721 562 721 495 c 0,1,2
401 260 m 256,29,30
 401 407 401 407 300 407 c 0,31,32
 249 407 249 407 224 370.5 c 128,-1,33
 199 334 199 334 199 260 c 256,34,35
 199 186 199 186 224 149.5 c 128,-1,36
 249 113 249 113 300 113 c 0,37,28
 401 113 401 113 401 260 c 256,29,30
EndSplineSet
EndChar

StartChar: uni01EB
Encoding: 491 491 332
Width: 599
GlyphClass: 2
Flags: W
AnchorPoint: "Anchor-7" 474 480 basechar 0
AnchorPoint: "Anchor-6" 299 520 basechar 0
AnchorPoint: "Anchor-5" 378 0 basechar 0
AnchorPoint: "Anchor-4" 299 0 basechar 0
LayerCount: 2
Fore
SplineSet
302 -69 m 0,1,2
 302 -84 302 -84 316.5 -92 c 128,-1,3
 331 -100 331 -100 358 -100 c 0,4,5
 408 -100 408 -100 453 -80 c 1,6,-1
 469 -199 l 1,7,8
 416 -219 416 -219 347 -219 c 0,9,10
 253 -219 253 -219 201.5 -186 c 128,-1,11
 150 -153 150 -153 150 -92 c 0,12,13
 150 -41 150 -41 192 5 c 1,14,15
 113 30 113 30 72.5 95 c 128,-1,16
 32 160 32 160 32 260 c 0,17,18
 32 391 32 391 101 460.5 c 128,-1,19
 170 530 170 530 300 530 c 0,20,21
 429 530 429 530 498 460 c 128,-1,22
 567 390 567 390 567 260 c 0,23,24
 567 148 567 148 516 80.5 c 128,-1,25
 465 13 465 13 369 -4 c 1,26,0
 302 -37 302 -37 302 -69 c 0,1,2
224 370.5 m 128,-1,28
 199 334 199 334 199 260 c 256,29,30
 199 186 199 186 224 149.5 c 128,-1,31
 249 113 249 113 300 113 c 0,32,33
 401 113 401 113 401 260 c 256,34,35
 401 407 401 407 300 407 c 0,36,27
 249 407 249 407 224 370.5 c 128,-1,28
EndSplineSet
EndChar

StartChar: oslash
Encoding: 248 248 333
Width: 599
GlyphClass: 2
Flags: W
AnchorPoint: "Anchor-7" 474 480 basechar 0
AnchorPoint: "Anchor-6" 300 520 basechar 0
AnchorPoint: "Anchor-5" 378 0 basechar 0
AnchorPoint: "Anchor-4" 299 0 basechar 0
LayerCount: 2
Fore
SplineSet
567 260 m 0,1,2
 567 130 567 130 498 60 c 128,-1,3
 429 -10 429 -10 300 -10 c 0,4,5
 227 -10 227 -10 174 12 c 1,6,-1
 137 -38 l 1,7,-1
 62 18 l 1,8,-1
 96 64 l 1,9,10
 32 134 32 134 32 260 c 0,11,12
 32 391 32 391 101 460.5 c 128,-1,13
 170 530 170 530 300 530 c 0,14,15
 374 530 374 530 425 508 c 1,16,-1
 462 558 l 1,17,-1
 537 502 l 1,18,-1
 503 455 l 1,19,0
 567 386 567 386 567 260 c 0,1,2
203 208 m 1,21,-1
 344 398 l 1,22,23
 324 407 324 407 300 407 c 0,24,25
 249 407 249 407 224 370.5 c 128,-1,26
 199 334 199 334 199 260 c 0,27,20
 199 228 199 228 203 208 c 1,21,-1
401 260 m 0,29,30
 401 292 401 292 397 313 c 1,31,-1
 256 122 l 1,32,33
 274 113 274 113 300 113 c 0,34,28
 401 113 401 113 401 260 c 0,29,30
EndSplineSet
EndChar

StartChar: oe
Encoding: 339 339 337
Width: 946
Flags: W
LayerCount: 2
Fore
SplineSet
913 205 m 1,1,-1
 565 205 l 1,2,3
 570 156 570 156 603.5 133 c 128,-1,4
 637 110 637 110 705 110 c 0,5,6
 786 110 786 110 853 137 c 1,7,-1
 878 23 l 1,8,9
 842 7 842 7 793.5 -1.5 c 128,-1,10
 745 -10 745 -10 695 -10 c 0,11,12
 562 -10 562 -10 487 51 c 1,13,14
 418 -10 418 -10 300 -10 c 0,15,16
 170 -10 170 -10 101 59.5 c 128,-1,17
 32 129 32 129 32 260 c 256,18,19
 32 391 32 391 101 460.5 c 128,-1,20
 170 530 170 530 300 530 c 0,21,22
 417 530 417 530 484 471 c 1,23,24
 552 530 552 530 663 530 c 0,25,26
 784 530 784 530 850 461 c 128,-1,27
 916 392 916 392 916 267 c 0,28,0
 916 238 916 238 913 205 c 1,1,-1
594 391 m 128,-1,30
 570 365 570 365 565 310 c 1,31,-1
 760 310 l 1,32,33
 755 365 755 365 731.5 391 c 128,-1,34
 708 417 708 417 663 417 c 256,35,29
 618 417 618 417 594 391 c 128,-1,30
401 260 m 256,37,38
 401 407 401 407 300 407 c 0,39,40
 249 407 249 407 224 370.5 c 128,-1,41
 199 334 199 334 199 260 c 256,42,43
 199 186 199 186 224 149.5 c 128,-1,44
 249 113 249 113 300 113 c 0,45,36
 401 113 401 113 401 260 c 256,37,38
EndSplineSet
EndChar

StartChar: p
Encoding: 112 112 338
Width: 620
Flags: W
LayerCount: 2
Fore
SplineSet
537 460.5 m 128,-1,1
 588 391 588 391 588 260 c 256,2,3
 588 129 588 129 537 59.5 c 128,-1,4
 486 -10 486 -10 391 -10 c 0,5,6
 294 -10 294 -10 232 64 c 1,7,-1
 230 64 l 1,8,-1
 230 -220 l 1,9,-1
 63 -220 l 1,10,-1
 63 520 l 1,11,-1
 222 520 l 1,12,-1
 223 456 l 1,13,-1
 225 456 l 1,14,15
 293 530 293 530 391 530 c 0,16,0
 486 530 486 530 537 460.5 c 128,-1,1
399.5 156.5 m 128,-1,18
 424 193 424 193 424 260 c 256,19,20
 424 327 424 327 399.5 363.5 c 128,-1,21
 375 400 375 400 330 400 c 0,22,23
 286 400 286 400 258 365.5 c 128,-1,24
 230 331 230 331 230 274 c 2,25,-1
 230 246 l 2,26,27
 230 189 230 189 258 154.5 c 128,-1,28
 286 120 286 120 330 120 c 0,29,17
 375 120 375 120 399.5 156.5 c 128,-1,18
EndSplineSet
EndChar

StartChar: thorn
Encoding: 254 254 339
Width: 624
Flags: W
LayerCount: 2
Fore
SplineSet
537 460.5 m 128,-1,1
 588 391 588 391 588 260 c 256,2,3
 588 129 588 129 537 59.5 c 128,-1,4
 486 -10 486 -10 391 -10 c 0,5,6
 294 -10 294 -10 232 64 c 1,7,-1
 230 64 l 1,8,-1
 230 -220 l 1,9,-1
 63 -220 l 1,10,-1
 63 750 l 1,11,-1
 230 750 l 1,12,-1
 230 456 l 1,13,-1
 232 456 l 1,14,15
 294 530 294 530 391 530 c 0,16,0
 486 530 486 530 537 460.5 c 128,-1,1
399.5 156.5 m 128,-1,18
 424 193 424 193 424 260 c 256,19,20
 424 327 424 327 399.5 363.5 c 128,-1,21
 375 400 375 400 330 400 c 0,22,23
 286 400 286 400 258 365.5 c 128,-1,24
 230 331 230 331 230 274 c 2,25,-1
 230 246 l 2,26,27
 230 189 230 189 258 154.5 c 128,-1,28
 286 120 286 120 330 120 c 0,29,17
 375 120 375 120 399.5 156.5 c 128,-1,18
EndSplineSet
EndChar

StartChar: q
Encoding: 113 113 340
Width: 621
Flags: W
LayerCount: 2
Fore
SplineSet
557 520 m 1,0,-1
 557 -220 l 1,1,-1
 390 -220 l 1,2,-1
 390 64 l 1,3,-1
 388 64 l 1,4,5
 326 -10 326 -10 229 -10 c 0,6,7
 134 -10 134 -10 83 59.5 c 128,-1,8
 32 129 32 129 32 260 c 256,9,10
 32 391 32 391 83 460.5 c 128,-1,11
 134 530 134 530 229 530 c 0,12,13
 327 530 327 530 395 456 c 1,14,-1
 397 456 l 1,15,-1
 399 520 l 1,16,-1
 557 520 l 1,0,-1
362.5 154.5 m 128,-1,18
 390 189 390 189 390 246 c 2,19,-1
 390 274 l 2,20,21
 390 331 390 331 362.5 365.5 c 128,-1,22
 335 400 335 400 290 400 c 256,23,24
 245 400 245 400 220.5 363.5 c 128,-1,25
 196 327 196 327 196 260 c 256,26,27
 196 193 196 193 220.5 156.5 c 128,-1,28
 245 120 245 120 290 120 c 256,29,17
 335 120 335 120 362.5 154.5 c 128,-1,18
EndSplineSet
EndChar

StartChar: r
Encoding: 114 114 341
Width: 476
GlyphClass: 2
Flags: W
AnchorPoint: "Anchor-6" 250 520 basechar 0
AnchorPoint: "Anchor-4" 250 0 basechar 0
LayerCount: 2
Fore
SplineSet
330.5 503.5 m 128,-1,1
 390 530 390 530 458 530 c 1,2,-1
 458 392 l 1,3,4
 396 392 396 392 344.5 370.5 c 128,-1,5
 293 349 293 349 262.5 311.5 c 128,-1,6
 232 274 232 274 232 230 c 2,7,-1
 232 0 l 1,8,-1
 63 0 l 1,9,-1
 63 520 l 1,10,-1
 223 520 l 1,11,-1
 225 426 l 1,12,-1
 227 426 l 1,13,0
 271 477 271 477 330.5 503.5 c 128,-1,1
EndSplineSet
EndChar

StartChar: s
Encoding: 115 115 347
Width: 525
GlyphClass: 2
Flags: W
AnchorPoint: "Anchor-6" 263 520 basechar 0
AnchorPoint: "Anchor-4" 263 0 basechar 0
LayerCount: 2
Fore
SplineSet
32 32 m 1,1,-1
 70 149 l 1,2,3
 164 113 164 113 243 113 c 0,4,5
 285 113 285 113 304 123 c 128,-1,6
 323 133 323 133 323 153 c 0,7,8
 323 170 323 170 308 180 c 128,-1,9
 293 190 293 190 247 201 c 0,10,11
 132 229 132 229 84 268.5 c 128,-1,12
 36 308 36 308 36 375 c 0,13,14
 36 451 36 451 93.5 490.5 c 128,-1,15
 151 530 151 530 262 530 c 0,16,17
 315 530 315 530 373 520.5 c 128,-1,18
 431 511 431 511 483 494 c 1,19,-1
 445 377 l 1,20,21
 397 394 397 394 359.5 401 c 128,-1,22
 322 408 322 408 284 408 c 0,23,24
 244 408 244 408 225 399.5 c 128,-1,25
 206 391 206 391 206 372 c 0,26,27
 206 354 206 354 221 344 c 128,-1,28
 236 334 236 334 281 324 c 0,29,30
 391 300 391 300 442 258.5 c 128,-1,31
 493 217 493 217 493 151 c 0,32,33
 493 76 493 76 432.5 33 c 128,-1,34
 372 -10 372 -10 266 -10 c 0,35,0
 134 -10 134 -10 32 32 c 1,1,-1
EndSplineSet
EndChar

StartChar: scedilla
Encoding: 351 351 350
Width: 525
GlyphClass: 2
Flags: W
AnchorPoint: "Anchor-6" 263 520 basechar 0
AnchorPoint: "Anchor-4" 263 0 basechar 0
LayerCount: 2
Fore
SplineSet
463.5 62 m 128,-1,1
 434 25 434 25 380 7 c 1,2,3
 422 -41 422 -41 422 -92 c 0,4,5
 422 -153 422 -153 370.5 -186 c 128,-1,6
 319 -219 319 -219 225 -219 c 0,7,8
 155 -219 155 -219 104 -199 c 1,9,-1
 119 -80 l 1,10,11
 165 -100 165 -100 214 -100 c 0,12,13
 242 -100 242 -100 256.5 -92 c 128,-1,14
 271 -84 271 -84 271 -69 c 0,15,16
 271 -40 271 -40 211 -8 c 1,17,18
 109 0 109 0 32 32 c 1,19,-1
 70 149 l 1,20,21
 164 113 164 113 243 113 c 0,22,23
 285 113 285 113 304 123 c 128,-1,24
 323 133 323 133 323 153 c 0,25,26
 323 170 323 170 308 180 c 128,-1,27
 293 190 293 190 247 201 c 0,28,29
 132 229 132 229 84 268.5 c 128,-1,30
 36 308 36 308 36 375 c 0,31,32
 36 451 36 451 93.5 490.5 c 128,-1,33
 151 530 151 530 262 530 c 0,34,35
 315 530 315 530 373 520.5 c 128,-1,36
 431 511 431 511 483 494 c 1,37,-1
 445 377 l 1,38,39
 397 394 397 394 359.5 401 c 128,-1,40
 322 408 322 408 284 408 c 0,41,42
 244 408 244 408 225 399.5 c 128,-1,43
 206 391 206 391 206 372 c 0,44,45
 206 354 206 354 221 344 c 128,-1,46
 236 334 236 334 281 324 c 0,47,48
 391 300 391 300 442 258.5 c 128,-1,49
 493 217 493 217 493 151 c 0,50,0
 493 99 493 99 463.5 62 c 128,-1,1
EndSplineSet
Substitution2: "'locl' Localized Forms in Latin lookup 4 subtable" uni0219
Substitution2: "'aalt' Access All Alternates in Latin lookup 0 subtable" uni0219
EndChar

StartChar: germandbls
Encoding: 223 223 353
Width: 625
Flags: W
LayerCount: 2
Fore
SplineSet
275 3 m 1,1,-1
 287 138 l 1,2,3
 329 125 329 125 361 125 c 0,4,5
 391 125 391 125 408 138 c 128,-1,6
 425 151 425 151 425 173 c 0,7,8
 425 190 425 190 411 212 c 128,-1,9
 397 234 397 234 356 283 c 0,10,11
 324 322 324 322 312.5 343 c 128,-1,12
 301 364 301 364 301 383 c 0,13,14
 301 401 301 401 312 421.5 c 128,-1,15
 323 442 323 442 352 479 c 0,16,17
 408 547 408 547 408 582 c 0,18,19
 408 622 408 622 323 622 c 0,20,21
 284 622 284 622 264.5 613.5 c 128,-1,22
 245 605 245 605 237.5 584 c 128,-1,23
 230 563 230 563 230 521 c 2,24,-1
 230 0 l 1,25,-1
 63 0 l 1,26,-1
 63 526 l 2,27,28
 63 647 63 647 124 703.5 c 128,-1,29
 185 760 185 760 314 760 c 0,30,31
 391 760 391 760 449 740 c 128,-1,32
 507 720 507 720 538.5 683.5 c 128,-1,33
 570 647 570 647 570 598 c 0,34,35
 570 571 570 571 557.5 542 c 128,-1,36
 545 513 545 513 513 466 c 0,37,38
 465 397 465 397 465 384 c 0,39,40
 465 375 465 375 479 352.5 c 128,-1,41
 493 330 493 330 519 300 c 0,42,43
 559 253 559 253 575 219 c 128,-1,44
 591 185 591 185 591 148 c 0,45,46
 591 73 591 73 538 31.5 c 128,-1,47
 485 -10 485 -10 390 -10 c 0,48,0
 340 -10 340 -10 275 3 c 1,1,-1
EndSplineSet
EndChar

StartChar: t
Encoding: 116 116 354
Width: 513
GlyphClass: 2
Flags: W
AnchorPoint: "Anchor-8" 235 0 basechar 0
AnchorPoint: "Anchor-7" 500 520 basechar 0
AnchorPoint: "Anchor-6" 259 520 basechar 0
AnchorPoint: "Anchor-4" 259 0 basechar 0
LayerCount: 2
Fore
SplineSet
172 32.5 m 128,-1,1
 129 75 129 75 129 173 c 2,2,-1
 129 397 l 1,3,-1
 15 397 l 1,4,-1
 15 520 l 1,5,-1
 129 520 l 1,6,-1
 129 710 l 1,7,-1
 298 710 l 1,8,-1
 298 520 l 1,9,-1
 460 520 l 1,10,-1
 460 397 l 1,11,-1
 298 397 l 1,12,-1
 298 197 l 2,13,14
 298 149 298 149 310 133 c 128,-1,15
 322 117 322 117 359 117 c 0,16,17
 402 117 402 117 444 131 c 1,18,-1
 462 9 l 1,19,20
 380 -10 380 -10 313 -10 c 0,21,0
 215 -10 215 -10 172 32.5 c 128,-1,1
EndSplineSet
EndChar

StartChar: tbar
Encoding: 359 359 355
Width: 508
GlyphClass: 2
Flags: W
AnchorPoint: "Anchor-8" 235 0 basechar 0
AnchorPoint: "Anchor-7" 500 520 basechar 0
AnchorPoint: "Anchor-6" 259 520 basechar 0
AnchorPoint: "Anchor-4" 259 0 basechar 0
LayerCount: 2
Fore
SplineSet
462 9 m 1,0,1
 380 -10 380 -10 313 -10 c 0,2,3
 215 -10 215 -10 172 32.5 c 128,-1,4
 129 75 129 75 129 173 c 2,5,-1
 129 188 l 1,6,-1
 15 188 l 1,7,-1
 15 312 l 1,8,-1
 129 312 l 1,9,-1
 129 397 l 1,10,-1
 15 397 l 1,11,-1
 15 520 l 1,12,-1
 129 520 l 1,13,-1
 129 710 l 1,14,-1
 298 710 l 1,15,-1
 298 520 l 1,16,-1
 460 520 l 1,17,-1
 460 397 l 1,18,-1
 298 397 l 1,19,-1
 298 312 l 1,20,-1
 455 312 l 1,21,-1
 455 188 l 1,22,-1
 298 188 l 1,23,24
 299 145 299 145 311.5 131 c 128,-1,25
 324 117 324 117 359 117 c 0,26,27
 402 117 402 117 444 131 c 1,28,-1
 462 9 l 1,0,1
EndSplineSet
EndChar

StartChar: uni0163
Encoding: 355 355 357
Width: 513
GlyphClass: 2
Flags: W
AnchorPoint: "Anchor-8" 235 0 basechar 0
AnchorPoint: "Anchor-7" 500 520 basechar 0
AnchorPoint: "Anchor-6" 259 520 basechar 0
AnchorPoint: "Anchor-4" 259 0 basechar 0
LayerCount: 2
Fore
SplineSet
424 1 m 1,1,2
 462 -44 462 -44 462 -92 c 0,3,4
 462 -153 462 -153 410.5 -186 c 128,-1,5
 359 -219 359 -219 265 -219 c 0,6,7
 196 -219 196 -219 143 -199 c 1,8,-1
 159 -80 l 1,9,10
 204 -100 204 -100 254 -100 c 0,11,12
 282 -100 282 -100 296.5 -92 c 128,-1,13
 311 -84 311 -84 311 -69 c 0,14,15
 311 -36 311 -36 240 -3 c 1,16,17
 182 11 182 11 155.5 53 c 128,-1,18
 129 95 129 95 129 173 c 2,19,-1
 129 397 l 1,20,-1
 15 397 l 1,21,-1
 15 520 l 1,22,-1
 129 520 l 1,23,-1
 129 710 l 1,24,-1
 298 710 l 1,25,-1
 298 520 l 1,26,-1
 460 520 l 1,27,-1
 460 397 l 1,28,-1
 298 397 l 1,29,-1
 298 197 l 2,30,31
 298 149 298 149 310 133 c 128,-1,32
 322 117 322 117 359 117 c 0,33,34
 402 117 402 117 444 131 c 1,35,-1
 462 9 l 1,36,0
 434 3 434 3 424 1 c 1,1,2
EndSplineSet
Substitution2: "'locl' Localized Forms in Latin lookup 4 subtable" uni021B
Substitution2: "'aalt' Access All Alternates in Latin lookup 0 subtable" uni021B
EndChar

StartChar: u
Encoding: 117 117 359
Width: 610
GlyphClass: 2
Flags: W
AnchorPoint: "Anchor-7" 522 480 basechar 0
AnchorPoint: "Anchor-6" 305 520 basechar 0
AnchorPoint: "Anchor-5" 547 0 basechar 0
AnchorPoint: "Anchor-4" 305 0 basechar 0
LayerCount: 2
Fore
SplineSet
547 520 m 1,0,-1
 547 0 l 1,1,-1
 389 0 l 1,2,-1
 387 65 l 1,3,-1
 385 65 l 1,4,5
 353 27 353 27 313.5 8.5 c 128,-1,6
 274 -10 274 -10 224 -10 c 0,7,8
 137 -10 137 -10 97 40.5 c 128,-1,9
 57 91 57 91 57 200 c 2,10,-1
 57 520 l 1,11,-1
 224 520 l 1,12,-1
 224 233 l 2,13,14
 224 176 224 176 238 151.5 c 128,-1,15
 252 127 252 127 284 127 c 0,16,17
 324 127 324 127 352 158 c 128,-1,18
 380 189 380 189 380 232 c 2,19,-1
 380 520 l 1,20,-1
 547 520 l 1,0,-1
EndSplineSet
EndChar

StartChar: uhorn
Encoding: 432 432 368
Width: 738
GlyphClass: 2
Flags: W
AnchorPoint: "Anchor-7" 775 627 basechar 0
AnchorPoint: "Anchor-6" 305 520 basechar 0
AnchorPoint: "Anchor-5" 547 0 basechar 0
AnchorPoint: "Anchor-4" 305 0 basechar 0
LayerCount: 2
Fore
SplineSet
769 495 m 0,1,2
 769 413 769 413 731 369 c 128,-1,3
 693 325 693 325 622 325 c 0,4,5
 585 325 585 325 547 338 c 1,6,-1
 547 0 l 1,7,-1
 389 0 l 1,8,-1
 387 65 l 1,9,-1
 385 65 l 1,10,11
 353 27 353 27 313.5 8.5 c 128,-1,12
 274 -10 274 -10 224 -10 c 0,13,14
 137 -10 137 -10 97 40.5 c 128,-1,15
 57 91 57 91 57 200 c 2,16,-1
 57 520 l 1,17,-1
 224 520 l 1,18,-1
 224 233 l 2,19,20
 224 176 224 176 238 151.5 c 128,-1,21
 252 127 252 127 284 127 c 0,22,23
 324 127 324 127 352 158 c 128,-1,24
 380 189 380 189 380 232 c 2,25,-1
 380 520 l 1,26,-1
 547 520 l 1,27,-1
 547 456 l 1,28,29
 556 453 556 453 565 453 c 0,30,31
 588 453 588 453 601 468.5 c 128,-1,32
 614 484 614 484 614 512 c 0,33,34
 614 534 614 534 606.5 569 c 128,-1,35
 599 604 599 604 590 627 c 1,36,-1
 748 627 l 1,37,0
 769 562 769 562 769 495 c 0,1,2
EndSplineSet
EndChar

StartChar: uogonek
Encoding: 371 371 377
Width: 610
GlyphClass: 2
Flags: W
AnchorPoint: "Anchor-7" 522 480 basechar 0
AnchorPoint: "Anchor-6" 305 520 basechar 0
AnchorPoint: "Anchor-5" 547 0 basechar 0
AnchorPoint: "Anchor-4" 305 0 basechar 0
LayerCount: 2
Fore
SplineSet
638 -199 m 1,0,1
 585 -219 585 -219 516 -219 c 0,2,3
 422 -219 422 -219 370.5 -186 c 128,-1,4
 319 -153 319 -153 319 -92 c 0,5,6
 319 -59 319 -59 335.5 -29.5 c 128,-1,7
 352 0 352 0 388 33 c 1,8,-1
 387 65 l 1,9,-1
 385 65 l 1,10,11
 353 27 353 27 313.5 8.5 c 128,-1,12
 274 -10 274 -10 224 -10 c 0,13,14
 137 -10 137 -10 97 40.5 c 128,-1,15
 57 91 57 91 57 200 c 2,16,-1
 57 520 l 1,17,-1
 224 520 l 1,18,-1
 224 233 l 2,19,20
 224 176 224 176 238 151.5 c 128,-1,21
 252 127 252 127 284 127 c 0,22,23
 324 127 324 127 352 158 c 128,-1,24
 380 189 380 189 380 232 c 2,25,-1
 380 520 l 1,26,-1
 547 520 l 1,27,-1
 547 0 l 1,28,29
 471 -34 471 -34 471 -69 c 0,30,31
 471 -84 471 -84 485.5 -92 c 128,-1,32
 500 -100 500 -100 527 -100 c 0,33,34
 577 -100 577 -100 622 -80 c 1,35,-1
 638 -199 l 1,0,1
EndSplineSet
EndChar

StartChar: v
Encoding: 118 118 380
Width: 570
Flags: W
LayerCount: 2
Fore
SplineSet
7 520 m 1,0,-1
 181 520 l 1,1,-1
 284 106 l 1,2,-1
 286 106 l 1,3,-1
 389 520 l 1,4,-1
 563 520 l 1,5,-1
 402 0 l 1,6,-1
 168 0 l 1,7,-1
 7 520 l 1,0,-1
EndSplineSet
EndChar

StartChar: w
Encoding: 119 119 381
Width: 818
GlyphClass: 2
Flags: W
AnchorPoint: "Anchor-6" 409 520 basechar 0
AnchorPoint: "Anchor-4" 409 0 basechar 0
LayerCount: 2
Fore
SplineSet
17 520 m 1,0,-1
 186 520 l 1,1,-1
 244 148 l 1,2,-1
 246 148 l 1,3,-1
 306 520 l 1,4,-1
 512 520 l 1,5,-1
 572 148 l 1,6,-1
 574 148 l 1,7,-1
 632 520 l 1,8,-1
 801 520 l 1,9,-1
 672 0 l 1,10,-1
 469 0 l 1,11,-1
 410 368 l 1,12,-1
 408 368 l 1,13,-1
 349 0 l 1,14,-1
 146 0 l 1,15,-1
 17 520 l 1,0,-1
EndSplineSet
EndChar

StartChar: x
Encoding: 120 120 386
Width: 578
Flags: W
LayerCount: 2
Fore
SplineSet
173 261 m 1,0,-1
 29 520 l 1,1,-1
 205 520 l 1,2,-1
 288 347 l 1,3,-1
 290 347 l 1,4,-1
 373 520 l 1,5,-1
 549 520 l 1,6,-1
 405 261 l 1,7,-1
 552 0 l 1,8,-1
 376 0 l 1,9,-1
 290 175 l 1,10,-1
 288 175 l 1,11,-1
 202 0 l 1,12,-1
 26 0 l 1,13,-1
 173 261 l 1,0,-1
EndSplineSet
EndChar

StartChar: y
Encoding: 121 121 387
Width: 573
GlyphClass: 2
Flags: W
AnchorPoint: "Anchor-6" 287 520 basechar 0
AnchorPoint: "Anchor-4" 287 0 basechar 0
LayerCount: 2
Fore
SplineSet
390 520 m 1,0,-1
 570 520 l 1,1,-1
 297 -220 l 1,2,-1
 121 -220 l 1,3,-1
 214 -20 l 1,4,-1
 4 520 l 1,5,-1
 184 520 l 1,6,-1
 288 153 l 1,7,-1
 290 153 l 1,8,-1
 390 520 l 1,0,-1
EndSplineSet
EndChar

StartChar: z
Encoding: 122 122 396
Width: 560
GlyphClass: 2
Flags: W
AnchorPoint: "Anchor-6" 280 520 basechar 0
AnchorPoint: "Anchor-4" 280 0 basechar 0
LayerCount: 2
Fore
SplineSet
53 123 m 1,0,-1
 297 395 l 1,1,-1
 297 397 l 1,2,-1
 53 397 l 1,3,-1
 53 520 l 1,4,-1
 507 520 l 1,5,-1
 507 397 l 1,6,-1
 263 125 l 1,7,-1
 263 123 l 1,8,-1
 507 123 l 1,9,-1
 507 0 l 1,10,-1
 53 0 l 1,11,-1
 53 123 l 1,0,-1
EndSplineSet
EndChar

StartChar: f_f
Encoding: 1114114 -1 400
Width: 895
GlyphClass: 3
Flags: W
LayerCount: 2
Fore
SplineSet
716 520 m 1,0,-1
 867 520 l 1,1,-1
 867 397 l 1,2,-1
 716 397 l 1,3,-1
 716 0 l 1,4,-1
 548 0 l 1,5,-1
 548 397 l 1,6,-1
 314 397 l 1,7,-1
 314 0 l 1,8,-1
 145 0 l 1,9,-1
 145 397 l 1,10,-1
 19 397 l 1,11,-1
 19 520 l 1,12,-1
 145 520 l 1,13,-1
 145 552 l 2,14,15
 145 654 145 654 196 707 c 128,-1,16
 247 760 247 760 346 760 c 0,17,18
 403 760 403 760 473 745 c 1,19,-1
 451 622 l 1,20,21
 412 637 412 637 375 637 c 0,22,23
 340 637 340 637 327 619 c 128,-1,24
 314 601 314 601 314 552 c 2,25,-1
 314 520 l 1,26,-1
 548 520 l 1,27,-1
 548 552 l 2,28,29
 548 654 548 654 599 707 c 128,-1,30
 650 760 650 760 749 760 c 0,31,32
 806 760 806 760 876 745 c 1,33,-1
 854 622 l 1,34,35
 814 637 814 637 778 637 c 256,36,37
 742 637 742 637 729 619 c 128,-1,38
 716 601 716 601 716 552 c 2,39,-1
 716 520 l 1,0,-1
EndSplineSet
Ligature2: "'liga' Standard Ligatures in Latin lookup 14 subtable" f f
EndChar

StartChar: ordfeminine
Encoding: 170 170 405
Width: 465
Flags: W
LayerCount: 2
Fore
SplineSet
370 699 m 128,-1,1
 413 660 413 660 413 571 c 2,2,-1
 413 314 l 1,3,-1
 274 314 l 1,4,-1
 273 356 l 1,5,-1
 271 356 l 1,6,7
 251 332 251 332 221 319 c 128,-1,8
 191 306 191 306 156 306 c 0,9,10
 97 306 97 306 60 342.5 c 128,-1,11
 23 379 23 379 23 437 c 0,12,13
 23 508 23 508 83.5 547 c 128,-1,14
 144 586 144 586 255 586 c 2,15,-1
 268 586 l 1,16,17
 267 616 267 616 254.5 627 c 128,-1,18
 242 638 242 638 210 638 c 0,19,20
 175 638 175 638 136 628.5 c 128,-1,21
 97 619 97 619 61 602 c 1,22,-1
 43 701 l 1,23,24
 127 738 127 738 230 738 c 0,25,0
 327 738 327 738 370 699 c 128,-1,1
248.5 428 m 128,-1,27
 268 445 268 445 268 473 c 2,28,-1
 268 500 l 1,29,-1
 246 500 l 2,30,31
 195 500 195 500 171.5 488.5 c 128,-1,32
 148 477 148 477 148 451 c 0,33,34
 148 411 148 411 197 411 c 0,35,26
 229 411 229 411 248.5 428 c 128,-1,27
EndSplineSet
EndChar

StartChar: ordmasculine
Encoding: 186 186 406
Width: 485
Flags: W
LayerCount: 2
Fore
SplineSet
84 361.5 m 128,-1,1
 29 417 29 417 29 522 c 256,2,3
 29 627 29 627 84 682.5 c 128,-1,4
 139 738 139 738 243 738 c 256,5,6
 347 738 347 738 402 682.5 c 128,-1,7
 457 627 457 627 457 522 c 256,8,9
 457 417 457 417 402 361.5 c 128,-1,10
 347 306 347 306 243 306 c 256,11,0
 139 306 139 306 84 361.5 c 128,-1,1
311 522 m 256,13,14
 311 630 311 630 243 630 c 0,15,16
 208 630 208 630 191.5 603.5 c 128,-1,17
 175 577 175 577 175 522 c 256,18,19
 175 467 175 467 191.5 440.5 c 128,-1,20
 208 414 208 414 243 414 c 0,21,12
 311 414 311 414 311 522 c 256,13,14
EndSplineSet
EndChar

StartChar: zero.lf
Encoding: 1114117 -1 417
Width: 650
Flags: W
LayerCount: 2
Fore
SplineSet
103.5 80.5 m 128,-1,1
 33 171 33 171 33 365 c 256,2,3
 33 559 33 559 103.5 649.5 c 128,-1,4
 174 740 174 740 325 740 c 256,5,6
 476 740 476 740 546.5 649.5 c 128,-1,7
 617 559 617 559 617 365 c 256,8,9
 617 171 617 171 546.5 80.5 c 128,-1,10
 476 -10 476 -10 325 -10 c 256,11,0
 174 -10 174 -10 103.5 80.5 c 128,-1,1
414.5 190.5 m 128,-1,13
 442 244 442 244 442 365 c 256,14,15
 442 486 442 486 414.5 539.5 c 128,-1,16
 387 593 387 593 325 593 c 256,17,18
 263 593 263 593 235.5 539.5 c 128,-1,19
 208 486 208 486 208 365 c 256,20,21
 208 244 208 244 235.5 190.5 c 128,-1,22
 263 137 263 137 325 137 c 256,23,12
 387 137 387 137 414.5 190.5 c 128,-1,13
EndSplineSet
Substitution2: "'tnum' Tabular Numbers in Latin lookup 11 subtable" zero
AlternateSubs2: "'aalt' Access All Alternates in Latin lookup 1 subtable" zero
EndChar

StartChar: one.lf
Encoding: 1114118 -1 418
Width: 650
Flags: W
LayerCount: 2
Fore
SplineSet
302 518 m 1,0,-1
 300 518 l 1,1,-1
 109 344 l 1,2,-1
 36 483 l 1,3,-1
 298 730 l 1,4,-1
 476 730 l 1,5,-1
 476 0 l 1,6,-1
 302 0 l 1,7,-1
 302 518 l 1,0,-1
EndSplineSet
Substitution2: "'tnum' Tabular Numbers in Latin lookup 11 subtable" one
AlternateSubs2: "'aalt' Access All Alternates in Latin lookup 1 subtable" one
EndChar

StartChar: two.lf
Encoding: 1114119 -1 419
Width: 650
Flags: W
LayerCount: 2
Fore
SplineSet
322 360.5 m 128,-1,1
 396 443 396 443 396 507 c 0,2,3
 396 548 396 548 369.5 570.5 c 128,-1,4
 343 593 343 593 294 593 c 0,5,6
 253 593 253 593 206 575 c 128,-1,7
 159 557 159 557 99 518 c 1,8,-1
 52 660 l 1,9,10
 103 696 103 696 175.5 718 c 128,-1,11
 248 740 248 740 319 740 c 0,12,13
 435 740 435 740 502.5 681.5 c 128,-1,14
 570 623 570 623 570 523 c 0,15,16
 570 429 570 429 505.5 337.5 c 128,-1,17
 441 246 441 246 306 145 c 1,18,-1
 306 143 l 1,19,-1
 576 143 l 1,20,-1
 576 0 l 1,21,-1
 71 0 l 1,22,-1
 71 143 l 1,23,0
 248 278 248 278 322 360.5 c 128,-1,1
EndSplineSet
Substitution2: "'tnum' Tabular Numbers in Latin lookup 11 subtable" two
AlternateSubs2: "'aalt' Access All Alternates in Latin lookup 1 subtable" two
EndChar

StartChar: three.lf
Encoding: 1114120 -1 420
Width: 650
Flags: W
LayerCount: 2
Fore
SplineSet
58 50 m 1,1,-1
 103 183 l 1,2,3
 155 157 155 157 197 145 c 128,-1,4
 239 133 239 133 281 133 c 0,5,6
 398 133 398 133 398 224 c 0,7,8
 398 257 398 257 381.5 275.5 c 128,-1,9
 365 294 365 294 326 302 c 128,-1,10
 287 310 287 310 219 310 c 2,11,-1
 172 310 l 1,12,-1
 172 439 l 1,13,-1
 357 585 l 1,14,-1
 357 587 l 1,15,-1
 73 587 l 1,16,-1
 73 730 l 1,17,-1
 563 730 l 1,18,-1
 563 587 l 1,19,-1
 368 434 l 1,20,-1
 368 432 l 1,21,-1
 377 432 l 2,22,23
 470 432 470 432 521.5 378.5 c 128,-1,24
 573 325 573 325 573 228 c 0,25,26
 573 114 573 114 501.5 52 c 128,-1,27
 430 -10 430 -10 298 -10 c 0,28,0
 170 -10 170 -10 58 50 c 1,1,-1
EndSplineSet
Substitution2: "'tnum' Tabular Numbers in Latin lookup 11 subtable" three
AlternateSubs2: "'aalt' Access All Alternates in Latin lookup 1 subtable" three
EndChar

StartChar: four.lf
Encoding: 1114121 -1 421
Width: 650
Flags: W
LayerCount: 2
Fore
SplineSet
345 131 m 1,0,-1
 15 131 l 1,1,-1
 15 274 l 1,2,-1
 345 730 l 1,3,-1
 515 730 l 1,4,-1
 515 274 l 1,5,-1
 613 274 l 1,6,-1
 613 131 l 1,7,-1
 515 131 l 1,8,-1
 515 0 l 1,9,-1
 345 0 l 1,10,-1
 345 131 l 1,0,-1
352 268 m 1,11,-1
 352 506 l 1,12,-1
 350 506 l 1,13,-1
 179 270 l 1,14,-1
 179 268 l 1,15,-1
 352 268 l 1,11,-1
EndSplineSet
Substitution2: "'tnum' Tabular Numbers in Latin lookup 11 subtable" four
AlternateSubs2: "'aalt' Access All Alternates in Latin lookup 1 subtable" four
EndChar

StartChar: five.lf
Encoding: 1114122 -1 422
Width: 650
Flags: W
LayerCount: 2
Fore
SplineSet
66 33 m 1,1,-1
 103 173 l 1,2,3
 151 152 151 152 191.5 142.5 c 128,-1,4
 232 133 232 133 273 133 c 0,5,6
 414 133 414 133 414 250 c 0,7,8
 414 341 414 341 328 341 c 0,9,10
 303 341 303 341 283 332.5 c 128,-1,11
 263 324 263 324 238 303 c 1,12,-1
 87 303 l 1,13,-1
 108 730 l 1,14,-1
 554 730 l 1,15,-1
 554 587 l 1,16,-1
 261 587 l 1,17,-1
 255 456 l 1,18,-1
 257 456 l 1,19,20
 279 467 279 467 300 471.5 c 128,-1,21
 321 476 321 476 349 476 c 0,22,23
 464 476 464 476 526 416 c 128,-1,24
 588 356 588 356 588 243 c 0,25,26
 588 118 588 118 510 54 c 128,-1,27
 432 -10 432 -10 281 -10 c 0,28,0
 167 -10 167 -10 66 33 c 1,1,-1
EndSplineSet
Substitution2: "'tnum' Tabular Numbers in Latin lookup 11 subtable" five
AlternateSubs2: "'aalt' Access All Alternates in Latin lookup 1 subtable" five
EndChar

StartChar: six.lf
Encoding: 1114123 -1 423
Width: 650
Flags: W
LayerCount: 2
Fore
SplineSet
43 273 m 0,1,2
 43 406 43 406 94 508.5 c 128,-1,3
 145 611 145 611 238.5 670.5 c 128,-1,4
 332 730 332 730 458 738 c 1,5,-1
 489 600 l 1,6,7
 386 593 386 593 324.5 558.5 c 128,-1,8
 263 524 263 524 234 457 c 1,9,-1
 236 455 l 1,10,11
 267 474 267 474 298.5 482 c 128,-1,12
 330 490 330 490 367 490 c 0,13,14
 479 490 479 490 543.5 425 c 128,-1,15
 608 360 608 360 608 248 c 0,16,17
 608 169 608 169 574 110.5 c 128,-1,18
 540 52 540 52 476 21 c 128,-1,19
 412 -10 412 -10 325 -10 c 0,20,0
 43 -10 43 -10 43 273 c 0,1,2
408 157 m 128,-1,22
 438 188 438 188 438 244 c 256,23,24
 438 300 438 300 408 331 c 128,-1,25
 378 362 378 362 325 362 c 256,26,27
 272 362 272 362 242.5 331 c 128,-1,28
 213 300 213 300 213 244 c 256,29,30
 213 188 213 188 242.5 157 c 128,-1,31
 272 126 272 126 325 126 c 256,32,21
 378 126 378 126 408 157 c 128,-1,22
EndSplineSet
Substitution2: "'tnum' Tabular Numbers in Latin lookup 11 subtable" six
AlternateSubs2: "'aalt' Access All Alternates in Latin lookup 1 subtable" six
EndChar

StartChar: seven.lf
Encoding: 1114124 -1 424
Width: 650
Flags: W
LayerCount: 2
Fore
SplineSet
389 579 m 1,1,-1
 389 583 l 1,2,-1
 71 583 l 1,3,-1
 71 730 l 1,4,-1
 588 730 l 1,5,-1
 588 593 l 1,6,7
 506 454 506 454 446 316.5 c 128,-1,8
 386 179 386 179 328 0 c 1,9,-1
 139 0 l 1,10,0
 238 310 238 310 389 579 c 1,1,-1
EndSplineSet
Substitution2: "'tnum' Tabular Numbers in Latin lookup 11 subtable" seven
AlternateSubs2: "'aalt' Access All Alternates in Latin lookup 1 subtable" seven
EndChar

StartChar: eight.lf
Encoding: 1114125 -1 425
Width: 650
Flags: W
LayerCount: 2
Fore
SplineSet
170 15.5 m 128,-1,1
 104 41 104 41 68.5 87.5 c 128,-1,2
 33 134 33 134 33 198 c 0,3,4
 33 256 33 256 65 297 c 128,-1,5
 97 338 97 338 166 370 c 1,6,-1
 166 372 l 1,7,8
 114 405 114 405 84.5 453.5 c 128,-1,9
 55 502 55 502 55 554 c 0,10,11
 55 610 55 610 88 652.5 c 128,-1,12
 121 695 121 695 182 717.5 c 128,-1,13
 243 740 243 740 325 740 c 0,14,15
 405 740 405 740 466.5 717 c 128,-1,16
 528 694 528 694 561.5 651.5 c 128,-1,17
 595 609 595 609 595 554 c 0,18,19
 595 505 595 505 566 465.5 c 128,-1,20
 537 426 537 426 478 392 c 1,21,-1
 478 390 l 1,22,23
 617 328 617 328 617 198 c 0,24,25
 617 100 617 100 539.5 45 c 128,-1,26
 462 -10 462 -10 325 -10 c 0,27,0
 236 -10 236 -10 170 15.5 c 128,-1,1
425 538 m 0,29,30
 425 571 425 571 398.5 589.5 c 128,-1,31
 372 608 372 608 325 608 c 256,32,33
 278 608 278 608 251.5 589.5 c 128,-1,34
 225 571 225 571 225 538 c 0,35,36
 225 506 225 506 251 483.5 c 128,-1,37
 277 461 277 461 332 444 c 1,38,28
 425 479 425 479 425 538 c 0,29,30
410 145 m 128,-1,40
 442 168 442 168 442 207 c 0,41,42
 442 242 442 242 410.5 267 c 128,-1,43
 379 292 379 292 307 314 c 1,44,45
 259 295 259 295 233.5 267.5 c 128,-1,46
 208 240 208 240 208 207 c 0,47,48
 208 168 208 168 240 145 c 128,-1,49
 272 122 272 122 325 122 c 256,50,39
 378 122 378 122 410 145 c 128,-1,40
EndSplineSet
Substitution2: "'tnum' Tabular Numbers in Latin lookup 11 subtable" eight
AlternateSubs2: "'aalt' Access All Alternates in Latin lookup 1 subtable" eight
EndChar

StartChar: nine.lf
Encoding: 1114126 -1 426
Width: 650
Flags: W
LayerCount: 2
Fore
SplineSet
607 457 m 0,1,2
 607 324 607 324 556 221.5 c 128,-1,3
 505 119 505 119 411.5 59.5 c 128,-1,4
 318 0 318 0 192 -8 c 1,5,-1
 161 130 l 1,6,7
 264 137 264 137 325.5 171.5 c 128,-1,8
 387 206 387 206 416 273 c 1,9,-1
 414 275 l 1,10,11
 383 256 383 256 351.5 248 c 128,-1,12
 320 240 320 240 283 240 c 0,13,14
 171 240 171 240 106.5 305 c 128,-1,15
 42 370 42 370 42 482 c 0,16,17
 42 561 42 561 76 619.5 c 128,-1,18
 110 678 110 678 174 709 c 128,-1,19
 238 740 238 740 325 740 c 0,20,0
 607 740 607 740 607 457 c 0,1,2
242 573 m 128,-1,22
 212 542 212 542 212 486 c 256,23,24
 212 430 212 430 242 399 c 128,-1,25
 272 368 272 368 325 368 c 256,26,27
 378 368 378 368 407.5 399 c 128,-1,28
 437 430 437 430 437 486 c 256,29,30
 437 542 437 542 407.5 573 c 128,-1,31
 378 604 378 604 325 604 c 256,32,21
 272 604 272 604 242 573 c 128,-1,22
EndSplineSet
Substitution2: "'tnum' Tabular Numbers in Latin lookup 11 subtable" nine
AlternateSubs2: "'aalt' Access All Alternates in Latin lookup 1 subtable" nine
EndChar

StartChar: uni2070
Encoding: 8304 8304 427
Width: 393
Flags: W
LayerCount: 2
Fore
SplineSet
64 340.5 m 128,-1,1
 22 395 22 395 22 511 c 256,2,3
 22 627 22 627 64 681.5 c 128,-1,4
 106 736 106 736 197 736 c 0,5,6
 287 736 287 736 329.5 681.5 c 128,-1,7
 372 627 372 627 372 511 c 256,8,9
 372 395 372 395 329.5 340.5 c 128,-1,10
 287 286 287 286 197 286 c 0,11,0
 106 286 106 286 64 340.5 c 128,-1,1
232 423.5 m 128,-1,13
 243 449 243 449 243 511 c 256,14,15
 243 573 243 573 232 598.5 c 128,-1,16
 221 624 221 624 197 624 c 0,17,18
 172 624 172 624 161.5 598.5 c 128,-1,19
 151 573 151 573 151 511 c 256,20,21
 151 449 151 449 161.5 423.5 c 128,-1,22
 172 398 172 398 197 398 c 0,23,12
 221 398 221 398 232 423.5 c 128,-1,13
EndSplineSet
EndChar

StartChar: uni00B9
Encoding: 185 185 428
Width: 387
Flags: W
LayerCount: 2
Fore
SplineSet
169 570 m 1,0,-1
 167 570 l 1,1,-1
 69 477 l 1,2,-1
 12 582 l 1,3,-1
 169 730 l 1,4,-1
 301 730 l 1,5,-1
 301 292 l 1,6,-1
 169 292 l 1,7,-1
 169 570 l 1,0,-1
EndSplineSet
EndChar

StartChar: uni00B2
Encoding: 178 178 429
Width: 393
Flags: W
LayerCount: 2
Fore
SplineSet
177.5 507.5 m 128,-1,1
 215 546 215 546 215 578 c 0,2,3
 215 600 215 600 200.5 612 c 128,-1,4
 186 624 186 624 162 624 c 0,5,6
 121 624 121 624 59 583 c 1,7,-1
 32 689 l 1,8,9
 62 711 62 711 105.5 723.5 c 128,-1,10
 149 736 149 736 192 736 c 0,11,12
 263 736 263 736 303.5 701 c 128,-1,13
 344 666 344 666 344 605 c 0,14,15
 344 503 344 503 219 403 c 1,16,-1
 219 401 l 1,17,-1
 347 401 l 1,18,-1
 347 292 l 1,19,-1
 44 292 l 1,20,-1
 44 401 l 1,21,0
 140 469 140 469 177.5 507.5 c 128,-1,1
EndSplineSet
EndChar

StartChar: uni00B3
Encoding: 179 179 430
Width: 393
Flags: W
LayerCount: 2
Fore
SplineSet
34 320 m 1,1,-1
 59 419 l 1,2,3
 111 395 111 395 153 395 c 0,4,5
 213 395 213 395 213 434 c 0,6,7
 213 455 213 455 193.5 463.5 c 128,-1,8
 174 472 174 472 125 472 c 2,9,-1
 102 472 l 1,10,-1
 102 558 l 1,11,-1
 182 619 l 1,12,-1
 182 621 l 1,13,-1
 42 621 l 1,14,-1
 42 730 l 1,15,-1
 336 730 l 1,16,-1
 336 621 l 1,17,-1
 245 550 l 1,18,-1
 245 548 l 1,19,20
 289 547 289 547 315.5 514.5 c 128,-1,21
 342 482 342 482 342 429 c 0,22,23
 342 361 342 361 299 323.5 c 128,-1,24
 256 286 256 286 178 286 c 0,25,0
 101 286 101 286 34 320 c 1,1,-1
EndSplineSet
EndChar

StartChar: uni2074
Encoding: 8308 8308 431
Width: 393
Flags: W
LayerCount: 2
Fore
SplineSet
191 359 m 1,0,-1
 5 359 l 1,1,-1
 5 468 l 1,2,-1
 199 730 l 1,3,-1
 318 730 l 1,4,-1
 318 468 l 1,5,-1
 364 468 l 1,6,-1
 364 359 l 1,7,-1
 318 359 l 1,8,-1
 318 292 l 1,9,-1
 191 292 l 1,10,-1
 191 359 l 1,0,-1
199 460 m 1,11,-1
 199 575 l 1,12,-1
 197 575 l 1,13,-1
 114 462 l 1,14,-1
 114 460 l 1,15,-1
 199 460 l 1,11,-1
EndSplineSet
EndChar

StartChar: fraction
Encoding: 8260 8260 432
Width: 539
Flags: W
LayerCount: 2
Fore
SplineSet
395 730 m 1,0,-1
 530 730 l 1,1,-1
 144 0 l 1,2,-1
 9 0 l 1,3,-1
 395 730 l 1,0,-1
EndSplineSet
EndChar

StartChar: onehalf
Encoding: 189 189 433
Width: 923
Flags: W
LayerCount: 2
Fore
SplineSet
172 570 m 1,0,-1
 74 477 l 1,1,-1
 17 582 l 1,2,-1
 174 730 l 1,3,-1
 305 730 l 1,4,-1
 305 292 l 1,5,-1
 174 292 l 1,6,-1
 174 570 l 1,7,-1
 172 570 l 1,0,-1
584 730 m 1,8,-1
 719 730 l 1,9,-1
 332 0 l 1,10,-1
 197 0 l 1,11,-1
 584 730 l 1,8,-1
704.5 215.5 m 128,-1,13
 742 254 742 254 742 286 c 0,14,15
 742 308 742 308 727.5 320 c 128,-1,16
 713 332 713 332 689 332 c 0,17,18
 648 332 648 332 586 291 c 1,19,-1
 559 397 l 1,20,21
 589 419 589 419 632.5 431.5 c 128,-1,22
 676 444 676 444 719 444 c 0,23,24
 790 444 790 444 830.5 409 c 128,-1,25
 871 374 871 374 871 313 c 0,26,27
 871 211 871 211 746 111 c 1,28,-1
 746 109 l 1,29,-1
 874 109 l 1,30,-1
 874 0 l 1,31,-1
 571 0 l 1,32,-1
 571 109 l 1,33,12
 667 177 667 177 704.5 215.5 c 128,-1,13
EndSplineSet
Ligature2: "'frac' Diagonal Fractions in Latin lookup 7 subtable" one slash two
EndChar

StartChar: onequarter
Encoding: 188 188 434
Width: 889
Flags: W
LayerCount: 2
Fore
SplineSet
172 570 m 1,0,-1
 74 477 l 1,1,-1
 17 582 l 1,2,-1
 174 730 l 1,3,-1
 305 730 l 1,4,-1
 305 292 l 1,5,-1
 174 292 l 1,6,-1
 174 570 l 1,7,-1
 172 570 l 1,0,-1
584 730 m 1,8,-1
 719 730 l 1,9,-1
 332 0 l 1,10,-1
 197 0 l 1,11,-1
 584 730 l 1,8,-1
495 67 m 1,12,-1
 495 176 l 1,13,-1
 689 438 l 1,14,-1
 807 438 l 1,15,-1
 807 176 l 1,16,-1
 854 176 l 1,17,-1
 854 67 l 1,18,-1
 807 67 l 1,19,-1
 807 0 l 1,20,-1
 681 0 l 1,21,-1
 681 67 l 1,22,-1
 495 67 l 1,12,-1
689 283 m 1,23,-1
 687 283 l 1,24,-1
 604 170 l 1,25,-1
 604 168 l 1,26,-1
 689 168 l 1,27,-1
 689 283 l 1,23,-1
EndSplineSet
Ligature2: "'frac' Diagonal Fractions in Latin lookup 7 subtable" one slash four
EndChar

StartChar: threequarters
Encoding: 190 190 435
Width: 867
Flags: W
LayerCount: 2
Fore
SplineSet
35 320 m 1,1,-1
 61 419 l 1,2,3
 113 395 113 395 155 395 c 0,4,5
 214 395 214 395 214 434 c 0,6,7
 214 455 214 455 195 463.5 c 128,-1,8
 176 472 176 472 126 472 c 2,9,-1
 103 472 l 1,10,-1
 103 558 l 1,11,-1
 184 619 l 1,12,-1
 184 621 l 1,13,-1
 43 621 l 1,14,-1
 43 730 l 1,15,-1
 337 730 l 1,16,-1
 337 621 l 1,17,-1
 247 550 l 1,18,-1
 247 548 l 1,19,20
 291 547 291 547 317 514.5 c 128,-1,21
 343 482 343 482 343 429 c 0,22,23
 343 361 343 361 300.5 323.5 c 128,-1,24
 258 286 258 286 179 286 c 0,25,0
 102 286 102 286 35 320 c 1,1,-1
561 730 m 1,26,-1
 696 730 l 1,27,-1
 310 0 l 1,28,-1
 175 0 l 1,29,-1
 561 730 l 1,26,-1
472 67 m 1,30,-1
 472 176 l 1,31,-1
 666 438 l 1,32,-1
 785 438 l 1,33,-1
 785 176 l 1,34,-1
 831 176 l 1,35,-1
 831 67 l 1,36,-1
 785 67 l 1,37,-1
 785 0 l 1,38,-1
 658 0 l 1,39,-1
 658 67 l 1,40,-1
 472 67 l 1,30,-1
666 283 m 1,41,-1
 664 283 l 1,42,-1
 581 170 l 1,43,-1
 581 168 l 1,44,-1
 666 168 l 1,45,-1
 666 283 l 1,41,-1
EndSplineSet
Ligature2: "'frac' Diagonal Fractions in Latin lookup 7 subtable" three slash four
EndChar

StartChar: period
Encoding: 46 46 436
Width: 317
Flags: W
LayerCount: 2
Fore
SplineSet
70 177 m 1,0,-1
 247 177 l 1,1,-1
 247 0 l 1,2,-1
 70 0 l 1,3,-1
 70 177 l 1,0,-1
EndSplineSet
EndChar

StartChar: comma
Encoding: 44 44 437
Width: 317
Flags: W
LayerCount: 2
Fore
SplineSet
80 177 m 1,0,-1
 263 177 l 1,1,-1
 150 -123 l 1,2,-1
 16 -123 l 1,3,-1
 80 177 l 1,0,-1
EndSplineSet
EndChar

StartChar: colon
Encoding: 58 58 438
Width: 317
Flags: W
LayerCount: 2
Fore
SplineSet
70 520 m 1,0,-1
 247 520 l 1,1,-1
 247 343 l 1,2,-1
 70 343 l 1,3,-1
 70 520 l 1,0,-1
70 177 m 1,4,-1
 247 177 l 1,5,-1
 247 0 l 1,6,-1
 70 0 l 1,7,-1
 70 177 l 1,4,-1
EndSplineSet
Substitution2: "'aalt' Access All Alternates in Latin lookup 0 subtable" uniFF1A
EndChar

StartChar: semicolon
Encoding: 59 59 439
Width: 317
Flags: W
LayerCount: 2
Fore
SplineSet
83 520 m 1,0,-1
 260 520 l 1,1,-1
 260 343 l 1,2,-1
 83 343 l 1,3,-1
 83 520 l 1,0,-1
85 177 m 1,4,-1
 269 177 l 1,5,-1
 150 -123 l 1,6,-1
 17 -123 l 1,7,-1
 85 177 l 1,4,-1
EndSplineSet
EndChar

StartChar: exclam
Encoding: 33 33 441
Width: 358
Flags: W
LayerCount: 2
Fore
SplineSet
77 730 m 1,0,-1
 281 730 l 1,1,-1
 256 232 l 1,2,-1
 102 232 l 1,3,-1
 77 730 l 1,0,-1
91 157 m 1,4,-1
 267 157 l 1,5,-1
 267 0 l 1,6,-1
 91 0 l 1,7,-1
 91 157 l 1,4,-1
EndSplineSet
Substitution2: "'aalt' Access All Alternates in Latin lookup 0 subtable" uniFF01
EndChar

StartChar: exclamdown
Encoding: 161 161 442
Width: 358
Flags: W
LayerCount: 2
Fore
SplineSet
91 520 m 1,0,-1
 267 520 l 1,1,-1
 267 363 l 1,2,-1
 91 363 l 1,3,-1
 91 520 l 1,0,-1
102 288 m 1,4,-1
 256 288 l 1,5,-1
 281 -210 l 1,6,-1
 77 -210 l 1,7,-1
 102 288 l 1,4,-1
EndSplineSet
EndChar

StartChar: question
Encoding: 63 63 443
Width: 587
Flags: W
LayerCount: 2
Fore
SplineSet
192 337 m 128,-1,1
 225 386 225 386 299 441 c 0,2,3
 347 475 347 475 364 496 c 128,-1,4
 381 517 381 517 381 540 c 0,5,6
 381 570 381 570 355 583.5 c 128,-1,7
 329 597 329 597 269 597 c 0,8,9
 177 597 177 597 55 558 c 1,10,-1
 23 701 l 1,11,12
 85 719 85 719 155.5 729.5 c 128,-1,13
 226 740 226 740 294 740 c 0,14,15
 559 740 559 740 559 565 c 0,16,17
 559 508 559 508 530.5 463.5 c 128,-1,18
 502 419 502 419 434 371 c 0,19,20
 335 302 335 302 329 232 c 1,21,-1
 159 232 l 1,22,0
 159 288 159 288 192 337 c 128,-1,1
156 157 m 1,23,-1
 333 157 l 1,24,-1
 333 0 l 1,25,-1
 156 0 l 1,26,-1
 156 157 l 1,23,-1
EndSplineSet
Substitution2: "'aalt' Access All Alternates in Latin lookup 0 subtable" uniFF1F
EndChar

StartChar: questiondown
Encoding: 191 191 444
Width: 587
Flags: W
LayerCount: 2
Fore
SplineSet
254 363 m 1,0,-1
 254 520 l 1,1,-1
 431 520 l 1,2,-1
 431 363 l 1,3,-1
 254 363 l 1,0,-1
395 183 m 128,-1,5
 362 134 362 134 288 79 c 0,6,7
 240 45 240 45 223 24 c 128,-1,8
 206 3 206 3 206 -20 c 0,9,10
 206 -50 206 -50 232 -63.5 c 128,-1,11
 258 -77 258 -77 318 -77 c 0,12,13
 410 -77 410 -77 532 -38 c 1,14,-1
 564 -181 l 1,15,16
 502 -199 502 -199 431.5 -209.5 c 128,-1,17
 361 -220 361 -220 293 -220 c 0,18,19
 28 -220 28 -220 28 -45 c 0,20,21
 28 12 28 12 56.5 56.5 c 128,-1,22
 85 101 85 101 153 149 c 0,23,24
 252 218 252 218 258 288 c 1,25,-1
 428 288 l 1,26,4
 428 232 428 232 395 183 c 128,-1,5
EndSplineSet
EndChar

StartChar: bullet
Encoding: 8226 8226 446
Width: 403
Flags: W
LayerCount: 2
Fore
SplineSet
132 169.5 m 128,-1,1
 100 188 100 188 81 220 c 128,-1,2
 62 252 62 252 62 290 c 256,3,4
 62 328 62 328 81 360 c 128,-1,5
 100 392 100 392 132 410.5 c 128,-1,6
 164 429 164 429 201 429 c 0,7,8
 239 429 239 429 271 410.5 c 128,-1,9
 303 392 303 392 322 360 c 128,-1,10
 341 328 341 328 341 290 c 256,11,12
 341 252 341 252 322 220 c 128,-1,13
 303 188 303 188 271 169.5 c 128,-1,14
 239 151 239 151 201 151 c 0,15,0
 164 151 164 151 132 169.5 c 128,-1,1
EndSplineSet
EndChar

StartChar: asterisk
Encoding: 42 42 447
Width: 530
Flags: W
LayerCount: 2
Fore
SplineSet
78 386 m 1,0,-1
 165 499 l 1,1,-1
 28 539 l 1,2,-1
 69 665 l 1,3,-1
 203 617 l 1,4,-1
 200 760 l 1,5,-1
 331 760 l 1,6,-1
 327 617 l 1,7,-1
 461 665 l 1,8,-1
 502 539 l 1,9,-1
 365 499 l 1,10,-1
 452 386 l 1,11,-1
 346 309 l 1,12,-1
 265 427 l 1,13,-1
 185 309 l 1,14,-1
 78 386 l 1,0,-1
EndSplineSet
EndChar

StartChar: numbersign
Encoding: 35 35 448
Width: 690
Flags: W
LayerCount: 2
Fore
SplineSet
655 455 m 1,0,-1
 555 455 l 1,1,-1
 526 295 l 1,2,-1
 602 295 l 1,3,-1
 602 163 l 1,4,-1
 502 163 l 1,5,-1
 474 0 l 1,6,-1
 320 0 l 1,7,-1
 349 163 l 1,8,-1
 266 163 l 1,9,-1
 237 0 l 1,10,-1
 84 0 l 1,11,-1
 112 163 l 1,12,-1
 35 163 l 1,13,-1
 35 295 l 1,14,-1
 136 295 l 1,15,-1
 164 455 l 1,16,-1
 88 455 l 1,17,-1
 88 587 l 1,18,-1
 187 587 l 1,19,-1
 213 730 l 1,20,-1
 366 730 l 1,21,-1
 341 587 l 1,22,-1
 424 587 l 1,23,-1
 449 730 l 1,24,-1
 603 730 l 1,25,-1
 578 587 l 1,26,-1
 655 587 l 1,27,-1
 655 455 l 1,0,-1
286 292 m 1,28,-1
 376 292 l 1,29,-1
 405 458 l 1,30,-1
 315 458 l 1,31,-1
 286 292 l 1,28,-1
EndSplineSet
EndChar

StartChar: slash
Encoding: 47 47 449
Width: 523
Flags: W
LayerCount: 2
Fore
SplineSet
357 750 m 1,0,-1
 514 750 l 1,1,-1
 166 -40 l 1,2,-1
 9 -40 l 1,3,-1
 357 750 l 1,0,-1
EndSplineSet
EndChar

StartChar: backslash
Encoding: 92 92 450
Width: 523
Flags: W
LayerCount: 2
Fore
SplineSet
514 -40 m 1,0,-1
 357 -40 l 1,1,-1
 9 750 l 1,2,-1
 166 750 l 1,3,-1
 514 -40 l 1,0,-1
EndSplineSet
EndChar

StartChar: parenleft
Encoding: 40 40 451
Width: 398
Flags: W
LayerCount: 2
Fore
SplineSet
109.5 91 m 128,-1,1
 70 206 70 206 70 330 c 0,2,3
 70 455 70 455 109.5 569.5 c 128,-1,4
 149 684 149 684 221 770 c 1,5,-1
 366 770 l 1,6,7
 295 671 295 671 261.5 563.5 c 128,-1,8
 228 456 228 456 228 330 c 256,9,10
 228 204 228 204 261.5 96.5 c 128,-1,11
 295 -11 295 -11 366 -110 c 1,12,-1
 221 -110 l 1,13,0
 149 -24 149 -24 109.5 91 c 128,-1,1
EndSplineSet
Substitution2: "'aalt' Access All Alternates in Latin lookup 0 subtable" uniFF08
EndChar

StartChar: parenright
Encoding: 41 41 452
Width: 398
Flags: W
LayerCount: 2
Fore
SplineSet
32 -110 m 1,0,1
 103 -11 103 -11 136.5 96.5 c 128,-1,2
 170 204 170 204 170 330 c 256,3,4
 170 456 170 456 136.5 563.5 c 128,-1,5
 103 671 103 671 32 770 c 1,6,-1
 177 770 l 1,7,8
 249 684 249 684 288.5 569.5 c 128,-1,9
 328 455 328 455 328 330 c 0,10,11
 328 206 328 206 288.5 91 c 128,-1,12
 249 -24 249 -24 177 -110 c 1,13,-1
 32 -110 l 1,0,1
EndSplineSet
Substitution2: "'aalt' Access All Alternates in Latin lookup 0 subtable" uniFF09
EndChar

StartChar: braceleft
Encoding: 123 123 453
Width: 513
Flags: W
LayerCount: 2
Fore
SplineSet
221 -71.5 m 128,-1,1
 183 -33 183 -33 183 55 c 2,2,-1
 183 147 l 2,3,4
 183 208 183 208 163 234 c 128,-1,5
 143 260 143 260 95 260 c 2,6,-1
 53 260 l 1,7,-1
 53 400 l 1,8,-1
 95 400 l 2,9,10
 143 400 143 400 163 426 c 128,-1,11
 183 452 183 452 183 513 c 2,12,-1
 183 605 l 2,13,14
 183 693 183 693 221 731.5 c 128,-1,15
 259 770 259 770 345 770 c 2,16,-1
 467 770 l 1,17,-1
 467 652 l 1,18,-1
 423 652 l 2,19,20
 380 652 380 652 362 645.5 c 128,-1,21
 344 639 344 639 338 620.5 c 128,-1,22
 332 602 332 602 332 557 c 2,23,-1
 332 499 l 2,24,25
 332 429 332 429 306 390 c 128,-1,26
 280 351 280 351 221 331 c 1,27,-1
 221 329 l 1,28,29
 280 309 280 309 306 270 c 128,-1,30
 332 231 332 231 332 161 c 2,31,-1
 332 103 l 2,32,33
 332 58 332 58 338 39.5 c 128,-1,34
 344 21 344 21 362 14.5 c 128,-1,35
 380 8 380 8 423 8 c 2,36,-1
 467 8 l 1,37,-1
 467 -110 l 1,38,-1
 345 -110 l 2,39,0
 259 -110 259 -110 221 -71.5 c 128,-1,1
EndSplineSet
EndChar

StartChar: braceright
Encoding: 125 125 454
Width: 513
Flags: W
LayerCount: 2
Fore
SplineSet
46 -110 m 1,0,-1
 46 8 l 1,1,-1
 90 8 l 2,2,3
 133 8 133 8 151 14.5 c 128,-1,4
 169 21 169 21 175 39.5 c 128,-1,5
 181 58 181 58 181 103 c 2,6,-1
 181 161 l 2,7,8
 181 231 181 231 207 270 c 128,-1,9
 233 309 233 309 292 329 c 1,10,-1
 292 331 l 1,11,12
 233 351 233 351 207 390 c 128,-1,13
 181 429 181 429 181 499 c 2,14,-1
 181 557 l 2,15,16
 181 602 181 602 175 620.5 c 128,-1,17
 169 639 169 639 151 645.5 c 128,-1,18
 133 652 133 652 90 652 c 2,19,-1
 46 652 l 1,20,-1
 46 770 l 1,21,-1
 168 770 l 2,22,23
 254 770 254 770 292 731.5 c 128,-1,24
 330 693 330 693 330 605 c 2,25,-1
 330 513 l 2,26,27
 330 452 330 452 350 426 c 128,-1,28
 370 400 370 400 418 400 c 2,29,-1
 460 400 l 1,30,-1
 460 260 l 1,31,-1
 418 260 l 2,32,33
 370 260 370 260 350 234 c 128,-1,34
 330 208 330 208 330 147 c 2,35,-1
 330 55 l 2,36,37
 330 -33 330 -33 292 -71.5 c 128,-1,38
 254 -110 254 -110 168 -110 c 2,39,-1
 46 -110 l 1,0,-1
EndSplineSet
EndChar

StartChar: bracketleft
Encoding: 91 91 455
Width: 454
Flags: W
LayerCount: 2
Fore
SplineSet
77 770 m 1,0,-1
 416 770 l 1,1,-1
 416 652 l 1,2,-1
 226 652 l 1,3,-1
 226 8 l 1,4,-1
 416 8 l 1,5,-1
 416 -110 l 1,6,-1
 77 -110 l 1,7,-1
 77 770 l 1,0,-1
EndSplineSet
EndChar

StartChar: bracketright
Encoding: 93 93 456
Width: 454
Flags: W
LayerCount: 2
Fore
SplineSet
377 -110 m 1,0,-1
 39 -110 l 1,1,-1
 39 8 l 1,2,-1
 229 8 l 1,3,-1
 229 652 l 1,4,-1
 39 652 l 1,5,-1
 39 770 l 1,6,-1
 377 770 l 1,7,-1
 377 -110 l 1,0,-1
EndSplineSet
EndChar

StartChar: hyphen
Encoding: 45 45 457
Width: 443
Flags: W
LayerCount: 2
Fore
SplineSet
53 363 m 1,0,-1
 390 363 l 1,1,-1
 390 217 l 1,2,-1
 53 217 l 1,3,-1
 53 363 l 1,0,-1
EndSplineSet
EndChar

StartChar: endash
Encoding: 8211 8211 459
Width: 500
Flags: W
LayerCount: 2
Fore
SplineSet
0 363 m 1,0,-1
 500 363 l 1,1,-1
 500 217 l 1,2,-1
 0 217 l 1,3,-1
 0 363 l 1,0,-1
EndSplineSet
EndChar

StartChar: emdash
Encoding: 8212 8212 460
Width: 1000
Flags: W
LayerCount: 2
Fore
SplineSet
0 363 m 1,0,-1
 1000 363 l 1,1,-1
 1000 217 l 1,2,-1
 0 217 l 1,3,-1
 0 363 l 1,0,-1
EndSplineSet
EndChar

StartChar: uni2015
Encoding: 8213 8213 461
Width: 1000
Flags: W
LayerCount: 2
Fore
SplineSet
50 433 m 1,0,-1
 950 433 l 1,1,-1
 950 287 l 1,2,-1
 50 287 l 1,3,-1
 50 433 l 1,0,-1
EndSplineSet
EndChar

StartChar: underscore
Encoding: 95 95 462
Width: 627
Flags: W
LayerCount: 2
Fore
SplineSet
0 -73 m 1,0,-1
 627 -73 l 1,1,-1
 627 -188 l 1,2,-1
 0 -188 l 1,3,-1
 0 -73 l 1,0,-1
EndSplineSet
EndChar

StartChar: quoteleft
Encoding: 8216 8216 467
Width: 321
Flags: W
LayerCount: 2
Fore
SplineSet
209 470 m 1,0,-1
 25 470 l 1,1,-1
 144 770 l 1,2,-1
 277 770 l 1,3,-1
 209 470 l 1,0,-1
EndSplineSet
EndChar

StartChar: quoteright
Encoding: 8217 8217 468
Width: 321
Flags: W
LayerCount: 2
Fore
SplineSet
112 770 m 1,0,-1
 296 770 l 1,1,-1
 177 470 l 1,2,-1
 44 470 l 1,3,-1
 112 770 l 1,0,-1
EndSplineSet
EndChar

StartChar: guillemotleft
Encoding: 171 171 469
Width: 570
Flags: W
LayerCount: 2
Fore
SplineSet
6 290 m 1,0,-1
 161 520 l 1,1,-1
 310 520 l 1,2,-1
 151 290 l 1,3,-1
 310 60 l 1,4,-1
 161 60 l 1,5,-1
 6 290 l 1,0,-1
240 290 m 1,6,-1
 394 520 l 1,7,-1
 544 520 l 1,8,-1
 385 290 l 1,9,-1
 544 60 l 1,10,-1
 394 60 l 1,11,-1
 240 290 l 1,6,-1
EndSplineSet
EndChar

StartChar: guillemotright
Encoding: 187 187 470
Width: 570
Flags: W
LayerCount: 2
Fore
SplineSet
175 60 m 1,0,-1
 26 60 l 1,1,-1
 185 290 l 1,2,-1
 26 520 l 1,3,-1
 175 520 l 1,4,-1
 330 290 l 1,5,-1
 175 60 l 1,0,-1
409 60 m 1,6,-1
 259 60 l 1,7,-1
 418 290 l 1,8,-1
 259 520 l 1,9,-1
 409 520 l 1,10,-1
 563 290 l 1,11,-1
 409 60 l 1,6,-1
EndSplineSet
EndChar

StartChar: guilsinglleft
Encoding: 8249 8249 471
Width: 347
Flags: W
LayerCount: 2
Fore
SplineSet
7 290 m 1,0,-1
 167 520 l 1,1,-1
 321 520 l 1,2,-1
 157 290 l 1,3,-1
 321 60 l 1,4,-1
 167 60 l 1,5,-1
 7 290 l 1,0,-1
EndSplineSet
EndChar

StartChar: guilsinglright
Encoding: 8250 8250 472
Width: 347
Flags: W
LayerCount: 2
Fore
SplineSet
181 60 m 1,0,-1
 26 60 l 1,1,-1
 191 290 l 1,2,-1
 26 520 l 1,3,-1
 181 520 l 1,4,-1
 341 290 l 1,5,-1
 181 60 l 1,0,-1
EndSplineSet
EndChar

StartChar: quotedbl
Encoding: 34 34 473
Width: 559
Flags: W
LayerCount: 2
Fore
SplineSet
70 770 m 1,0,-1
 251 770 l 1,1,-1
 226 470 l 1,2,-1
 95 470 l 1,3,-1
 70 770 l 1,0,-1
307 770 m 1,4,-1
 488 770 l 1,5,-1
 464 470 l 1,6,-1
 332 470 l 1,7,-1
 307 770 l 1,4,-1
EndSplineSet
EndChar

StartChar: quotesingle
Encoding: 39 39 474
Width: 323
Flags: W
LayerCount: 2
Fore
SplineSet
70 770 m 1,0,-1
 253 770 l 1,1,-1
 228 470 l 1,2,-1
 95 470 l 1,3,-1
 70 770 l 1,0,-1
EndSplineSet
EndChar

StartChar: uni20B5
Encoding: 8373 8373 476
Width: 721
Flags: W
LayerCount: 2
Fore
SplineSet
679 56 m 1,0,1
 592 5 592 5 484 -7 c 1,2,-1
 484 -105 l 1,3,-1
 353 -105 l 1,4,-1
 353 -7 l 1,5,6
 200 10 200 10 117.5 106.5 c 128,-1,7
 35 203 35 203 35 365 c 0,8,9
 35 528 35 528 117.5 624 c 128,-1,10
 200 720 200 720 353 737 c 1,11,-1
 353 835 l 1,12,-1
 484 835 l 1,13,-1
 484 737 l 1,14,15
 592 725 592 725 679 674 c 1,16,-1
 610 541 l 1,17,18
 543 577 543 577 484 587 c 1,19,-1
 484 143 l 1,20,21
 543 153 543 153 610 189 c 1,22,-1
 679 56 l 1,0,1
240 218.5 m 128,-1,24
 279 162 279 162 353 144 c 1,25,-1
 353 586 l 1,26,27
 279 568 279 568 240 511.5 c 128,-1,28
 201 455 201 455 201 365 c 256,29,23
 201 275 201 275 240 218.5 c 128,-1,24
EndSplineSet
EndChar

StartChar: cent
Encoding: 162 162 477
Width: 571
Flags: W
LayerCount: 2
Fore
SplineSet
524 29 m 1,0,1
 473 5 473 5 416 -4 c 1,2,-1
 416 -105 l 1,3,-1
 296 -105 l 1,4,-1
 296 -8 l 1,5,6
 169 2 169 2 100.5 71.5 c 128,-1,7
 32 141 32 141 32 260 c 256,8,9
 32 379 32 379 100.5 448.5 c 128,-1,10
 169 518 169 518 296 528 c 1,11,-1
 296 625 l 1,12,-1
 416 625 l 1,13,-1
 416 524 l 1,14,15
 473 515 473 515 524 491 c 1,16,-1
 489 372 l 1,17,18
 448 390 448 390 416 398 c 1,19,-1
 416 122 l 1,20,21
 448 130 448 130 489 148 c 1,22,-1
 524 29 l 1,0,1
220 164.5 m 128,-1,24
 246 128 246 128 296 118 c 1,25,-1
 296 402 l 1,26,27
 246 392 246 392 220 355.5 c 128,-1,28
 194 319 194 319 194 260 c 256,29,23
 194 201 194 201 220 164.5 c 128,-1,24
EndSplineSet
EndChar

StartChar: colonmonetary
Encoding: 8353 8353 478
Width: 721
Flags: W
LayerCount: 2
Fore
SplineSet
679 56 m 1,0,1
 603 12 603 12 512 -3 c 1,2,-1
 503 -105 l 1,3,-1
 393 -105 l 1,4,-1
 401 -10 l 1,5,6
 365 -8 365 -8 347 -6 c 1,7,-1
 339 -105 l 1,8,-1
 229 -105 l 1,9,-1
 240 21 l 1,10,11
 140 61 140 61 87.5 148.5 c 128,-1,12
 35 236 35 236 35 365 c 0,13,14
 35 512 35 512 103.5 605.5 c 128,-1,15
 172 699 172 699 300 728 c 1,16,-1
 309 835 l 1,17,-1
 419 835 l 1,18,-1
 411 740 l 1,19,-1
 418 740 l 2,20,21
 433 740 433 740 465 738 c 1,22,-1
 473 835 l 1,23,-1
 583 835 l 1,24,-1
 573 719 l 1,25,26
 629 703 629 703 679 674 c 1,27,-1
 610 541 l 1,28,29
 587 553 587 553 560 565 c 1,30,-1
 525 153 l 1,31,32
 566 165 566 165 610 189 c 1,33,-1
 679 56 l 1,0,1
414 137 m 1,35,-1
 452 592 l 1,36,37
 442 593 442 593 421 593 c 0,38,39
 406 593 406 593 398 592 c 1,40,-1
 360 143 l 1,41,34
 385 137 385 137 414 137 c 1,35,-1
255 200 m 1,43,-1
 285 556 l 1,44,45
 244 528 244 528 222.5 479.5 c 128,-1,46
 201 431 201 431 201 365 c 0,47,42
 201 260 201 260 255 200 c 1,43,-1
EndSplineSet
EndChar

StartChar: currency
Encoding: 164 164 479
Width: 699
Flags: W
LayerCount: 2
Fore
SplineSet
563 245 m 1,1,-1
 651 157 l 1,2,-1
 557 63 l 1,3,-1
 469 151 l 1,4,5
 415 120 415 120 350 120 c 0,6,7
 286 120 286 120 230 152 c 1,8,-1
 141 63 l 1,9,-1
 48 157 l 1,10,-1
 136 245 l 1,11,12
 105 301 105 301 105 365 c 256,13,14
 105 429 105 429 136 485 c 1,15,-1
 48 573 l 1,16,-1
 141 666 l 1,17,-1
 229 578 l 1,18,19
 287 610 287 610 350 610 c 0,20,21
 415 610 415 610 469 579 c 1,22,-1
 557 667 l 1,23,-1
 651 573 l 1,24,-1
 563 485 l 1,25,26
 595 429 595 429 595 365 c 256,27,0
 595 301 595 301 563 245 c 1,1,-1
422 293 m 128,-1,29
 452 323 452 323 452 365 c 256,30,31
 452 407 452 407 422 437 c 128,-1,32
 392 467 392 467 350 467 c 256,33,34
 308 467 308 467 278 437 c 128,-1,35
 248 407 248 407 248 365 c 256,36,37
 248 323 248 323 278 293 c 128,-1,38
 308 263 308 263 350 263 c 256,39,28
 392 263 392 263 422 293 c 128,-1,29
EndSplineSet
EndChar

StartChar: dollar
Encoding: 36 36 480
Width: 655
Flags: W
LayerCount: 2
Fore
SplineSet
536.5 49.5 m 128,-1,1
 461 -9 461 -9 328 -10 c 1,2,-1
 328 -105 l 1,3,-1
 196 -105 l 1,4,-1
 196 3 l 1,5,6
 108 21 108 21 48 63 c 1,7,-1
 91 206 l 1,8,9
 137 176 137 176 196 155 c 1,10,-1
 196 338 l 1,11,12
 116 376 116 376 81 422.5 c 128,-1,13
 46 469 46 469 46 534 c 0,14,15
 46 632 46 632 118.5 685 c 128,-1,16
 191 738 191 738 327 740 c 1,17,-1
 327 835 l 1,18,-1
 459 835 l 1,19,-1
 459 729 l 1,20,21
 534 715 534 715 588 688 c 1,22,-1
 547 545 l 1,23,24
 499 569 499 569 459 580 c 1,25,-1
 459 404 l 1,26,27
 541 365 541 365 576.5 319 c 128,-1,28
 612 273 612 273 612 209 c 0,29,0
 612 108 612 108 536.5 49.5 c 128,-1,1
218 534 m 0,31,32
 218 509 218 509 243 491 c 128,-1,33
 268 473 268 473 327 455 c 1,34,-1
 327 597 l 1,35,30
 218 591 218 591 218 534 c 0,31,32
412.5 152.5 m 128,-1,37
 442 171 442 171 442 205 c 0,38,39
 442 233 442 233 417 251 c 128,-1,40
 392 269 392 269 328 288 c 1,41,-1
 328 133 l 1,42,36
 383 134 383 134 412.5 152.5 c 128,-1,37
EndSplineSet
EndChar

StartChar: dong
Encoding: 8363 8363 481
Width: 734
Flags: W
LayerCount: 2
Fore
SplineSet
681 701 m 1,0,-1
 681 599 l 1,1,-1
 578 599 l 1,2,-1
 578 150 l 1,3,-1
 419 150 l 1,4,-1
 418 190 l 1,5,-1
 416 190 l 1,6,7
 383 167 383 167 339.5 154.5 c 128,-1,8
 296 142 296 142 250 142 c 0,9,10
 156 142 156 142 104.5 198.5 c 128,-1,11
 53 255 53 255 53 358 c 256,12,13
 53 461 53 461 104.5 517.5 c 128,-1,14
 156 574 156 574 250 574 c 0,15,16
 296 574 296 574 337.5 561.5 c 128,-1,17
 379 549 379 549 409 526 c 1,18,-1
 411 526 l 1,19,-1
 411 599 l 1,20,-1
 261 599 l 1,21,-1
 261 701 l 1,22,-1
 411 701 l 1,23,-1
 411 750 l 1,24,-1
 578 750 l 1,25,-1
 578 701 l 1,26,-1
 681 701 l 1,0,-1
383.5 279 m 128,-1,28
 411 305 411 305 411 348 c 2,29,-1
 411 369 l 2,30,31
 411 411 411 411 383.5 437 c 128,-1,32
 356 463 356 463 311 463 c 256,33,34
 266 463 266 463 241.5 435.5 c 128,-1,35
 217 408 217 408 217 358 c 256,36,37
 217 308 217 308 241.5 280.5 c 128,-1,38
 266 253 266 253 311 253 c 256,39,27
 356 253 356 253 383.5 279 c 128,-1,28
58 0 m 1,40,-1
 58 101 l 1,41,-1
 681 101 l 1,42,-1
 681 0 l 1,43,-1
 58 0 l 1,40,-1
EndSplineSet
EndChar

StartChar: Euro
Encoding: 8364 8364 482
Width: 790
GlyphClass: 2
Flags: W
AnchorPoint: "Anchor-1" 476 730 basechar 0
AnchorPoint: "Anchor-0" 476 0 basechar 0
LayerCount: 2
Fore
SplineSet
679 189 m 1,1,-1
 748 56 l 1,2,3
 640 -10 640 -10 498 -10 c 0,4,5
 361 -10 361 -10 271 50.5 c 128,-1,6
 181 111 181 111 148 225 c 1,7,-1
 28 225 l 1,8,-1
 28 335 l 1,9,-1
 131 335 l 1,10,11
 130 345 130 345 130 365 c 256,12,13
 130 385 130 385 131 395 c 1,14,-1
 28 395 l 1,15,-1
 28 505 l 1,16,-1
 148 505 l 1,17,18
 181 619 181 619 271 679.5 c 128,-1,19
 361 740 361 740 498 740 c 0,20,21
 640 740 640 740 748 674 c 1,22,-1
 679 541 l 1,23,24
 590 593 590 593 506 593 c 0,25,26
 448 593 448 593 405 570.5 c 128,-1,27
 362 548 362 548 337 505 c 1,28,-1
 628 505 l 1,29,-1
 628 395 l 1,30,-1
 306 395 l 1,31,32
 305 385 305 385 305 365 c 256,33,34
 305 345 305 345 306 335 c 1,35,-1
 628 335 l 1,36,-1
 628 225 l 1,37,-1
 337 225 l 1,38,39
 362 182 362 182 405 159.5 c 128,-1,40
 448 137 448 137 506 137 c 0,41,0
 590 137 590 137 679 189 c 1,1,-1
EndSplineSet
EndChar

StartChar: florin
Encoding: 402 402 483
Width: 527
Flags: W
LayerCount: 2
Fore
SplineSet
19 -105 m 1,1,-1
 41 18 l 1,2,3
 82 3 82 3 118 3 c 0,4,5
 153 3 153 3 166 21 c 128,-1,6
 179 39 179 39 179 88 c 2,7,-1
 179 294 l 1,8,-1
 56 294 l 1,9,-1
 56 417 l 1,10,-1
 179 417 l 1,11,-1
 179 532 l 2,12,13
 179 634 179 634 230 687 c 128,-1,14
 281 740 281 740 380 740 c 0,15,16
 437 740 437 740 507 725 c 1,17,-1
 485 602 l 1,18,19
 446 617 446 617 409 617 c 0,20,21
 374 617 374 617 361 599 c 128,-1,22
 348 581 348 581 348 532 c 2,23,-1
 348 417 l 1,24,-1
 499 417 l 1,25,-1
 499 294 l 1,26,-1
 348 294 l 1,27,-1
 348 88 l 2,28,29
 348 -14 348 -14 297 -67 c 128,-1,30
 246 -120 246 -120 147 -120 c 0,31,0
 89 -120 89 -120 19 -105 c 1,1,-1
EndSplineSet
EndChar

StartChar: franc
Encoding: 8355 8355 484
Width: 658
Flags: W
LayerCount: 2
Fore
SplineSet
608 587 m 1,0,-1
 299 587 l 1,1,-1
 299 453 l 1,2,-1
 588 453 l 1,3,-1
 588 314 l 1,4,-1
 299 314 l 1,5,-1
 299 207 l 1,6,-1
 510 207 l 1,7,-1
 510 83 l 1,8,-1
 299 83 l 1,9,-1
 299 0 l 1,10,-1
 129 0 l 1,11,-1
 129 83 l 1,12,-1
 23 83 l 1,13,-1
 23 207 l 1,14,-1
 129 207 l 1,15,-1
 129 730 l 1,16,-1
 608 730 l 1,17,-1
 608 587 l 1,0,-1
EndSplineSet
EndChar

StartChar: uni20B2
Encoding: 8370 8370 485
Width: 796
Flags: W
LayerCount: 2
Fore
SplineSet
736 49 m 1,0,1
 680 21 680 21 606.5 6 c 128,-1,2
 533 -9 533 -9 452 -10 c 1,3,-1
 452 -105 l 1,4,-1
 320 -105 l 1,5,-1
 320 3 l 1,6,7
 184 32 184 32 109.5 126 c 128,-1,8
 35 220 35 220 35 365 c 256,9,10
 35 510 35 510 109.5 604 c 128,-1,11
 184 698 184 698 320 727 c 1,12,-1
 320 835 l 1,13,-1
 452 835 l 1,14,-1
 452 740 l 1,15,16
 609 738 609 738 710 675 c 1,17,-1
 646 546 l 1,18,19
 557 594 557 594 452 597 c 1,20,-1
 452 444 l 1,21,-1
 736 444 l 1,22,-1
 736 49 l 1,0,1
320 154 m 1,24,-1
 320 576 l 1,25,26
 201 524 201 524 201 365 c 256,27,23
 201 206 201 206 320 154 c 1,24,-1
452 133 m 1,28,29
 515 135 515 135 566 152 c 1,30,-1
 566 302 l 1,31,-1
 452 302 l 1,32,-1
 452 133 l 1,28,29
EndSplineSet
EndChar

StartChar: uni20AD
Encoding: 8365 8365 486
Width: 790
GlyphClass: 2
Flags: W
AnchorPoint: "Anchor-1" 389 730 basechar 0
AnchorPoint: "Anchor-0" 389 0 basechar 0
LayerCount: 2
Fore
SplineSet
734 443 m 1,0,-1
 734 320 l 1,1,-1
 504 320 l 1,2,-1
 734 0 l 1,3,-1
 536 0 l 1,4,-1
 317 320 l 1,5,-1
 299 320 l 1,6,-1
 299 0 l 1,7,-1
 129 0 l 1,8,-1
 129 320 l 1,9,-1
 23 320 l 1,10,-1
 23 443 l 1,11,-1
 129 443 l 1,12,-1
 129 730 l 1,13,-1
 299 730 l 1,14,-1
 299 443 l 1,15,-1
 318 443 l 1,16,-1
 526 730 l 1,17,-1
 724 730 l 1,18,-1
 506 443 l 1,19,-1
 734 443 l 1,0,-1
EndSplineSet
EndChar

StartChar: lira
Encoding: 8356 8356 487
Width: 665
Flags: W
LayerCount: 2
Fore
SplineSet
607 139 m 1,0,-1
 607 0 l 1,1,-1
 77 0 l 1,2,-1
 77 139 l 1,3,4
 114 141 114 141 137 167 c 128,-1,5
 160 193 160 193 168 238 c 1,6,-1
 77 238 l 1,7,-1
 77 348 l 1,8,-1
 172 348 l 1,9,-1
 172 408 l 1,10,-1
 77 408 l 1,11,-1
 77 518 l 1,12,-1
 172 518 l 1,13,-1
 172 525 l 2,14,15
 172 629 172 629 237.5 684.5 c 128,-1,16
 303 740 303 740 427 740 c 0,17,18
 504 740 504 740 585 715 c 1,19,-1
 561 576 l 1,20,21
 531 589 531 589 505 595 c 128,-1,22
 479 601 479 601 448 601 c 0,23,24
 394 601 394 601 369.5 581.5 c 128,-1,25
 345 562 345 562 342 518 c 1,26,-1
 543 518 l 1,27,-1
 543 408 l 1,28,-1
 342 408 l 1,29,-1
 342 348 l 1,30,-1
 543 348 l 1,31,-1
 543 238 l 1,32,-1
 338 238 l 1,33,34
 331 203 331 203 314.5 177.5 c 128,-1,35
 298 152 298 152 275 141 c 1,36,-1
 275 139 l 1,37,-1
 607 139 l 1,0,-1
EndSplineSet
EndChar

StartChar: uni20BA
Encoding: 8378 8378 488
Width: 691
Flags: W
LayerCount: 2
Fore
SplineSet
659 340 m 1,0,1
 659 217 659 217 608 140 c 128,-1,2
 557 63 557 63 449.5 26.5 c 128,-1,3
 342 -10 342 -10 169 -10 c 2,4,-1
 129 -10 l 1,5,-1
 129 320 l 1,6,-1
 23 302 l 1,7,-1
 23 412 l 1,8,-1
 129 430 l 1,9,-1
 129 490 l 1,10,-1
 23 472 l 1,11,-1
 23 582 l 1,12,-1
 129 600 l 1,13,-1
 129 730 l 1,14,-1
 303 730 l 1,15,-1
 303 630 l 1,16,-1
 489 662 l 1,17,-1
 489 552 l 1,18,-1
 303 520 l 1,19,-1
 303 460 l 1,20,-1
 489 492 l 1,21,-1
 489 382 l 1,22,-1
 303 350 l 1,23,-1
 303 147 l 1,24,-1
 307 147 l 2,25,26
 411 147 411 147 461.5 194.5 c 128,-1,27
 512 242 512 242 512 340 c 1,28,-1
 659 340 l 1,0,1
EndSplineSet
EndChar

StartChar: uni20BC
Encoding: 8380 8380 489
Width: 798
Flags: W
LayerCount: 2
Fore
SplineSet
666 662.5 m 128,-1,1
 735 591 735 591 735 460 c 2,2,-1
 735 0 l 1,3,-1
 572 0 l 1,4,-1
 572 439 l 2,5,6
 572 518 572 518 547.5 553 c 128,-1,7
 523 588 523 588 465 592 c 1,8,-1
 465 0 l 1,9,-1
 333 0 l 1,10,-1
 333 592 l 1,11,12
 276 588 276 588 251.5 553 c 128,-1,13
 227 518 227 518 227 439 c 2,14,-1
 227 0 l 1,15,-1
 63 0 l 1,16,-1
 63 460 l 2,17,18
 63 590 63 590 132 661.5 c 128,-1,19
 201 733 201 733 333 739 c 1,20,-1
 333 835 l 1,21,-1
 465 835 l 1,22,-1
 465 740 l 1,23,0
 597 734 597 734 666 662.5 c 128,-1,1
EndSplineSet
EndChar

StartChar: uni20A6
Encoding: 8358 8358 490
Width: 854
GlyphClass: 2
Flags: W
AnchorPoint: "Anchor-1" 427 730 basechar 0
AnchorPoint: "Anchor-0" 427 0 basechar 0
LayerCount: 2
Fore
SplineSet
830 395 m 1,0,-1
 724 395 l 1,1,-1
 724 335 l 1,2,-1
 830 335 l 1,3,-1
 830 225 l 1,4,-1
 724 225 l 1,5,-1
 724 0 l 1,6,-1
 551 0 l 1,7,-1
 301 450 l 1,8,-1
 299 450 l 1,9,-1
 299 0 l 1,10,-1
 129 0 l 1,11,-1
 129 225 l 1,12,-1
 23 225 l 1,13,-1
 23 335 l 1,14,-1
 129 335 l 1,15,-1
 129 395 l 1,16,-1
 23 395 l 1,17,-1
 23 505 l 1,18,-1
 129 505 l 1,19,-1
 129 730 l 1,20,-1
 303 730 l 1,21,-1
 552 280 l 1,22,-1
 554 280 l 1,23,-1
 554 730 l 1,24,-1
 724 730 l 1,25,-1
 724 505 l 1,26,-1
 830 505 l 1,27,-1
 830 395 l 1,0,-1
EndSplineSet
EndChar

StartChar: peseta
Encoding: 8359 8359 491
Width: 774
Flags: W
LayerCount: 2
Fore
SplineSet
764 407 m 1,0,-1
 673 407 l 1,1,2
 656 309 656 309 581.5 258.5 c 128,-1,3
 507 208 507 208 379 208 c 2,4,-1
 299 208 l 1,5,-1
 299 0 l 1,6,-1
 129 0 l 1,7,-1
 129 407 l 1,8,-1
 23 407 l 1,9,-1
 23 530 l 1,10,-1
 129 530 l 1,11,-1
 129 730 l 1,12,-1
 346 730 l 2,13,14
 494 730 494 730 575 680.5 c 128,-1,15
 656 631 656 631 673 530 c 1,16,-1
 764 530 l 1,17,-1
 764 407 l 1,0,-1
299 530 m 1,18,-1
 494 530 l 1,19,20
 480 565 480 565 445.5 581.5 c 128,-1,21
 411 598 411 598 354 598 c 2,22,-1
 299 598 l 1,23,-1
 299 530 l 1,18,-1
445.5 355.5 m 128,-1,25
 480 372 480 372 494 407 c 1,26,-1
 299 407 l 1,27,-1
 299 339 l 1,28,-1
 354 339 l 2,29,24
 411 339 411 339 445.5 355.5 c 128,-1,25
EndSplineSet
EndChar

StartChar: uni20B1
Encoding: 8369 8369 492
Width: 774
Flags: W
LayerCount: 2
Fore
SplineSet
764 499 m 1,0,-1
 677 499 l 1,1,2
 678 489 678 489 678 469 c 256,3,4
 678 449 678 449 677 439 c 1,5,-1
 764 439 l 1,6,-1
 764 329 l 1,7,-1
 646 329 l 1,8,9
 579 208 579 208 379 208 c 2,10,-1
 299 208 l 1,11,-1
 299 0 l 1,12,-1
 129 0 l 1,13,-1
 129 329 l 1,14,-1
 23 329 l 1,15,-1
 23 439 l 1,16,-1
 129 439 l 1,17,-1
 129 499 l 1,18,-1
 23 499 l 1,19,-1
 23 609 l 1,20,-1
 129 609 l 1,21,-1
 129 730 l 1,22,-1
 346 730 l 2,23,24
 461 730 461 730 535.5 700 c 128,-1,25
 610 670 610 670 646 609 c 1,26,-1
 764 609 l 1,27,-1
 764 499 l 1,0,-1
468 370.5 m 128,-1,29
 504 402 504 402 504 469 c 256,30,31
 504 536 504 536 468 567 c 128,-1,32
 432 598 432 598 354 598 c 2,33,-1
 299 598 l 1,34,-1
 299 339 l 1,35,-1
 354 339 l 2,36,28
 432 339 432 339 468 370.5 c 128,-1,29
EndSplineSet
EndChar

StartChar: uni20BD
Encoding: 8381 8381 493
Width: 704
Flags: W
LayerCount: 2
Fore
SplineSet
299 264 m 1,0,-1
 299 204 l 1,1,-1
 510 204 l 1,2,-1
 510 94 l 1,3,-1
 299 94 l 1,4,-1
 299 0 l 1,5,-1
 129 0 l 1,6,-1
 129 94 l 1,7,-1
 23 94 l 1,8,-1
 23 204 l 1,9,-1
 129 204 l 1,10,-1
 129 264 l 1,11,-1
 23 264 l 1,12,-1
 23 374 l 1,13,-1
 129 374 l 1,14,-1
 129 730 l 1,15,-1
 346 730 l 2,16,17
 514 730 514 730 596 669 c 128,-1,18
 678 608 678 608 678 482 c 0,19,20
 678 374 678 374 602 319 c 128,-1,21
 526 264 526 264 379 264 c 2,22,-1
 299 264 l 1,0,-1
299 374 m 1,23,-1
 354 374 l 2,24,25
 432 374 432 374 468 400 c 128,-1,26
 504 426 504 426 504 482 c 256,27,28
 504 538 504 538 468 564 c 128,-1,29
 432 590 432 590 354 590 c 2,30,-1
 299 590 l 1,31,-1
 299 374 l 1,23,-1
EndSplineSet
EndChar

StartChar: uni20B9
Encoding: 8377 8377 494
Width: 633
Flags: W
LayerCount: 2
Fore
SplineSet
484 620 m 1,0,1
 503 588 503 588 509 550 c 1,2,-1
 599 550 l 1,3,-1
 599 440 l 1,4,-1
 506 440 l 1,5,6
 477 316 477 316 332 283 c 1,7,-1
 542 0 l 1,8,-1
 347 0 l 1,9,-1
 147 271 l 1,10,-1
 50 271 l 1,11,-1
 50 393 l 1,12,-1
 215 393 l 2,13,14
 302 393 302 393 327 440 c 1,15,-1
 50 440 l 1,16,-1
 50 550 l 1,17,-1
 327 550 l 1,18,19
 302 597 302 597 215 597 c 2,20,-1
 50 597 l 1,21,-1
 50 730 l 1,22,-1
 599 730 l 1,23,-1
 599 620 l 1,24,-1
 484 620 l 1,0,1
EndSplineSet
EndChar

StartChar: sterling
Encoding: 163 163 495
Width: 665
Flags: W
LayerCount: 2
Fore
SplineSet
607 139 m 1,0,-1
 607 0 l 1,1,-1
 77 0 l 1,2,-1
 77 139 l 1,3,4
 122 142 122 142 147 180.5 c 128,-1,5
 172 219 172 219 172 284 c 2,6,-1
 172 317 l 1,7,-1
 77 317 l 1,8,-1
 77 440 l 1,9,-1
 172 440 l 1,10,-1
 172 525 l 2,11,12
 172 629 172 629 237.5 684.5 c 128,-1,13
 303 740 303 740 427 740 c 0,14,15
 504 740 504 740 585 715 c 1,16,-1
 561 576 l 1,17,18
 531 589 531 589 505 595 c 128,-1,19
 479 601 479 601 448 601 c 0,20,21
 390 601 390 601 366 579 c 128,-1,22
 342 557 342 557 342 506 c 2,23,-1
 342 440 l 1,24,-1
 543 440 l 1,25,-1
 543 317 l 1,26,-1
 342 317 l 1,27,-1
 342 284 l 2,28,29
 342 233 342 233 324 194.5 c 128,-1,30
 306 156 306 156 275 141 c 1,31,-1
 275 139 l 1,32,-1
 607 139 l 1,0,-1
EndSplineSet
EndChar

StartChar: uni20A9
Encoding: 8361 8361 496
Width: 1047
GlyphClass: 2
Flags: W
AnchorPoint: "Anchor-1" 524 730 basechar 0
AnchorPoint: "Anchor-0" 524 0 basechar 0
LayerCount: 2
Fore
SplineSet
1023 395 m 1,0,-1
 905 395 l 1,1,-1
 892 335 l 1,2,-1
 1023 335 l 1,3,-1
 1023 225 l 1,4,-1
 868 225 l 1,5,-1
 820 0 l 1,6,-1
 615 0 l 1,7,-1
 525 446 l 1,8,-1
 523 446 l 1,9,-1
 433 0 l 1,10,-1
 228 0 l 1,11,-1
 180 225 l 1,12,-1
 23 225 l 1,13,-1
 23 335 l 1,14,-1
 156 335 l 1,15,-1
 144 395 l 1,16,-1
 23 395 l 1,17,-1
 23 505 l 1,18,-1
 120 505 l 1,19,-1
 72 730 l 1,20,-1
 246 730 l 1,21,-1
 282 505 l 1,22,-1
 397 505 l 1,23,-1
 421 630 l 1,24,-1
 627 630 l 1,25,-1
 651 505 l 1,26,-1
 766 505 l 1,27,-1
 802 730 l 1,28,-1
 977 730 l 1,29,-1
 929 505 l 1,30,-1
 1023 505 l 1,31,-1
 1023 395 l 1,0,-1
334 185 m 1,32,-1
 336 185 l 1,33,-1
 376 395 l 1,34,-1
 300 395 l 1,35,-1
 334 185 l 1,32,-1
714 185 m 1,36,-1
 748 395 l 1,37,-1
 672 395 l 1,38,-1
 712 185 l 1,39,-1
 714 185 l 1,36,-1
EndSplineSet
EndChar

StartChar: yen
Encoding: 165 165 497
Width: 677
Flags: W
LayerCount: 2
Fore
SplineSet
672 730 m 1,0,-1
 489 393 l 1,1,-1
 620 393 l 1,2,-1
 620 283 l 1,3,-1
 429 283 l 1,4,-1
 427 280 l 1,5,-1
 427 223 l 1,6,-1
 620 223 l 1,7,-1
 620 113 l 1,8,-1
 427 113 l 1,9,-1
 427 0 l 1,10,-1
 249 0 l 1,11,-1
 249 113 l 1,12,-1
 57 113 l 1,13,-1
 57 223 l 1,14,-1
 249 223 l 1,15,-1
 249 280 l 1,16,-1
 247 283 l 1,17,-1
 57 283 l 1,18,-1
 57 393 l 1,19,-1
 188 393 l 1,20,-1
 5 730 l 1,21,-1
 194 730 l 1,22,-1
 337 427 l 1,23,-1
 339 427 l 1,24,-1
 483 730 l 1,25,-1
 672 730 l 1,0,-1
EndSplineSet
EndChar

StartChar: uni2215
Encoding: 8725 8725 499
Width: 496
Flags: W
LayerCount: 2
Fore
SplineSet
331 730 m 1,0,-1
 488 730 l 1,1,-1
 166 0 l 1,2,-1
 9 0 l 1,3,-1
 331 730 l 1,0,-1
EndSplineSet
EndChar

StartChar: plus
Encoding: 43 43 500
Width: 687
Flags: W
LayerCount: 2
Fore
SplineSet
270 217 m 1,0,-1
 53 217 l 1,1,-1
 53 363 l 1,2,-1
 270 363 l 1,3,-1
 270 580 l 1,4,-1
 417 580 l 1,5,-1
 417 363 l 1,6,-1
 633 363 l 1,7,-1
 633 217 l 1,8,-1
 417 217 l 1,9,-1
 417 0 l 1,10,-1
 270 0 l 1,11,-1
 270 217 l 1,0,-1
EndSplineSet
EndChar

StartChar: minus
Encoding: 8722 8722 501
Width: 687
Flags: W
LayerCount: 2
Fore
SplineSet
53 363 m 1,0,-1
 633 363 l 1,1,-1
 633 217 l 1,2,-1
 53 217 l 1,3,-1
 53 363 l 1,0,-1
EndSplineSet
EndChar

StartChar: multiply
Encoding: 215 215 502
Width: 642
Flags: W
LayerCount: 2
Fore
SplineSet
606 108 m 1,0,-1
 503 5 l 1,1,-1
 321 187 l 1,2,-1
 139 5 l 1,3,-1
 36 108 l 1,4,-1
 218 290 l 1,5,-1
 36 472 l 1,6,-1
 139 575 l 1,7,-1
 321 393 l 1,8,-1
 503 575 l 1,9,-1
 606 472 l 1,10,-1
 424 290 l 1,11,-1
 606 108 l 1,0,-1
EndSplineSet
EndChar

StartChar: divide
Encoding: 247 247 503
Width: 687
Flags: W
LayerCount: 2
Fore
SplineSet
280 441 m 128,-1,1
 254 467 254 467 254 504 c 256,2,3
 254 541 254 541 280 567 c 128,-1,4
 306 593 306 593 343 593 c 256,5,6
 380 593 380 593 406 567 c 128,-1,7
 432 541 432 541 432 504 c 256,8,9
 432 467 432 467 406 441 c 128,-1,10
 380 415 380 415 343 415 c 256,11,0
 306 415 306 415 280 441 c 128,-1,1
53 363 m 1,12,-1
 633 363 l 1,13,-1
 633 217 l 1,14,-1
 53 217 l 1,15,-1
 53 363 l 1,12,-1
280 13 m 128,-1,17
 254 39 254 39 254 76 c 256,18,19
 254 113 254 113 280 139 c 128,-1,20
 306 165 306 165 343 165 c 256,21,22
 380 165 380 165 406 139 c 128,-1,23
 432 113 432 113 432 76 c 256,24,25
 432 39 432 39 406 13 c 128,-1,26
 380 -13 380 -13 343 -13 c 256,27,16
 306 -13 306 -13 280 13 c 128,-1,17
EndSplineSet
EndChar

StartChar: equal
Encoding: 61 61 504
Width: 735
Flags: W
LayerCount: 2
Fore
SplineSet
77 485 m 1,0,-1
 657 485 l 1,1,-1
 657 343 l 1,2,-1
 77 343 l 1,3,-1
 77 485 l 1,0,-1
77 237 m 1,4,-1
 657 237 l 1,5,-1
 657 95 l 1,6,-1
 77 95 l 1,7,-1
 77 237 l 1,4,-1
EndSplineSet
EndChar

StartChar: notequal
Encoding: 8800 8800 505
Width: 735
Flags: W
LayerCount: 2
Fore
SplineSet
657 343 m 1,0,-1
 462 343 l 1,1,-1
 428 237 l 1,2,-1
 657 237 l 1,3,-1
 657 95 l 1,4,-1
 383 95 l 1,5,-1
 338 -49 l 1,6,-1
 197 -5 l 1,7,-1
 229 95 l 1,8,-1
 77 95 l 1,9,-1
 77 237 l 1,10,-1
 273 237 l 1,11,-1
 307 343 l 1,12,-1
 77 343 l 1,13,-1
 77 485 l 1,14,-1
 352 485 l 1,15,-1
 397 629 l 1,16,-1
 538 585 l 1,17,-1
 506 485 l 1,18,-1
 657 485 l 1,19,-1
 657 343 l 1,0,-1
EndSplineSet
EndChar

StartChar: greater
Encoding: 62 62 506
Width: 703
Flags: W
LayerCount: 2
Fore
SplineSet
70 153 m 1,0,-1
 521 289 l 1,1,-1
 521 291 l 1,2,-1
 70 427 l 1,3,-1
 70 584 l 1,4,-1
 650 384 l 1,5,-1
 650 196 l 1,6,-1
 70 -4 l 1,7,-1
 70 153 l 1,0,-1
EndSplineSet
EndChar

StartChar: less
Encoding: 60 60 507
Width: 703
Flags: W
LayerCount: 2
Fore
SplineSet
53 196 m 1,0,-1
 53 384 l 1,1,-1
 633 584 l 1,2,-1
 633 427 l 1,3,-1
 182 291 l 1,4,-1
 182 289 l 1,5,-1
 633 153 l 1,6,-1
 633 -4 l 1,7,-1
 53 196 l 1,0,-1
EndSplineSet
EndChar

StartChar: greaterequal
Encoding: 8805 8805 508
Width: 697
Flags: W
LayerCount: 2
Fore
SplineSet
63 174 m 1,0,-1
 63 331 l 1,1,-1
 515 467 l 1,2,-1
 515 469 l 1,3,-1
 63 605 l 1,4,-1
 63 761 l 1,5,-1
 643 562 l 1,6,-1
 643 374 l 1,7,-1
 63 174 l 1,0,-1
63 0 m 1,8,-1
 63 142 l 1,9,-1
 643 142 l 1,10,-1
 643 0 l 1,11,-1
 63 0 l 1,8,-1
EndSplineSet
EndChar

StartChar: lessequal
Encoding: 8804 8804 509
Width: 697
Flags: W
LayerCount: 2
Fore
SplineSet
53 562 m 1,0,-1
 633 761 l 1,1,-1
 633 605 l 1,2,-1
 182 469 l 1,3,-1
 182 467 l 1,4,-1
 633 331 l 1,5,-1
 633 174 l 1,6,-1
 53 374 l 1,7,-1
 53 562 l 1,0,-1
53 142 m 1,8,-1
 633 142 l 1,9,-1
 633 0 l 1,10,-1
 53 0 l 1,11,-1
 53 142 l 1,8,-1
EndSplineSet
EndChar

StartChar: plusminus
Encoding: 177 177 510
Width: 735
Flags: W
LayerCount: 2
Fore
SplineSet
294 397 m 1,0,-1
 77 397 l 1,1,-1
 77 539 l 1,2,-1
 294 539 l 1,3,-1
 294 730 l 1,4,-1
 441 730 l 1,5,-1
 441 539 l 1,6,-1
 657 539 l 1,7,-1
 657 397 l 1,8,-1
 441 397 l 1,9,-1
 441 206 l 1,10,-1
 294 206 l 1,11,-1
 294 397 l 1,0,-1
77 142 m 1,12,-1
 657 142 l 1,13,-1
 657 0 l 1,14,-1
 77 0 l 1,15,-1
 77 142 l 1,12,-1
EndSplineSet
EndChar

StartChar: approxequal
Encoding: 8776 8776 511
Width: 751
Flags: W
LayerCount: 2
Fore
SplineSet
99.5 477.5 m 128,-1,1
 137 529 137 529 213 529 c 0,2,3
 298 529 298 529 418 476 c 0,4,5
 482 448 482 448 513 448 c 0,6,7
 534 448 534 448 542 463 c 128,-1,8
 550 478 550 478 550 519 c 1,9,-1
 689 519 l 1,10,11
 689 412 689 412 651 361.5 c 128,-1,12
 613 311 613 311 538 311 c 0,13,14
 452 311 452 311 333 364 c 0,15,16
 271 391 271 391 238 391 c 0,17,18
 217 391 217 391 209 375.5 c 128,-1,19
 201 360 201 360 201 314 c 1,20,-1
 62 314 l 1,21,0
 62 426 62 426 99.5 477.5 c 128,-1,1
99.5 215.5 m 128,-1,23
 137 267 137 267 213 267 c 0,24,25
 297 267 297 267 418 215 c 0,26,27
 482 187 482 187 513 187 c 0,28,29
 534 187 534 187 542 201.5 c 128,-1,30
 550 216 550 216 550 257 c 1,31,-1
 689 257 l 1,32,33
 689 151 689 151 651 100 c 128,-1,34
 613 49 613 49 538 49 c 0,35,36
 455 49 455 49 333 102 c 0,37,38
 269 130 269 130 238 130 c 0,39,40
 217 130 217 130 209 114.5 c 128,-1,41
 201 99 201 99 201 53 c 1,42,-1
 62 53 l 1,43,22
 62 164 62 164 99.5 215.5 c 128,-1,23
EndSplineSet
EndChar

StartChar: asciitilde
Encoding: 126 126 512
Width: 733
Flags: W
LayerCount: 2
Fore
SplineSet
91 366 m 128,-1,1
 129 419 129 419 204 419 c 0,2,3
 291 419 291 419 409 365 c 0,4,5
 473 336 473 336 504 336 c 0,6,7
 525 336 525 336 533 351 c 128,-1,8
 541 366 541 366 541 409 c 1,9,-1
 680 409 l 1,10,11
 680 299 680 299 642 246.5 c 128,-1,12
 604 194 604 194 529 194 c 0,13,14
 446 194 446 194 324 249 c 0,15,16
 260 277 260 277 229 277 c 0,17,18
 208 277 208 277 200 261 c 128,-1,19
 192 245 192 245 192 198 c 1,20,-1
 53 198 l 1,21,0
 53 313 53 313 91 366 c 128,-1,1
EndSplineSet
EndChar

StartChar: logicalnot
Encoding: 172 172 513
Width: 724
Flags: W
LayerCount: 2
Fore
SplineSet
500 338 m 1,0,-1
 53 338 l 1,1,-1
 53 485 l 1,2,-1
 647 485 l 1,3,-1
 647 95 l 1,4,-1
 500 95 l 1,5,-1
 500 338 l 1,0,-1
EndSplineSet
EndChar

StartChar: asciicircum
Encoding: 94 94 514
Width: 671
Flags: W
LayerCount: 2
Fore
SplineSet
225 730 m 1,0,-1
 446 730 l 1,1,-1
 662 280 l 1,2,-1
 475 280 l 1,3,-1
 336 611 l 1,4,-1
 334 611 l 1,5,-1
 196 280 l 1,6,-1
 9 280 l 1,7,-1
 225 730 l 1,0,-1
EndSplineSet
EndChar

StartChar: uni00B5
Encoding: 181 181 515
Width: 610
GlyphClass: 2
Flags: W
AnchorPoint: "Anchor-3" 522 480 basechar 0
AnchorPoint: "Anchor-2" 547 0 basechar 0
AnchorPoint: "Anchor-1" 305 520 basechar 0
AnchorPoint: "Anchor-0" 305 0 basechar 0
LayerCount: 2
Fore
SplineSet
547 520 m 1,0,-1
 547 0 l 1,1,-1
 389 0 l 1,2,-1
 387 65 l 1,3,-1
 385 65 l 1,4,5
 353 27 353 27 313.5 8.5 c 128,-1,6
 274 -10 274 -10 224 -10 c 1,7,-1
 224 -220 l 1,8,-1
 57 -220 l 1,9,-1
 57 520 l 1,10,-1
 224 520 l 1,11,-1
 224 233 l 2,12,13
 224 176 224 176 238 151.5 c 128,-1,14
 252 127 252 127 284 127 c 0,15,16
 324 127 324 127 352 158 c 128,-1,17
 380 189 380 189 380 232 c 2,18,-1
 380 520 l 1,19,-1
 547 520 l 1,0,-1
EndSplineSet
EndChar

StartChar: percent
Encoding: 37 37 516
Width: 924
Flags: W
LayerCount: 2
Fore
SplineSet
77.5 340.5 m 128,-1,1
 35 395 35 395 35 511 c 256,2,3
 35 627 35 627 77.5 681.5 c 128,-1,4
 120 736 120 736 210 736 c 0,5,6
 301 736 301 736 343 681.5 c 128,-1,7
 385 627 385 627 385 511 c 256,8,9
 385 395 385 395 343 340.5 c 128,-1,10
 301 286 301 286 210 286 c 0,11,0
 120 286 120 286 77.5 340.5 c 128,-1,1
588 730 m 1,12,-1
 723 730 l 1,13,-1
 336 0 l 1,14,-1
 201 0 l 1,15,-1
 588 730 l 1,12,-1
245.5 423.5 m 128,-1,17
 256 449 256 449 256 511 c 256,18,19
 256 573 256 573 245.5 598.5 c 128,-1,20
 235 624 235 624 210 624 c 0,21,22
 186 624 186 624 175 598.5 c 128,-1,23
 164 573 164 573 164 511 c 256,24,25
 164 449 164 449 175 423.5 c 128,-1,26
 186 398 186 398 210 398 c 0,27,16
 235 398 235 398 245.5 423.5 c 128,-1,17
580.5 48.5 m 128,-1,29
 538 103 538 103 538 219 c 256,30,31
 538 335 538 335 580.5 389.5 c 128,-1,32
 623 444 623 444 713 444 c 0,33,34
 804 444 804 444 846 389.5 c 128,-1,35
 888 335 888 335 888 219 c 256,36,37
 888 103 888 103 846 48.5 c 128,-1,38
 804 -6 804 -6 713 -6 c 0,39,28
 623 -6 623 -6 580.5 48.5 c 128,-1,29
748.5 131.5 m 128,-1,41
 759 157 759 157 759 219 c 256,42,43
 759 281 759 281 748.5 306.5 c 128,-1,44
 738 332 738 332 713 332 c 0,45,46
 689 332 689 332 678 306.5 c 128,-1,47
 667 281 667 281 667 219 c 256,48,49
 667 157 667 157 678 131.5 c 128,-1,50
 689 106 689 106 713 106 c 0,51,40
 738 106 738 106 748.5 131.5 c 128,-1,41
EndSplineSet
EndChar

StartChar: at
Encoding: 64 64 518
Width: 818
Flags: W
LayerCount: 2
Fore
SplineSet
596 454 m 1,0,-1
 596 159 l 1,1,-1
 672 159 l 1,2,3
 690 208 690 208 690 260 c 0,4,5
 690 342 690 342 654.5 406 c 128,-1,6
 619 470 619 470 555 505.5 c 128,-1,7
 491 541 491 541 409 541 c 256,8,9
 327 541 327 541 263 505 c 128,-1,10
 199 469 199 469 163.5 405.5 c 128,-1,11
 128 342 128 342 128 260 c 256,12,13
 128 178 128 178 163.5 114.5 c 128,-1,14
 199 51 199 51 263 15 c 128,-1,15
 327 -21 327 -21 409 -21 c 0,16,17
 517 -21 517 -21 592 40 c 1,18,-1
 647 -35 l 1,19,20
 599 -73 599 -73 538.5 -93.5 c 128,-1,21
 478 -114 478 -114 409 -114 c 0,22,23
 302 -114 302 -114 216.5 -66 c 128,-1,24
 131 -18 131 -18 83 67.5 c 128,-1,25
 35 153 35 153 35 260 c 256,26,27
 35 367 35 367 83 452.5 c 128,-1,28
 131 538 131 538 216.5 586 c 128,-1,29
 302 634 302 634 409 634 c 256,30,31
 516 634 516 634 601.5 586 c 128,-1,32
 687 538 687 538 735 452.5 c 128,-1,33
 783 367 783 367 783 260 c 0,34,35
 783 149 783 149 733 66 c 1,36,-1
 474 66 l 1,37,-1
 473 120 l 1,38,-1
 471 120 l 1,39,40
 424 58 424 58 355 58 c 0,41,42
 287 58 287 58 244 111.5 c 128,-1,43
 201 165 201 165 201 260 c 256,44,45
 201 355 201 355 243.5 408.5 c 128,-1,46
 286 462 286 462 355 462 c 0,47,48
 391 462 391 462 419 447 c 128,-1,49
 447 432 447 432 471 400 c 1,50,-1
 473 400 l 1,51,-1
 474 454 l 1,52,-1
 596 454 l 1,0,-1
469 265 m 2,53,54
 469 312 469 312 450 337 c 128,-1,55
 431 362 431 362 399 362 c 0,56,57
 366 362 366 362 347 335.5 c 128,-1,58
 328 309 328 309 328 260 c 256,59,60
 328 211 328 211 347 184.5 c 128,-1,61
 366 158 366 158 399 158 c 0,62,63
 431 158 431 158 450 183 c 128,-1,64
 469 208 469 208 469 255 c 2,65,-1
 469 265 l 2,53,54
EndSplineSet
EndChar

StartChar: ampersand
Encoding: 38 38 519
Width: 731
Flags: W
LayerCount: 2
Fore
SplineSet
616 -16 m 1,0,-1
 548 47 l 1,1,2
 483 17 483 17 426 3.5 c 128,-1,3
 369 -10 369 -10 309 -10 c 0,4,5
 182 -10 182 -10 108.5 40.5 c 128,-1,6
 35 91 35 91 35 178 c 0,7,8
 35 235 35 235 69 280 c 128,-1,9
 103 325 103 325 187 379 c 1,10,11
 127 435 127 435 103 477 c 128,-1,12
 79 519 79 519 79 566 c 0,13,14
 79 649 79 649 143 694.5 c 128,-1,15
 207 740 207 740 322 740 c 0,16,17
 435 740 435 740 502 693 c 128,-1,18
 569 646 569 646 569 566 c 0,19,20
 569 510 569 510 531.5 462.5 c 128,-1,21
 494 415 494 415 406 361 c 1,22,-1
 510 264 l 1,23,-1
 510 388 l 1,24,-1
 664 388 l 1,25,-1
 663 121 l 1,26,-1
 729 59 l 1,27,-1
 616 -16 l 1,0,-1
263.5 607 m 128,-1,29
 241 591 241 591 241 562 c 0,30,31
 241 540 241 540 256.5 515.5 c 128,-1,32
 272 491 272 491 310 452 c 1,33,34
 365 486 365 486 386 510 c 128,-1,35
 407 534 407 534 407 562 c 0,36,37
 407 592 407 592 386.5 607.5 c 128,-1,38
 366 623 366 623 326 623 c 256,39,28
 286 623 286 623 263.5 607 c 128,-1,29
436 150 m 1,41,-1
 285 289 l 1,42,43
 245 262 245 262 227 239 c 128,-1,44
 209 216 209 216 209 191 c 0,45,46
 209 157 209 157 237.5 138.5 c 128,-1,47
 266 120 266 120 318 120 c 0,48,40
 378 120 378 120 436 150 c 1,41,-1
EndSplineSet
EndChar

StartChar: paragraph
Encoding: 182 182 520
Width: 680
Flags: W
LayerCount: 2
Fore
SplineSet
125 301 m 128,-1,1
 72 332 72 332 41 385 c 128,-1,2
 10 438 10 438 10 500 c 256,3,4
 10 562 10 562 41 615 c 128,-1,5
 72 668 72 668 125 699 c 128,-1,6
 178 730 178 730 240 730 c 2,7,-1
 610 730 l 1,8,-1
 610 -110 l 1,9,-1
 472 -110 l 1,10,-1
 472 608 l 1,11,-1
 379 608 l 1,12,-1
 379 -110 l 1,13,-1
 240 -110 l 1,14,-1
 240 270 l 1,15,0
 178 270 178 270 125 301 c 128,-1,1
EndSplineSet
EndChar

StartChar: section
Encoding: 167 167 521
Width: 588
Flags: W
LayerCount: 2
Fore
SplineSet
520 133 m 128,-1,1
 532 104 532 104 532 63 c 0,2,3
 532 -21 532 -21 469.5 -70.5 c 128,-1,4
 407 -120 407 -120 294 -120 c 0,5,6
 179 -120 179 -120 69 -78 c 1,7,-1
 102 50 l 1,8,9
 197 10 197 10 278 10 c 0,10,11
 327 10 327 10 350.5 24 c 128,-1,12
 374 38 374 38 374 63 c 0,13,14
 374 87 374 87 354.5 102 c 128,-1,15
 335 117 335 117 290 124 c 0,16,17
 170 143 170 143 114.5 190 c 128,-1,18
 59 237 59 237 59 315 c 0,19,20
 59 390 59 390 108 436 c 1,21,22
 81 458 81 458 69 487 c 128,-1,23
 57 516 57 516 57 557 c 0,24,25
 57 642 57 642 119 691 c 128,-1,26
 181 740 181 740 294 740 c 0,27,28
 409 740 409 740 519 698 c 1,29,-1
 487 570 l 1,30,31
 392 610 392 610 311 610 c 0,32,33
 262 610 262 610 238 596 c 128,-1,34
 214 582 214 582 214 557 c 0,35,36
 214 533 214 533 233.5 518 c 128,-1,37
 253 503 253 503 299 496 c 0,38,39
 418 477 418 477 473.5 430 c 128,-1,40
 529 383 529 383 529 305 c 0,41,42
 529 230 529 230 480 185 c 1,43,0
 508 162 508 162 520 133 c 128,-1,1
219 280.5 m 128,-1,45
 242 263 242 263 307 250 c 0,46,47
 348 241 348 241 373 234 c 1,48,49
 392 258 392 258 392 288 c 0,50,51
 392 311 392 311 383 325.5 c 128,-1,52
 374 340 374 340 350 350.5 c 128,-1,53
 326 361 326 361 281 370 c 0,54,55
 239 379 239 379 216 386 c 1,56,57
 196 363 196 363 196 332 c 0,58,44
 196 298 196 298 219 280.5 c 128,-1,45
EndSplineSet
EndChar

StartChar: copyright
Encoding: 169 169 522
Width: 816
Flags: W
LayerCount: 2
Fore
SplineSet
221 42 m 128,-1,1
 135 92 135 92 85 178 c 128,-1,2
 35 264 35 264 35 365 c 256,3,4
 35 466 35 466 85 552 c 128,-1,5
 135 638 135 638 221 688 c 128,-1,6
 307 738 307 738 408 738 c 256,7,8
 509 738 509 738 595 688 c 128,-1,9
 681 638 681 638 731 552 c 128,-1,10
 781 466 781 466 781 365 c 256,11,12
 781 264 781 264 731 178 c 128,-1,13
 681 92 681 92 595 42 c 128,-1,14
 509 -8 509 -8 408 -8 c 256,15,0
 307 -8 307 -8 221 42 c 128,-1,1
555 111.5 m 128,-1,17
 622 151 622 151 661.5 218 c 128,-1,18
 701 285 701 285 701 365 c 256,19,20
 701 445 701 445 661.5 512 c 128,-1,21
 622 579 622 579 555 618.5 c 128,-1,22
 488 658 488 658 408 658 c 256,23,24
 328 658 328 658 261 618.5 c 128,-1,25
 194 579 194 579 154.5 512 c 128,-1,26
 115 445 115 445 115 365 c 256,27,28
 115 285 115 285 154.5 218 c 128,-1,29
 194 151 194 151 261 111.5 c 128,-1,30
 328 72 328 72 408 72 c 256,31,16
 488 72 488 72 555 111.5 c 128,-1,17
259 199 m 128,-1,33
 201 258 201 258 201 365 c 256,34,35
 201 472 201 472 259 531 c 128,-1,36
 317 590 317 590 422 590 c 0,37,38
 508 590 508 590 572 550 c 1,39,-1
 518 450 l 1,40,41
 469 478 469 478 427 478 c 0,42,43
 380 478 380 478 355.5 449 c 128,-1,44
 331 420 331 420 331 365 c 256,45,46
 331 310 331 310 355.5 281 c 128,-1,47
 380 252 380 252 427 252 c 0,48,49
 473 252 473 252 518 279 c 1,50,-1
 572 179 l 1,51,52
 508 140 508 140 422 140 c 0,53,32
 317 140 317 140 259 199 c 128,-1,33
EndSplineSet
EndChar

StartChar: registered
Encoding: 174 174 523
Width: 816
Flags: W
LayerCount: 2
Fore
SplineSet
595 688 m 128,-1,1
 681 638 681 638 731 552 c 128,-1,2
 781 466 781 466 781 365 c 256,3,4
 781 264 781 264 731 178 c 128,-1,5
 681 92 681 92 595 42 c 128,-1,6
 509 -8 509 -8 408 -8 c 256,7,8
 307 -8 307 -8 221 42 c 128,-1,9
 135 92 135 92 85 178 c 128,-1,10
 35 264 35 264 35 365 c 256,11,12
 35 466 35 466 85 552 c 128,-1,13
 135 638 135 638 221 688 c 128,-1,14
 307 738 307 738 408 738 c 256,15,0
 509 738 509 738 595 688 c 128,-1,1
555 111.5 m 128,-1,17
 622 151 622 151 661.5 218 c 128,-1,18
 701 285 701 285 701 365 c 256,19,20
 701 445 701 445 661.5 512 c 128,-1,21
 622 579 622 579 555 618.5 c 128,-1,22
 488 658 488 658 408 658 c 256,23,24
 328 658 328 658 261 618.5 c 128,-1,25
 194 579 194 579 154.5 512 c 128,-1,26
 115 445 115 445 115 365 c 256,27,28
 115 285 115 285 154.5 218 c 128,-1,29
 194 151 194 151 261 111.5 c 128,-1,30
 328 72 328 72 408 72 c 256,31,16
 488 72 488 72 555 111.5 c 128,-1,17
567 358.5 m 128,-1,33
 544 325 544 325 500 310 c 1,34,-1
 595 146 l 1,35,-1
 451 146 l 1,36,-1
 380 291 l 1,37,-1
 380 146 l 1,38,-1
 253 146 l 1,39,-1
 253 584 l 1,40,-1
 391 584 l 2,41,42
 492 584 492 584 541 549 c 128,-1,43
 590 514 590 514 590 442 c 0,44,32
 590 392 590 392 567 358.5 c 128,-1,33
380 483 m 1,45,-1
 380 390 l 1,46,-1
 396 390 l 2,47,48
 430 390 430 390 445.5 401.5 c 128,-1,49
 461 413 461 413 461 437 c 0,50,51
 461 460 461 460 445.5 471.5 c 128,-1,52
 430 483 430 483 396 483 c 2,53,-1
 380 483 l 1,45,-1
EndSplineSet
EndChar

StartChar: trademark
Encoding: 8482 8482 524
Width: 777
Flags: W
LayerCount: 2
Fore
SplineSet
125 641 m 1,0,-1
 27 641 l 1,1,-1
 27 730 l 1,2,-1
 323 730 l 1,3,-1
 323 641 l 1,4,-1
 224 641 l 1,5,-1
 224 365 l 1,6,-1
 125 365 l 1,7,-1
 125 641 l 1,0,-1
371 730 m 1,8,-1
 498 730 l 1,9,-1
 557 571 l 1,10,-1
 558 571 l 1,11,-1
 618 730 l 1,12,-1
 744 730 l 1,13,-1
 744 365 l 1,14,-1
 648 365 l 1,15,-1
 648 565 l 1,16,-1
 647 565 l 1,17,-1
 601 443 l 1,18,-1
 514 443 l 1,19,-1
 469 565 l 1,20,-1
 468 565 l 1,21,-1
 468 365 l 1,22,-1
 371 365 l 1,23,-1
 371 730 l 1,8,-1
EndSplineSet
EndChar

StartChar: degree
Encoding: 176 176 525
Width: 429
Flags: W
LayerCount: 2
Fore
SplineSet
123 394.5 m 128,-1,1
 81 419 81 419 56.5 461 c 128,-1,2
 32 503 32 503 32 553 c 0,3,4
 32 602 32 602 56.5 644 c 128,-1,5
 81 686 81 686 123 710.5 c 128,-1,6
 165 735 165 735 215 735 c 0,7,8
 264 735 264 735 306 710.5 c 128,-1,9
 348 686 348 686 372.5 644 c 128,-1,10
 397 602 397 602 397 553 c 0,11,12
 397 503 397 503 372.5 461 c 128,-1,13
 348 419 348 419 306 394.5 c 128,-1,14
 264 370 264 370 215 370 c 0,15,0
 165 370 165 370 123 394.5 c 128,-1,1
271 496 m 128,-1,17
 294 519 294 519 294 553 c 0,18,19
 294 586 294 586 271 609 c 128,-1,20
 248 632 248 632 215 632 c 0,21,22
 181 632 181 632 158 609 c 128,-1,23
 135 586 135 586 135 553 c 0,24,25
 135 519 135 519 158 496 c 128,-1,26
 181 473 181 473 215 473 c 0,27,16
 248 473 248 473 271 496 c 128,-1,17
EndSplineSet
EndChar

StartChar: bar
Encoding: 124 124 526
Width: 303
Flags: W
LayerCount: 2
Fore
SplineSet
77 810 m 1,0,-1
 226 810 l 1,1,-1
 226 -220 l 1,2,-1
 77 -220 l 1,3,-1
 77 810 l 1,0,-1
EndSplineSet
EndChar

StartChar: brokenbar
Encoding: 166 166 527
Width: 303
Flags: W
LayerCount: 2
Fore
SplineSet
77 810 m 1,0,-1
 226 810 l 1,1,-1
 226 370 l 1,2,-1
 77 370 l 1,3,-1
 77 810 l 1,0,-1
77 220 m 1,4,-1
 226 220 l 1,5,-1
 226 -220 l 1,6,-1
 77 -220 l 1,7,-1
 77 220 l 1,4,-1
EndSplineSet
EndChar

StartChar: dagger
Encoding: 8224 8224 528
Width: 540
Flags: W
LayerCount: 2
Fore
SplineSet
196 397 m 1,0,-1
 27 397 l 1,1,-1
 27 520 l 1,2,-1
 196 520 l 1,3,-1
 196 730 l 1,4,-1
 344 730 l 1,5,-1
 344 520 l 1,6,-1
 513 520 l 1,7,-1
 513 397 l 1,8,-1
 344 397 l 1,9,-1
 344 -110 l 1,10,-1
 196 -110 l 1,11,-1
 196 397 l 1,0,-1
EndSplineSet
EndChar

StartChar: daggerdbl
Encoding: 8225 8225 529
Width: 560
Flags: W
LayerCount: 2
Fore
SplineSet
206 100 m 1,0,-1
 37 100 l 1,1,-1
 37 223 l 1,2,-1
 206 223 l 1,3,-1
 206 397 l 1,4,-1
 37 397 l 1,5,-1
 37 520 l 1,6,-1
 206 520 l 1,7,-1
 206 730 l 1,8,-1
 354 730 l 1,9,-1
 354 520 l 1,10,-1
 523 520 l 1,11,-1
 523 397 l 1,12,-1
 354 397 l 1,13,-1
 354 223 l 1,14,-1
 523 223 l 1,15,-1
 523 100 l 1,16,-1
 354 100 l 1,17,-1
 354 -110 l 1,18,-1
 206 -110 l 1,19,-1
 206 100 l 1,0,-1
EndSplineSet
EndChar

StartChar: uni2116
Encoding: 8470 8470 530
Width: 1218
GlyphClass: 2
Flags: W
AnchorPoint: "Anchor-1" 368 730 basechar 0
AnchorPoint: "Anchor-0" 368 0 basechar 0
LayerCount: 2
Fore
SplineSet
796 363.5 m 128,-1,1
 741 419 741 419 741 524 c 256,2,3
 741 629 741 629 796 684.5 c 128,-1,4
 851 740 851 740 955 740 c 256,5,6
 1059 740 1059 740 1114 684.5 c 128,-1,7
 1169 629 1169 629 1169 524 c 256,8,9
 1169 419 1169 419 1114 363.5 c 128,-1,10
 1059 308 1059 308 955 308 c 256,11,0
 851 308 851 308 796 363.5 c 128,-1,1
244 730 m 1,12,-1
 493 280 l 1,13,-1
 495 280 l 1,14,-1
 495 730 l 1,15,-1
 665 730 l 1,16,-1
 665 0 l 1,17,-1
 491 0 l 1,18,-1
 242 450 l 1,19,-1
 240 450 l 1,20,-1
 240 0 l 1,21,-1
 70 0 l 1,22,-1
 70 730 l 1,23,-1
 244 730 l 1,12,-1
1023 524 m 256,25,26
 1023 632 1023 632 955 632 c 256,27,28
 887 632 887 632 887 524 c 256,29,30
 887 416 887 416 955 416 c 256,31,24
 1023 416 1023 416 1023 524 c 256,25,26
751 263 m 1,32,-1
 1159 263 l 1,33,-1
 1159 148 l 1,34,-1
 751 148 l 1,35,-1
 751 263 l 1,32,-1
EndSplineSet
Ligature2: "'ordn' Ordinals in Latin lookup 9 subtable" N o period
EndChar

StartChar: uni0308
Encoding: 776 776 533
Width: 0
GlyphClass: 4
Flags: W
AnchorPoint: "Anchor-10" -243 749 basemark 0
AnchorPoint: "Anchor-10" -243 520 mark 0
AnchorPoint: "Anchor-6" -243 520 mark 0
AnchorPoint: "Anchor-1" -243 520 mark 0
LayerCount: 2
Fore
SplineSet
-460 749 m 1,0,-1
 -292 749 l 1,1,-1
 -292 581 l 1,2,-1
 -460 581 l 1,3,-1
 -460 749 l 1,0,-1
-196 749 m 1,4,-1
 -27 749 l 1,5,-1
 -27 581 l 1,6,-1
 -196 581 l 1,7,-1
 -196 749 l 1,4,-1
EndSplineSet
EndChar

StartChar: uni0307
Encoding: 775 775 534
Width: 0
GlyphClass: 4
Flags: W
AnchorPoint: "Anchor-10" -111 749 basemark 0
AnchorPoint: "Anchor-10" -111 520 mark 0
AnchorPoint: "Anchor-6" -111 520 mark 0
AnchorPoint: "Anchor-1" -111 520 mark 0
LayerCount: 2
Fore
SplineSet
-195 749 m 1,0,-1
 -27 749 l 1,1,-1
 -27 581 l 1,2,-1
 -195 581 l 1,3,-1
 -195 749 l 1,0,-1
EndSplineSet
EndChar

StartChar: gravecomb
Encoding: 768 768 535
Width: 0
GlyphClass: 4
Flags: W
AnchorPoint: "Anchor-10" -153 520 mark 0
AnchorPoint: "Anchor-6" -153 520 mark 0
AnchorPoint: "Anchor-1" -153 520 mark 0
LayerCount: 2
Fore
SplineSet
-316 770 m 1,0,-1
 -116 770 l 1,1,-1
 -44 560 l 1,2,-1
 -194 560 l 1,3,-1
 -316 770 l 1,0,-1
EndSplineSet
EndChar

StartChar: acutecomb
Encoding: 769 769 536
Width: 0
GlyphClass: 4
Flags: W
AnchorPoint: "Anchor-10" -188 520 mark 0
AnchorPoint: "Anchor-6" -188 520 mark 0
AnchorPoint: "Anchor-1" -188 520 mark 0
LayerCount: 2
Fore
SplineSet
-147 560 m 1,0,-1
 -297 560 l 1,1,-1
 -225 770 l 1,2,-1
 -25 770 l 1,3,-1
 -147 560 l 1,0,-1
EndSplineSet
EndChar

StartChar: uni0302
Encoding: 770 770 538
Width: 0
GlyphClass: 4
Flags: W
AnchorPoint: "Anchor-10" -279 520 mark 0
AnchorPoint: "Anchor-6" -279 520 mark 0
AnchorPoint: "Anchor-1" -279 520 mark 0
LayerCount: 2
Fore
SplineSet
-411 770 m 1,0,-1
 -147 770 l 1,1,-1
 -25 560 l 1,2,-1
 -209 560 l 1,3,-1
 -278 707 l 1,4,-1
 -280 707 l 1,5,-1
 -349 560 l 1,6,-1
 -533 560 l 1,7,-1
 -411 770 l 1,0,-1
EndSplineSet
EndChar

StartChar: uni030C
Encoding: 780 780 539
Width: 0
GlyphClass: 4
Flags: W
AnchorPoint: "Anchor-10" -279 770 basemark 0
AnchorPoint: "Anchor-10" -279 520 mark 0
AnchorPoint: "Anchor-6" -279 520 mark 0
AnchorPoint: "Anchor-1" -279 520 mark 0
LayerCount: 2
Fore
SplineSet
-533 770 m 1,0,-1
 -349 770 l 1,1,-1
 -280 623 l 1,2,-1
 -278 623 l 1,3,-1
 -209 770 l 1,4,-1
 -25 770 l 1,5,-1
 -147 560 l 1,6,-1
 -411 560 l 1,7,-1
 -533 770 l 1,0,-1
EndSplineSet
EndChar

StartChar: uni0306
Encoding: 774 774 540
Width: 0
GlyphClass: 4
Flags: W
AnchorPoint: "Anchor-10" -251 520 mark 0
AnchorPoint: "Anchor-6" -251 520 mark 0
AnchorPoint: "Anchor-1" -251 520 mark 0
LayerCount: 2
Fore
SplineSet
-372 584 m 128,-1,1
 -425 610 -425 610 -455.5 656 c 128,-1,2
 -486 702 -486 702 -487 761 c 1,3,-1
 -334 761 l 1,4,5
 -329 716 -329 716 -309 694.5 c 128,-1,6
 -289 673 -289 673 -252 673 c 256,7,8
 -215 673 -215 673 -195 694.5 c 128,-1,9
 -175 716 -175 716 -169 761 c 1,10,-1
 -17 761 l 1,11,12
 -18 702 -18 702 -48.5 656 c 128,-1,13
 -79 610 -79 610 -132 584 c 128,-1,14
 -185 558 -185 558 -252 558 c 256,15,0
 -319 558 -319 558 -372 584 c 128,-1,1
EndSplineSet
EndChar

StartChar: uni030A
Encoding: 778 778 541
Width: 0
GlyphClass: 4
Flags: W
AnchorPoint: "Anchor-10" -185 743 basemark 0
AnchorPoint: "Anchor-10" -185 520 mark 0
AnchorPoint: "Anchor-6" -185 520 mark 0
AnchorPoint: "Anchor-1" -185 520 mark 0
LayerCount: 2
Fore
SplineSet
-266.5 524 m 128,-1,1
 -304 546 -304 546 -326 583.5 c 128,-1,2
 -348 621 -348 621 -348 665 c 256,3,4
 -348 709 -348 709 -326 746.5 c 128,-1,5
 -304 784 -304 784 -266.5 806 c 128,-1,6
 -229 828 -229 828 -184 828 c 0,7,8
 -140 828 -140 828 -102.5 806 c 128,-1,9
 -65 784 -65 784 -43 746.5 c 128,-1,10
 -21 709 -21 709 -21 665 c 256,11,12
 -21 621 -21 621 -43 583.5 c 128,-1,13
 -65 546 -65 546 -102.5 524 c 128,-1,14
 -140 502 -140 502 -184 502 c 0,15,0
 -229 502 -229 502 -266.5 524 c 128,-1,1
-141.5 622.5 m 128,-1,17
 -124 640 -124 640 -124 665 c 256,18,19
 -124 690 -124 690 -141.5 707.5 c 128,-1,20
 -159 725 -159 725 -184 725 c 0,21,22
 -210 725 -210 725 -227 708 c 128,-1,23
 -244 691 -244 691 -244 665 c 0,24,25
 -244 640 -244 640 -227 622.5 c 128,-1,26
 -210 605 -210 605 -184 605 c 0,27,16
 -159 605 -159 605 -141.5 622.5 c 128,-1,17
EndSplineSet
EndChar

StartChar: tildecomb
Encoding: 771 771 542
Width: 0
GlyphClass: 4
Flags: W
AnchorPoint: "Anchor-10" -262 771 basemark 0
AnchorPoint: "Anchor-10" -262 520 mark 0
AnchorPoint: "Anchor-6" -262 520 mark 0
AnchorPoint: "Anchor-1" -262 520 mark 0
LayerCount: 2
Fore
SplineSet
-279 608 m 0,1,2
 -319 632 -319 632 -340 632 c 0,3,4
 -354 632 -354 632 -359 619 c 128,-1,5
 -364 606 -364 606 -364 569 c 1,6,-1
 -496 569 l 1,7,8
 -496 672 -496 672 -468 721.5 c 128,-1,9
 -440 771 -440 771 -381 771 c 0,10,11
 -325 771 -325 771 -243 722 c 0,12,13
 -203 698 -203 698 -183 698 c 0,14,15
 -169 698 -169 698 -163.5 711 c 128,-1,16
 -158 724 -158 724 -158 761 c 1,17,-1
 -26 761 l 1,18,19
 -26 658 -26 658 -54.5 608.5 c 128,-1,20
 -83 559 -83 559 -142 559 c 0,21,0
 -197 559 -197 559 -279 608 c 0,1,2
EndSplineSet
EndChar

StartChar: uni0304
Encoding: 772 772 543
Width: 0
GlyphClass: 4
Flags: W
AnchorPoint: "Anchor-10" -230 726 basemark 0
AnchorPoint: "Anchor-10" -230 520 mark 0
AnchorPoint: "Anchor-6" -230 520 mark 0
AnchorPoint: "Anchor-1" -230 520 mark 0
LayerCount: 2
Fore
SplineSet
-432 726 m 1,0,-1
 -26 726 l 1,1,-1
 -26 604 l 1,2,-1
 -432 604 l 1,3,-1
 -432 726 l 1,0,-1
EndSplineSet
EndChar

StartChar: uni0305
Encoding: 773 773 544
Width: 0
GlyphClass: 4
Flags: W
LayerCount: 2
Fore
SplineSet
-627 915 m 1,0,-1
 0 915 l 1,1,-1
 0 800 l 1,2,-1
 -627 800 l 1,3,-1
 -627 915 l 1,0,-1
EndSplineSet
EndChar

StartChar: hookabovecomb
Encoding: 777 777 545
Width: 0
GlyphClass: 4
Flags: W
AnchorPoint: "Anchor-10" -210 778 basemark 0
AnchorPoint: "Anchor-10" -210 520 mark 0
AnchorPoint: "Anchor-6" -210 520 mark 0
AnchorPoint: "Anchor-1" -210 520 mark 0
LayerCount: 2
Fore
SplineSet
-183 630 m 0,1,2
 -183 649 -183 649 -194 655.5 c 128,-1,3
 -205 662 -205 662 -235 662 c 0,4,5
 -305 662 -305 662 -380 639 c 1,6,-1
 -393 758 l 1,7,8
 -352 767 -352 767 -303 772.5 c 128,-1,9
 -254 778 -254 778 -210 778 c 0,10,11
 -138 778 -138 778 -99 770 c 128,-1,12
 -60 762 -60 762 -43.5 742.5 c 128,-1,13
 -27 723 -27 723 -27 687 c 0,14,15
 -27 660 -27 660 -33.5 626.5 c 128,-1,16
 -40 593 -40 593 -50 568 c 1,17,-1
 -194 568 l 1,18,0
 -183 601 -183 601 -183 630 c 0,1,2
EndSplineSet
EndChar

StartChar: uni030F
Encoding: 783 783 546
Width: 0
GlyphClass: 4
Flags: W
AnchorPoint: "Anchor-10" -279 770 basemark 0
AnchorPoint: "Anchor-10" -279 520 mark 0
AnchorPoint: "Anchor-6" -279 520 mark 0
AnchorPoint: "Anchor-1" -279 520 mark 0
LayerCount: 2
Fore
SplineSet
-571 770 m 1,0,-1
 -371 770 l 1,1,-1
 -299 560 l 1,2,-1
 -449 560 l 1,3,-1
 -571 770 l 1,0,-1
-316 770 m 1,4,-1
 -116 770 l 1,5,-1
 -44 560 l 1,6,-1
 -194 560 l 1,7,-1
 -316 770 l 1,4,-1
EndSplineSet
EndChar

StartChar: uni0311
Encoding: 785 785 547
Width: 0
GlyphClass: 4
Flags: W
AnchorPoint: "Anchor-10" -251 772 basemark 0
AnchorPoint: "Anchor-10" -251 520 mark 0
AnchorPoint: "Anchor-6" -251 520 mark 0
AnchorPoint: "Anchor-1" -251 520 mark 0
LayerCount: 2
Fore
SplineSet
-132 746 m 128,-1,1
 -79 720 -79 720 -48.5 674 c 128,-1,2
 -18 628 -18 628 -17 569 c 1,3,-1
 -169 569 l 1,4,5
 -175 614 -175 614 -195 635.5 c 128,-1,6
 -215 657 -215 657 -252 657 c 256,7,8
 -289 657 -289 657 -309 635.5 c 128,-1,9
 -329 614 -329 614 -334 569 c 1,10,-1
 -487 569 l 1,11,12
 -486 628 -486 628 -455.5 674 c 128,-1,13
 -425 720 -425 720 -372 746 c 128,-1,14
 -319 772 -319 772 -252 772 c 256,15,0
 -185 772 -185 772 -132 746 c 128,-1,1
EndSplineSet
EndChar

StartChar: uni0312
Encoding: 786 786 548
Width: 0
GlyphClass: 4
Flags: W
AnchorPoint: "Anchor-10" -180 770 basemark 0
AnchorPoint: "Anchor-10" -180 520 mark 0
AnchorPoint: "Anchor-6" -180 520 mark 0
AnchorPoint: "Anchor-1" -180 520 mark 0
LayerCount: 2
Fore
SplineSet
-194 770 m 1,0,-1
 -44 770 l 1,1,-1
 -116 560 l 1,2,-1
 -316 560 l 1,3,-1
 -194 770 l 1,0,-1
EndSplineSet
EndChar

StartChar: uni031B
Encoding: 795 795 549
Width: 0
GlyphClass: 4
Flags: W
AnchorPoint: "Anchor-11" -64 770 basemark 0
AnchorPoint: "Anchor-11" -317 623 mark 0
AnchorPoint: "Anchor-7" -317 623 mark 0
AnchorPoint: "Anchor-3" -317 623 mark 0
LayerCount: 2
Fore
SplineSet
-345 504 m 1,1,-1
 -317 623 l 1,2,3
 -315 612 -315 612 -302.5 604 c 128,-1,4
 -290 596 -290 596 -274 596 c 0,5,6
 -251 596 -251 596 -238 611.5 c 128,-1,7
 -225 627 -225 627 -225 655 c 0,8,9
 -225 677 -225 677 -232.5 712 c 128,-1,10
 -240 747 -240 747 -249 770 c 1,11,-1
 -91 770 l 1,12,13
 -70 705 -70 705 -70 638 c 0,14,15
 -70 556 -70 556 -108 512 c 128,-1,16
 -146 468 -146 468 -217 468 c 0,17,0
 -276 468 -276 468 -345 504 c 1,1,-1
EndSplineSet
EndChar

StartChar: uni0326
Encoding: 806 806 552
Width: 0
GlyphClass: 4
Flags: W
AnchorPoint: "Anchor-10" -188 -290 mark 0
AnchorPoint: "Anchor-9" -161 -210 basemark 0
AnchorPoint: "Anchor-6" -188 -290 mark 0
AnchorPoint: "Anchor-1" -188 -290 mark 0
LayerCount: 2
Fore
SplineSet
-147 -250 m 1,0,-1
 -297 -250 l 1,1,-1
 -225 -40 l 1,2,-1
 -25 -40 l 1,3,-1
 -147 -250 l 1,0,-1
EndSplineSet
EndChar

StartChar: uni0327
Encoding: 807 807 553
Width: 0
GlyphClass: 4
Flags: W
AnchorPoint: "Anchor-8" -281 0 mark 0
LayerCount: 2
Fore
SplineSet
-372 -199 m 1,1,-1
 -356 -80 l 1,2,3
 -311 -100 -311 -100 -261 -100 c 0,4,5
 -233 -100 -233 -100 -218.5 -92 c 128,-1,6
 -204 -84 -204 -84 -204 -69 c 0,7,8
 -204 -35 -204 -35 -281 0 c 1,9,-1
 -131 41 l 1,10,11
 -91 6 -91 6 -72 -25.5 c 128,-1,12
 -53 -57 -53 -57 -53 -92 c 0,13,14
 -53 -153 -53 -153 -104.5 -186 c 128,-1,15
 -156 -219 -156 -219 -250 -219 c 0,16,0
 -319 -219 -319 -219 -372 -199 c 1,1,-1
EndSplineSet
EndChar

StartChar: uni0328
Encoding: 808 808 554
Width: 0
GlyphClass: 4
Flags: W
AnchorPoint: "Anchor-5" -144 0 mark 0
AnchorPoint: "Anchor-2" -144 0 mark 0
LayerCount: 2
Fore
SplineSet
-320.5 -186 m 128,-1,1
 -372 -153 -372 -153 -372 -92 c 0,2,3
 -372 -57 -372 -57 -353 -25.5 c 128,-1,4
 -334 6 -334 6 -294 41 c 1,5,-1
 -144 0 l 1,6,7
 -220 -34 -220 -34 -220 -69 c 0,8,9
 -220 -84 -220 -84 -205.5 -92 c 128,-1,10
 -191 -100 -191 -100 -164 -100 c 0,11,12
 -114 -100 -114 -100 -69 -80 c 1,13,-1
 -53 -199 l 1,14,15
 -106 -219 -106 -219 -175 -219 c 0,16,0
 -269 -219 -269 -219 -320.5 -186 c 128,-1,1
EndSplineSet
EndChar

StartChar: uni0370
Encoding: 880 880 570
Width: 612
Flags: W
LayerCount: 2
Fore
SplineSet
576 444 m 1,0,-1
 576 315 l 1,1,-1
 250 315 l 1,2,-1
 250 0 l 1,3,-1
 76 0 l 1,4,-1
 76 730 l 1,5,-1
 250 730 l 1,6,-1
 250 444 l 1,7,-1
 576 444 l 1,0,-1
EndSplineSet
EndChar

StartChar: uni0371
Encoding: 881 881 571
Width: 489
Flags: W
LayerCount: 2
Fore
SplineSet
453 327 m 1,0,-1
 453 214 l 1,1,-1
 230 214 l 1,2,-1
 230 0 l 1,3,-1
 66 0 l 1,4,-1
 66 520 l 1,5,-1
 230 520 l 1,6,-1
 230 327 l 1,7,-1
 453 327 l 1,0,-1
EndSplineSet
EndChar

StartChar: uni0372
Encoding: 882 882 572
Width: 748
Flags: W
LayerCount: 2
Fore
SplineSet
289 589 m 1,0,-1
 197 589 l 1,1,-1
 197 323 l 1,2,-1
 56 323 l 1,3,-1
 56 730 l 1,4,-1
 692 730 l 1,5,-1
 692 323 l 1,6,-1
 551 323 l 1,7,-1
 551 589 l 1,8,-1
 459 589 l 1,9,-1
 459 0 l 1,10,-1
 289 0 l 1,11,-1
 289 589 l 1,0,-1
EndSplineSet
EndChar

StartChar: uni0373
Encoding: 883 883 573
Width: 636
Flags: W
LayerCount: 2
Fore
SplineSet
238 613 m 1,0,-1
 175 613 l 1,1,-1
 175 423 l 1,2,-1
 51 423 l 1,3,-1
 51 730 l 1,4,-1
 585 730 l 1,5,-1
 585 423 l 1,6,-1
 461 423 l 1,7,-1
 461 613 l 1,8,-1
 398 613 l 1,9,-1
 398 0 l 1,10,-1
 238 0 l 1,11,-1
 238 613 l 1,0,-1
EndSplineSet
EndChar

StartChar: uni0374
Encoding: 884 884 574
Width: 354
Flags: W
LayerCount: 2
Fore
SplineSet
318 770 m 1,0,-1
 201 470 l 1,1,-1
 61 470 l 1,2,-1
 125 770 l 1,3,-1
 318 770 l 1,0,-1
EndSplineSet
EndChar

StartChar: uni0375
Encoding: 885 885 575
Width: 353
Flags: W
LayerCount: 2
Fore
SplineSet
229 -110 m 1,0,-1
 36 -110 l 1,1,-1
 152 190 l 1,2,-1
 292 190 l 1,3,-1
 229 -110 l 1,0,-1
EndSplineSet
EndChar

StartChar: uni0376
Encoding: 886 886 576
Width: 746
Flags: W
LayerCount: 2
Fore
SplineSet
670 0 m 1,0,-1
 504 0 l 1,1,-1
 504 448 l 1,2,-1
 502 448 l 1,3,-1
 242 0 l 1,4,-1
 76 0 l 1,5,-1
 76 730 l 1,6,-1
 242 730 l 1,7,-1
 242 282 l 1,8,-1
 244 282 l 1,9,-1
 504 730 l 1,10,-1
 670 730 l 1,11,-1
 670 0 l 1,0,-1
EndSplineSet
EndChar

StartChar: uni0377
Encoding: 887 887 577
Width: 630
Flags: W
LayerCount: 2
Fore
SplineSet
226 520 m 1,0,-1
 226 221 l 1,1,-1
 228 221 l 1,2,-1
 402 520 l 1,3,-1
 564 520 l 1,4,-1
 564 0 l 1,5,-1
 404 0 l 1,6,-1
 404 299 l 1,7,-1
 402 299 l 1,8,-1
 228 0 l 1,9,-1
 66 0 l 1,10,-1
 66 520 l 1,11,-1
 226 520 l 1,0,-1
EndSplineSet
EndChar

StartChar: uni037A
Encoding: 890 890 578
Width: 425
Flags: W
LayerCount: 2
Fore
SplineSet
231 -95 m 2,0,1
 231 -142 231 -142 241 -152.5 c 128,-1,2
 251 -163 251 -163 293 -163 c 0,3,4
 339 -163 339 -163 376 -149 c 1,5,-1
 389 -252 l 1,6,7
 325 -267 325 -267 263 -267 c 0,8,9
 153 -267 153 -267 114.5 -231 c 128,-1,10
 76 -195 76 -195 76 -95 c 2,11,-1
 76 -60 l 1,12,-1
 231 -60 l 1,13,-1
 231 -95 l 2,0,1
EndSplineSet
EndChar

StartChar: uni037B
Encoding: 891 891 579
Width: 551
Flags: W
LayerCount: 2
Fore
SplineSet
91 144 m 1,0,1
 154 107 154 107 223 107 c 0,2,3
 283 107 283 107 320.5 148 c 128,-1,4
 358 189 358 189 358 260 c 0,5,6
 358 334 358 334 322.5 372.5 c 128,-1,7
 287 411 287 411 223 411 c 0,8,9
 154 411 154 411 91 374 c 1,10,-1
 56 492 l 1,11,12
 138 530 138 530 231 530 c 0,13,14
 367 530 367 530 443.5 458 c 128,-1,15
 520 386 520 386 520 260 c 0,16,17
 520 135 520 135 441.5 62.5 c 128,-1,18
 363 -10 363 -10 231 -10 c 0,19,20
 138 -10 138 -10 56 28 c 1,21,-1
 91 144 l 1,0,1
EndSplineSet
EndChar

StartChar: uni037C
Encoding: 892 892 580
Width: 551
Flags: W
LayerCount: 2
Fore
SplineSet
276 197 m 1,0,-1
 276 323 l 1,1,-1
 403 323 l 1,2,-1
 403 197 l 1,3,-1
 276 197 l 1,0,-1
460 144 m 1,4,-1
 495 28 l 1,5,6
 413 -10 413 -10 320 -10 c 0,7,8
 188 -10 188 -10 109.5 62.5 c 128,-1,9
 31 135 31 135 31 260 c 0,10,11
 31 386 31 386 107.5 458 c 128,-1,12
 184 530 184 530 320 530 c 0,13,14
 413 530 413 530 495 492 c 1,15,-1
 460 374 l 1,16,17
 397 411 397 411 328 411 c 0,18,19
 264 411 264 411 228.5 372.5 c 128,-1,20
 193 334 193 334 193 260 c 0,21,22
 193 189 193 189 230.5 148 c 128,-1,23
 268 107 268 107 328 107 c 0,24,25
 397 107 397 107 460 144 c 1,4,-1
EndSplineSet
EndChar

StartChar: uni037D
Encoding: 893 893 581
Width: 551
Flags: W
LayerCount: 2
Fore
SplineSet
148 197 m 1,0,-1
 148 323 l 1,1,-1
 275 323 l 1,2,-1
 275 197 l 1,3,-1
 148 197 l 1,0,-1
91 144 m 1,4,5
 154 107 154 107 223 107 c 0,6,7
 283 107 283 107 320.5 148 c 128,-1,8
 358 189 358 189 358 260 c 0,9,10
 358 334 358 334 322.5 372.5 c 128,-1,11
 287 411 287 411 223 411 c 0,12,13
 154 411 154 411 91 374 c 1,14,-1
 56 492 l 1,15,16
 138 530 138 530 231 530 c 0,17,18
 367 530 367 530 443.5 458 c 128,-1,19
 520 386 520 386 520 260 c 0,20,21
 520 135 520 135 441.5 62.5 c 128,-1,22
 363 -10 363 -10 231 -10 c 0,23,24
 138 -10 138 -10 56 28 c 1,25,-1
 91 144 l 1,4,5
EndSplineSet
EndChar

StartChar: uni037E
Encoding: 894 894 582
Width: 448
Flags: W
LayerCount: 2
Fore
SplineSet
211 -110 m 1,0,-1
 71 -110 l 1,1,-1
 134 190 l 1,2,-1
 327 190 l 1,3,-1
 211 -110 l 1,0,-1
134 377 m 1,4,-1
 134 567 l 1,5,-1
 324 567 l 1,6,-1
 324 377 l 1,7,-1
 134 377 l 1,4,-1
EndSplineSet
EndChar

StartChar: tonos
Encoding: 900 900 583
Width: 394
Flags: W
LayerCount: 2
Fore
SplineSet
165 767 m 1,0,-1
 358 767 l 1,1,-1
 201 590 l 1,2,-1
 61 590 l 1,3,-1
 165 767 l 1,0,-1
EndSplineSet
EndChar

StartChar: dieresistonos
Encoding: 901 901 584
Width: 500
Flags: W
LayerCount: 2
Fore
SplineSet
240 967 m 1,0,-1
 434 967 l 1,1,-1
 277 790 l 1,2,-1
 137 790 l 1,3,-1
 240 967 l 1,0,-1
286 603 m 1,4,-1
 286 753 l 1,5,-1
 433 753 l 1,6,-1
 433 603 l 1,7,-1
 286 603 l 1,4,-1
66 603 m 1,8,-1
 66 753 l 1,9,-1
 213 753 l 1,10,-1
 213 603 l 1,11,-1
 66 603 l 1,8,-1
EndSplineSet
EndChar

